<?xml version="1.0" encoding="utf-8" standalone="no"?>
<!DOCTYPE svg PUBLIC "-//W3C//DTD SVG 1.1//EN"
  "http://www.w3.org/Graphics/SVG/1.1/DTD/svg11.dtd">
<!-- Created with matplotlib (https://matplotlib.org/) -->
<svg height="180pt" version="1.1" viewBox="0 0 278.175 180" width="278.175pt" xmlns="http://www.w3.org/2000/svg" xmlns:xlink="http://www.w3.org/1999/xlink">
 <metadata>
  <rdf:RDF xmlns:cc="http://creativecommons.org/ns#" xmlns:dc="http://purl.org/dc/elements/1.1/" xmlns:rdf="http://www.w3.org/1999/02/22-rdf-syntax-ns#">
   <cc:Work>
    <dc:type rdf:resource="http://purl.org/dc/dcmitype/StillImage"/>
    <dc:date>2020-08-18T13:52:25.263190</dc:date>
    <dc:format>image/svg+xml</dc:format>
    <dc:creator>
     <cc:Agent>
      <dc:title>Matplotlib v3.3.0, https://matplotlib.org/</dc:title>
     </cc:Agent>
    </dc:creator>
   </cc:Work>
  </rdf:RDF>
 </metadata>
 <defs>
  <style type="text/css">*{stroke-linecap:butt;stroke-linejoin:round;}</style>
 </defs>
 <g id="figure_1">
  <g id="patch_1">
   <path d="M 0 180 
L 278.175 180 
L 278.175 0 
L 0 0 
z
" style="fill:#ffffff;"/>
  </g>
  <g id="axes_1">
   <g id="patch_2">
    <path d="M 51.835 133.54 
L 265.215 133.54 
L 265.215 43.92 
L 51.835 43.92 
z
" style="fill:#eaeaf2;"/>
   </g>
   <g id="matplotlib.axis_1">
    <g id="xtick_1">
     <g id="line2d_1">
      <path clip-path="url(#pc9f10212bb)" d="M 78.696021 133.54 
L 78.696021 43.92 
" style="fill:none;stroke:#ffffff;stroke-linecap:round;"/>
     </g>
     <g id="text_1">
      <!-- 0 -->
      <g style="fill:#262626;" transform="translate(75.637505 150.913594)scale(0.11 -0.11)">
       <defs>
        <path d="M 4.15625 35.296875 
Q 4.15625 48 6.765625 55.734375 
Q 9.375 63.484375 14.515625 67.671875 
Q 19.671875 71.875 27.484375 71.875 
Q 33.25 71.875 37.59375 69.546875 
Q 41.9375 67.234375 44.765625 62.859375 
Q 47.609375 58.5 49.21875 52.21875 
Q 50.828125 45.953125 50.828125 35.296875 
Q 50.828125 22.703125 48.234375 14.96875 
Q 45.65625 7.234375 40.5 3 
Q 35.359375 -1.21875 27.484375 -1.21875 
Q 17.140625 -1.21875 11.234375 6.203125 
Q 4.15625 15.140625 4.15625 35.296875 
z
M 13.1875 35.296875 
Q 13.1875 17.671875 17.3125 11.828125 
Q 21.4375 6 27.484375 6 
Q 33.546875 6 37.671875 11.859375 
Q 41.796875 17.71875 41.796875 35.296875 
Q 41.796875 52.984375 37.671875 58.78125 
Q 33.546875 64.59375 27.390625 64.59375 
Q 21.34375 64.59375 17.71875 59.46875 
Q 13.1875 52.9375 13.1875 35.296875 
z
" id="ArialMT-48"/>
       </defs>
       <use xlink:href="#ArialMT-48"/>
      </g>
     </g>
    </g>
    <g id="xtick_2">
     <g id="line2d_2">
      <path clip-path="url(#pc9f10212bb)" d="M 142.903939 133.54 
L 142.903939 43.92 
" style="fill:none;stroke:#ffffff;stroke-linecap:round;"/>
     </g>
     <g id="text_2">
      <!-- 2 -->
      <g style="fill:#262626;" transform="translate(139.845424 150.913594)scale(0.11 -0.11)">
       <defs>
        <path d="M 50.34375 8.453125 
L 50.34375 0 
L 3.03125 0 
Q 2.9375 3.171875 4.046875 6.109375 
Q 5.859375 10.9375 9.828125 15.625 
Q 13.8125 20.3125 21.34375 26.46875 
Q 33.015625 36.03125 37.109375 41.625 
Q 41.21875 47.21875 41.21875 52.203125 
Q 41.21875 57.421875 37.46875 61 
Q 33.734375 64.59375 27.734375 64.59375 
Q 21.390625 64.59375 17.578125 60.78125 
Q 13.765625 56.984375 13.71875 50.25 
L 4.6875 51.171875 
Q 5.609375 61.28125 11.65625 66.578125 
Q 17.71875 71.875 27.9375 71.875 
Q 38.234375 71.875 44.234375 66.15625 
Q 50.25 60.453125 50.25 52 
Q 50.25 47.703125 48.484375 43.546875 
Q 46.734375 39.40625 42.65625 34.8125 
Q 38.578125 30.21875 29.109375 22.21875 
Q 21.1875 15.578125 18.9375 13.203125 
Q 16.703125 10.84375 15.234375 8.453125 
z
" id="ArialMT-50"/>
       </defs>
       <use xlink:href="#ArialMT-50"/>
      </g>
     </g>
    </g>
    <g id="xtick_3">
     <g id="line2d_3">
      <path clip-path="url(#pc9f10212bb)" d="M 207.111858 133.54 
L 207.111858 43.92 
" style="fill:none;stroke:#ffffff;stroke-linecap:round;"/>
     </g>
     <g id="text_3">
      <!-- 4 -->
      <g style="fill:#262626;" transform="translate(204.053343 150.913594)scale(0.11 -0.11)">
       <defs>
        <path d="M 32.328125 0 
L 32.328125 17.140625 
L 1.265625 17.140625 
L 1.265625 25.203125 
L 33.9375 71.578125 
L 41.109375 71.578125 
L 41.109375 25.203125 
L 50.78125 25.203125 
L 50.78125 17.140625 
L 41.109375 17.140625 
L 41.109375 0 
z
M 32.328125 25.203125 
L 32.328125 57.46875 
L 9.90625 25.203125 
z
" id="ArialMT-52"/>
       </defs>
       <use xlink:href="#ArialMT-52"/>
      </g>
     </g>
    </g>
    <g id="text_4">
     <!-- listeners_lastfm -->
     <g style="fill:#262626;" transform="translate(116.846562 165.835469)scale(0.12 -0.12)">
      <defs>
       <path d="M 6.390625 0 
L 6.390625 71.578125 
L 15.1875 71.578125 
L 15.1875 0 
z
" id="ArialMT-108"/>
       <path d="M 6.640625 61.46875 
L 6.640625 71.578125 
L 15.4375 71.578125 
L 15.4375 61.46875 
z
M 6.640625 0 
L 6.640625 51.859375 
L 15.4375 51.859375 
L 15.4375 0 
z
" id="ArialMT-105"/>
       <path d="M 3.078125 15.484375 
L 11.765625 16.84375 
Q 12.5 11.625 15.84375 8.84375 
Q 19.1875 6.0625 25.203125 6.0625 
Q 31.25 6.0625 34.171875 8.515625 
Q 37.109375 10.984375 37.109375 14.3125 
Q 37.109375 17.28125 34.515625 19 
Q 32.71875 20.171875 25.53125 21.96875 
Q 15.875 24.421875 12.140625 26.203125 
Q 8.40625 27.984375 6.46875 31.125 
Q 4.546875 34.28125 4.546875 38.09375 
Q 4.546875 41.546875 6.125 44.5 
Q 7.71875 47.46875 10.453125 49.421875 
Q 12.5 50.921875 16.03125 51.96875 
Q 19.578125 53.03125 23.640625 53.03125 
Q 29.734375 53.03125 34.34375 51.265625 
Q 38.96875 49.515625 41.15625 46.5 
Q 43.359375 43.5 44.1875 38.484375 
L 35.59375 37.3125 
Q 35.015625 41.3125 32.203125 43.546875 
Q 29.390625 45.796875 24.265625 45.796875 
Q 18.21875 45.796875 15.625 43.796875 
Q 13.03125 41.796875 13.03125 39.109375 
Q 13.03125 37.40625 14.109375 36.03125 
Q 15.1875 34.625 17.484375 33.6875 
Q 18.796875 33.203125 25.25 31.453125 
Q 34.578125 28.953125 38.25 27.359375 
Q 41.9375 25.78125 44.03125 22.75 
Q 46.140625 19.734375 46.140625 15.234375 
Q 46.140625 10.84375 43.578125 6.953125 
Q 41.015625 3.078125 36.171875 0.953125 
Q 31.34375 -1.171875 25.25 -1.171875 
Q 15.140625 -1.171875 9.84375 3.03125 
Q 4.546875 7.234375 3.078125 15.484375 
z
" id="ArialMT-115"/>
       <path d="M 25.78125 7.859375 
L 27.046875 0.09375 
Q 23.34375 -0.6875 20.40625 -0.6875 
Q 15.625 -0.6875 12.984375 0.828125 
Q 10.359375 2.34375 9.28125 4.8125 
Q 8.203125 7.28125 8.203125 15.1875 
L 8.203125 45.015625 
L 1.765625 45.015625 
L 1.765625 51.859375 
L 8.203125 51.859375 
L 8.203125 64.703125 
L 16.9375 69.96875 
L 16.9375 51.859375 
L 25.78125 51.859375 
L 25.78125 45.015625 
L 16.9375 45.015625 
L 16.9375 14.703125 
Q 16.9375 10.9375 17.40625 9.859375 
Q 17.875 8.796875 18.921875 8.15625 
Q 19.96875 7.515625 21.921875 7.515625 
Q 23.390625 7.515625 25.78125 7.859375 
z
" id="ArialMT-116"/>
       <path d="M 42.09375 16.703125 
L 51.171875 15.578125 
Q 49.03125 7.625 43.21875 3.21875 
Q 37.40625 -1.171875 28.375 -1.171875 
Q 17 -1.171875 10.328125 5.828125 
Q 3.65625 12.84375 3.65625 25.484375 
Q 3.65625 38.578125 10.390625 45.796875 
Q 17.140625 53.03125 27.875 53.03125 
Q 38.28125 53.03125 44.875 45.953125 
Q 51.46875 38.875 51.46875 26.03125 
Q 51.46875 25.25 51.421875 23.6875 
L 12.75 23.6875 
Q 13.234375 15.140625 17.578125 10.59375 
Q 21.921875 6.0625 28.421875 6.0625 
Q 33.25 6.0625 36.671875 8.59375 
Q 40.09375 11.140625 42.09375 16.703125 
z
M 13.234375 30.90625 
L 42.1875 30.90625 
Q 41.609375 37.453125 38.875 40.71875 
Q 34.671875 45.796875 27.984375 45.796875 
Q 21.921875 45.796875 17.796875 41.75 
Q 13.671875 37.703125 13.234375 30.90625 
z
" id="ArialMT-101"/>
       <path d="M 6.59375 0 
L 6.59375 51.859375 
L 14.5 51.859375 
L 14.5 44.484375 
Q 20.21875 53.03125 31 53.03125 
Q 35.6875 53.03125 39.625 51.34375 
Q 43.5625 49.65625 45.515625 46.921875 
Q 47.46875 44.1875 48.25 40.4375 
Q 48.734375 37.984375 48.734375 31.890625 
L 48.734375 0 
L 39.9375 0 
L 39.9375 31.546875 
Q 39.9375 36.921875 38.90625 39.578125 
Q 37.890625 42.234375 35.28125 43.8125 
Q 32.671875 45.40625 29.15625 45.40625 
Q 23.53125 45.40625 19.453125 41.84375 
Q 15.375 38.28125 15.375 28.328125 
L 15.375 0 
z
" id="ArialMT-110"/>
       <path d="M 6.5 0 
L 6.5 51.859375 
L 14.40625 51.859375 
L 14.40625 44 
Q 17.4375 49.515625 20 51.265625 
Q 22.5625 53.03125 25.640625 53.03125 
Q 30.078125 53.03125 34.671875 50.203125 
L 31.640625 42.046875 
Q 28.421875 43.953125 25.203125 43.953125 
Q 22.3125 43.953125 20.015625 42.21875 
Q 17.71875 40.484375 16.75 37.40625 
Q 15.28125 32.71875 15.28125 27.15625 
L 15.28125 0 
z
" id="ArialMT-114"/>
       <path d="M -1.515625 -19.875 
L -1.515625 -13.53125 
L 56.734375 -13.53125 
L 56.734375 -19.875 
z
" id="ArialMT-95"/>
       <path d="M 40.4375 6.390625 
Q 35.546875 2.25 31.03125 0.53125 
Q 26.515625 -1.171875 21.34375 -1.171875 
Q 12.796875 -1.171875 8.203125 3 
Q 3.609375 7.171875 3.609375 13.671875 
Q 3.609375 17.484375 5.34375 20.625 
Q 7.078125 23.78125 9.890625 25.6875 
Q 12.703125 27.59375 16.21875 28.5625 
Q 18.796875 29.25 24.03125 29.890625 
Q 34.671875 31.15625 39.703125 32.90625 
Q 39.75 34.71875 39.75 35.203125 
Q 39.75 40.578125 37.25 42.78125 
Q 33.890625 45.75 27.25 45.75 
Q 21.046875 45.75 18.09375 43.578125 
Q 15.140625 41.40625 13.71875 35.890625 
L 5.125 37.0625 
Q 6.296875 42.578125 8.984375 45.96875 
Q 11.671875 49.359375 16.75 51.1875 
Q 21.828125 53.03125 28.515625 53.03125 
Q 35.15625 53.03125 39.296875 51.46875 
Q 43.453125 49.90625 45.40625 47.53125 
Q 47.359375 45.171875 48.140625 41.546875 
Q 48.578125 39.3125 48.578125 33.453125 
L 48.578125 21.734375 
Q 48.578125 9.46875 49.140625 6.21875 
Q 49.703125 2.984375 51.375 0 
L 42.1875 0 
Q 40.828125 2.734375 40.4375 6.390625 
z
M 39.703125 26.03125 
Q 34.90625 24.078125 25.34375 22.703125 
Q 19.921875 21.921875 17.671875 20.9375 
Q 15.4375 19.96875 14.203125 18.09375 
Q 12.984375 16.21875 12.984375 13.921875 
Q 12.984375 10.40625 15.640625 8.0625 
Q 18.3125 5.71875 23.4375 5.71875 
Q 28.515625 5.71875 32.46875 7.9375 
Q 36.421875 10.15625 38.28125 14.015625 
Q 39.703125 17 39.703125 22.796875 
z
" id="ArialMT-97"/>
       <path d="M 8.6875 0 
L 8.6875 45.015625 
L 0.921875 45.015625 
L 0.921875 51.859375 
L 8.6875 51.859375 
L 8.6875 57.375 
Q 8.6875 62.59375 9.625 65.140625 
Q 10.890625 68.5625 14.078125 70.671875 
Q 17.28125 72.796875 23.046875 72.796875 
Q 26.765625 72.796875 31.25 71.921875 
L 29.9375 64.265625 
Q 27.203125 64.75 24.75 64.75 
Q 20.75 64.75 19.09375 63.03125 
Q 17.4375 61.328125 17.4375 56.640625 
L 17.4375 51.859375 
L 27.546875 51.859375 
L 27.546875 45.015625 
L 17.4375 45.015625 
L 17.4375 0 
z
" id="ArialMT-102"/>
       <path d="M 6.59375 0 
L 6.59375 51.859375 
L 14.453125 51.859375 
L 14.453125 44.578125 
Q 16.890625 48.390625 20.9375 50.703125 
Q 25 53.03125 30.171875 53.03125 
Q 35.9375 53.03125 39.625 50.640625 
Q 43.3125 48.25 44.828125 43.953125 
Q 50.984375 53.03125 60.84375 53.03125 
Q 68.5625 53.03125 72.703125 48.75 
Q 76.859375 44.484375 76.859375 35.59375 
L 76.859375 0 
L 68.109375 0 
L 68.109375 32.671875 
Q 68.109375 37.9375 67.25 40.25 
Q 66.40625 42.578125 64.15625 43.984375 
Q 61.921875 45.40625 58.890625 45.40625 
Q 53.421875 45.40625 49.796875 41.765625 
Q 46.1875 38.140625 46.1875 30.125 
L 46.1875 0 
L 37.40625 0 
L 37.40625 33.6875 
Q 37.40625 39.546875 35.25 42.46875 
Q 33.109375 45.40625 28.21875 45.40625 
Q 24.515625 45.40625 21.359375 43.453125 
Q 18.21875 41.5 16.796875 37.734375 
Q 15.375 33.984375 15.375 26.90625 
L 15.375 0 
z
" id="ArialMT-109"/>
      </defs>
      <use xlink:href="#ArialMT-108"/>
      <use x="22.216797" xlink:href="#ArialMT-105"/>
      <use x="44.433594" xlink:href="#ArialMT-115"/>
      <use x="94.433594" xlink:href="#ArialMT-116"/>
      <use x="122.216797" xlink:href="#ArialMT-101"/>
      <use x="177.832031" xlink:href="#ArialMT-110"/>
      <use x="233.447266" xlink:href="#ArialMT-101"/>
      <use x="289.0625" xlink:href="#ArialMT-114"/>
      <use x="322.363281" xlink:href="#ArialMT-115"/>
      <use x="372.363281" xlink:href="#ArialMT-95"/>
      <use x="427.978516" xlink:href="#ArialMT-108"/>
      <use x="450.195312" xlink:href="#ArialMT-97"/>
      <use x="505.810547" xlink:href="#ArialMT-115"/>
      <use x="555.810547" xlink:href="#ArialMT-116"/>
      <use x="583.59375" xlink:href="#ArialMT-102"/>
      <use x="611.376953" xlink:href="#ArialMT-109"/>
     </g>
    </g>
    <g id="text_5">
     <!-- 1e6 -->
     <g style="fill:#262626;" transform="translate(246.863906 163.973437)scale(0.11 -0.11)">
      <defs>
       <path d="M 37.25 0 
L 28.46875 0 
L 28.46875 56 
Q 25.296875 52.984375 20.140625 49.953125 
Q 14.984375 46.921875 10.890625 45.40625 
L 10.890625 53.90625 
Q 18.265625 57.375 23.78125 62.296875 
Q 29.296875 67.234375 31.59375 71.875 
L 37.25 71.875 
z
" id="ArialMT-49"/>
       <path d="M 49.75 54.046875 
L 41.015625 53.375 
Q 39.84375 58.546875 37.703125 60.890625 
Q 34.125 64.65625 28.90625 64.65625 
Q 24.703125 64.65625 21.53125 62.3125 
Q 17.390625 59.28125 14.984375 53.46875 
Q 12.59375 47.65625 12.5 36.921875 
Q 15.671875 41.75 20.265625 44.09375 
Q 24.859375 46.4375 29.890625 46.4375 
Q 38.671875 46.4375 44.84375 39.96875 
Q 51.03125 33.5 51.03125 23.25 
Q 51.03125 16.5 48.125 10.71875 
Q 45.21875 4.9375 40.140625 1.859375 
Q 35.0625 -1.21875 28.609375 -1.21875 
Q 17.625 -1.21875 10.6875 6.859375 
Q 3.765625 14.9375 3.765625 33.5 
Q 3.765625 54.25 11.421875 63.671875 
Q 18.109375 71.875 29.4375 71.875 
Q 37.890625 71.875 43.28125 67.140625 
Q 48.6875 62.40625 49.75 54.046875 
z
M 13.875 23.1875 
Q 13.875 18.65625 15.796875 14.5 
Q 17.71875 10.359375 21.1875 8.171875 
Q 24.65625 6 28.46875 6 
Q 34.03125 6 38.03125 10.484375 
Q 42.046875 14.984375 42.046875 22.703125 
Q 42.046875 30.125 38.078125 34.390625 
Q 34.125 38.671875 28.125 38.671875 
Q 22.171875 38.671875 18.015625 34.390625 
Q 13.875 30.125 13.875 23.1875 
z
" id="ArialMT-54"/>
      </defs>
      <use xlink:href="#ArialMT-49"/>
      <use x="55.615234" xlink:href="#ArialMT-101"/>
      <use x="111.230469" xlink:href="#ArialMT-54"/>
     </g>
    </g>
   </g>
   <g id="matplotlib.axis_2">
    <g id="ytick_1">
     <g id="line2d_4">
      <path clip-path="url(#pc9f10212bb)" d="M 51.835 133.54 
L 265.215 133.54 
" style="fill:none;stroke:#ffffff;stroke-linecap:round;"/>
     </g>
     <g id="text_6">
      <!-- 0.00 -->
      <g style="fill:#262626;" transform="translate(20.927969 137.476797)scale(0.11 -0.11)">
       <defs>
        <path d="M 9.078125 0 
L 9.078125 10.015625 
L 19.09375 10.015625 
L 19.09375 0 
z
" id="ArialMT-46"/>
       </defs>
       <use xlink:href="#ArialMT-48"/>
       <use x="55.615234" xlink:href="#ArialMT-46"/>
       <use x="83.398438" xlink:href="#ArialMT-48"/>
       <use x="139.013672" xlink:href="#ArialMT-48"/>
      </g>
     </g>
    </g>
    <g id="ytick_2">
     <g id="line2d_5">
      <path clip-path="url(#pc9f10212bb)" d="M 51.835 111.135 
L 265.215 111.135 
" style="fill:none;stroke:#ffffff;stroke-linecap:round;"/>
     </g>
     <g id="text_7">
      <!-- 0.25 -->
      <g style="fill:#262626;" transform="translate(20.927969 115.071797)scale(0.11 -0.11)">
       <defs>
        <path d="M 4.15625 18.75 
L 13.375 19.53125 
Q 14.40625 12.796875 18.140625 9.390625 
Q 21.875 6 27.15625 6 
Q 33.5 6 37.890625 10.78125 
Q 42.28125 15.578125 42.28125 23.484375 
Q 42.28125 31 38.0625 35.34375 
Q 33.84375 39.703125 27 39.703125 
Q 22.75 39.703125 19.328125 37.765625 
Q 15.921875 35.84375 13.96875 32.765625 
L 5.71875 33.84375 
L 12.640625 70.609375 
L 48.25 70.609375 
L 48.25 62.203125 
L 19.671875 62.203125 
L 15.828125 42.96875 
Q 22.265625 47.46875 29.34375 47.46875 
Q 38.71875 47.46875 45.15625 40.96875 
Q 51.609375 34.46875 51.609375 24.265625 
Q 51.609375 14.546875 45.953125 7.46875 
Q 39.0625 -1.21875 27.15625 -1.21875 
Q 17.390625 -1.21875 11.203125 4.25 
Q 5.03125 9.71875 4.15625 18.75 
z
" id="ArialMT-53"/>
       </defs>
       <use xlink:href="#ArialMT-48"/>
       <use x="55.615234" xlink:href="#ArialMT-46"/>
       <use x="83.398438" xlink:href="#ArialMT-50"/>
       <use x="139.013672" xlink:href="#ArialMT-53"/>
      </g>
     </g>
    </g>
    <g id="ytick_3">
     <g id="line2d_6">
      <path clip-path="url(#pc9f10212bb)" d="M 51.835 88.73 
L 265.215 88.73 
" style="fill:none;stroke:#ffffff;stroke-linecap:round;"/>
     </g>
     <g id="text_8">
      <!-- 0.50 -->
      <g style="fill:#262626;" transform="translate(20.927969 92.666797)scale(0.11 -0.11)">
       <use xlink:href="#ArialMT-48"/>
       <use x="55.615234" xlink:href="#ArialMT-46"/>
       <use x="83.398438" xlink:href="#ArialMT-53"/>
       <use x="139.013672" xlink:href="#ArialMT-48"/>
      </g>
     </g>
    </g>
    <g id="ytick_4">
     <g id="line2d_7">
      <path clip-path="url(#pc9f10212bb)" d="M 51.835 66.325 
L 265.215 66.325 
" style="fill:none;stroke:#ffffff;stroke-linecap:round;"/>
     </g>
     <g id="text_9">
      <!-- 0.75 -->
      <g style="fill:#262626;" transform="translate(20.927969 70.261797)scale(0.11 -0.11)">
       <defs>
        <path d="M 4.734375 62.203125 
L 4.734375 70.65625 
L 51.078125 70.65625 
L 51.078125 63.8125 
Q 44.234375 56.546875 37.515625 44.484375 
Q 30.8125 32.421875 27.15625 19.671875 
Q 24.515625 10.6875 23.78125 0 
L 14.75 0 
Q 14.890625 8.453125 18.0625 20.40625 
Q 21.234375 32.375 27.171875 43.484375 
Q 33.109375 54.59375 39.796875 62.203125 
z
" id="ArialMT-55"/>
       </defs>
       <use xlink:href="#ArialMT-48"/>
       <use x="55.615234" xlink:href="#ArialMT-46"/>
       <use x="83.398438" xlink:href="#ArialMT-55"/>
       <use x="139.013672" xlink:href="#ArialMT-53"/>
      </g>
     </g>
    </g>
    <g id="ytick_5">
     <g id="line2d_8">
      <path clip-path="url(#pc9f10212bb)" d="M 51.835 43.92 
L 265.215 43.92 
" style="fill:none;stroke:#ffffff;stroke-linecap:round;"/>
     </g>
     <g id="text_10">
      <!-- 1.00 -->
      <g style="fill:#262626;" transform="translate(20.927969 47.856797)scale(0.11 -0.11)">
       <use xlink:href="#ArialMT-49"/>
       <use x="55.615234" xlink:href="#ArialMT-46"/>
       <use x="83.398438" xlink:href="#ArialMT-48"/>
       <use x="139.013672" xlink:href="#ArialMT-48"/>
      </g>
     </g>
    </g>
    <g id="text_11">
     <!-- listeners_lastfm -->
     <g style="fill:#262626;" transform="translate(14.542969 130.408438)rotate(-90)scale(0.12 -0.12)">
      <use xlink:href="#ArialMT-108"/>
      <use x="22.216797" xlink:href="#ArialMT-105"/>
      <use x="44.433594" xlink:href="#ArialMT-115"/>
      <use x="94.433594" xlink:href="#ArialMT-116"/>
      <use x="122.216797" xlink:href="#ArialMT-101"/>
      <use x="177.832031" xlink:href="#ArialMT-110"/>
      <use x="233.447266" xlink:href="#ArialMT-101"/>
      <use x="289.0625" xlink:href="#ArialMT-114"/>
      <use x="322.363281" xlink:href="#ArialMT-115"/>
      <use x="372.363281" xlink:href="#ArialMT-95"/>
      <use x="427.978516" xlink:href="#ArialMT-108"/>
      <use x="450.195312" xlink:href="#ArialMT-97"/>
      <use x="505.810547" xlink:href="#ArialMT-115"/>
      <use x="555.810547" xlink:href="#ArialMT-116"/>
      <use x="583.59375" xlink:href="#ArialMT-102"/>
      <use x="611.376953" xlink:href="#ArialMT-109"/>
     </g>
    </g>
   </g>
   <g id="patch_3">
    <path d="M 51.835 133.54 
L 51.835 43.92 
" style="fill:none;stroke:#ffffff;stroke-linecap:square;stroke-linejoin:miter;stroke-width:1.25;"/>
   </g>
   <g id="patch_4">
    <path d="M 51.835 133.54 
L 265.215 133.54 
" style="fill:none;stroke:#ffffff;stroke-linecap:square;stroke-linejoin:miter;stroke-width:1.25;"/>
   </g>
  </g>
  <g id="axes_2">
   <g id="PolyCollection_1">
    <defs>
     <path d="M 74.645741 -46.854353 
L 74.645741 -46.46 
L 76.069915 -46.46 
L 77.49409 -46.46 
L 78.918264 -46.46 
L 80.342439 -46.46 
L 81.766613 -46.46 
L 83.190788 -46.46 
L 84.614962 -46.46 
L 86.039137 -46.46 
L 87.463312 -46.46 
L 88.887486 -46.46 
L 90.311661 -46.46 
L 91.735835 -46.46 
L 93.16001 -46.46 
L 94.584184 -46.46 
L 96.008359 -46.46 
L 97.432533 -46.46 
L 98.856708 -46.46 
L 100.280883 -46.46 
L 101.705057 -46.46 
L 103.129232 -46.46 
L 104.553406 -46.46 
L 105.977581 -46.46 
L 107.401755 -46.46 
L 108.82593 -46.46 
L 110.250104 -46.46 
L 111.674279 -46.46 
L 113.098454 -46.46 
L 114.522628 -46.46 
L 115.946803 -46.46 
L 117.370977 -46.46 
L 118.795152 -46.46 
L 120.219326 -46.46 
L 121.643501 -46.46 
L 123.067675 -46.46 
L 124.49185 -46.46 
L 125.916025 -46.46 
L 127.340199 -46.46 
L 128.764374 -46.46 
L 130.188548 -46.46 
L 131.612723 -46.46 
L 133.036897 -46.46 
L 134.461072 -46.46 
L 135.885246 -46.46 
L 137.309421 -46.46 
L 138.733596 -46.46 
L 140.15777 -46.46 
L 141.581945 -46.46 
L 143.006119 -46.46 
L 144.430294 -46.46 
L 145.854468 -46.46 
L 147.278643 -46.46 
L 148.702817 -46.46 
L 150.126992 -46.46 
L 151.551167 -46.46 
L 152.975341 -46.46 
L 154.399516 -46.46 
L 155.82369 -46.46 
L 157.247865 -46.46 
L 158.672039 -46.46 
L 160.096214 -46.46 
L 161.520388 -46.46 
L 162.944563 -46.46 
L 164.368738 -46.46 
L 165.792912 -46.46 
L 167.217087 -46.46 
L 168.641261 -46.46 
L 170.065436 -46.46 
L 171.48961 -46.46 
L 172.913785 -46.46 
L 174.337959 -46.46 
L 175.762134 -46.46 
L 177.186309 -46.46 
L 178.610483 -46.46 
L 180.034658 -46.46 
L 181.458832 -46.46 
L 182.883007 -46.46 
L 184.307181 -46.46 
L 185.731356 -46.46 
L 187.15553 -46.46 
L 188.579705 -46.46 
L 190.00388 -46.46 
L 191.428054 -46.46 
L 192.852229 -46.46 
L 194.276403 -46.46 
L 195.700578 -46.46 
L 197.124752 -46.46 
L 198.548927 -46.46 
L 199.973101 -46.46 
L 201.397276 -46.46 
L 202.821451 -46.46 
L 204.245625 -46.46 
L 205.6698 -46.46 
L 207.093974 -46.46 
L 208.518149 -46.46 
L 209.942323 -46.46 
L 211.366498 -46.46 
L 212.790672 -46.46 
L 214.214847 -46.46 
L 215.639022 -46.46 
L 217.063196 -46.46 
L 218.487371 -46.46 
L 219.911545 -46.46 
L 221.33572 -46.46 
L 222.759894 -46.46 
L 224.184069 -46.46 
L 225.608243 -46.46 
L 227.032418 -46.46 
L 228.456593 -46.46 
L 229.880767 -46.46 
L 231.304942 -46.46 
L 232.729116 -46.46 
L 234.153291 -46.46 
L 235.577465 -46.46 
L 237.00164 -46.46 
L 238.425814 -46.46 
L 239.849989 -46.46 
L 241.274164 -46.46 
L 242.698338 -46.46 
L 244.122513 -46.46 
L 245.546687 -46.46 
L 246.970862 -46.46 
L 248.395036 -46.46 
L 249.819211 -46.46 
L 251.243385 -46.46 
L 252.66756 -46.46 
L 254.091735 -46.46 
L 255.515909 -46.46 
L 255.515909 -46.46 
L 255.515909 -46.46 
L 254.091735 -46.501051 
L 252.66756 -46.52288 
L 251.243385 -46.593186 
L 249.819211 -46.511415 
L 248.395036 -46.471627 
L 246.970862 -46.46 
L 245.546687 -46.461879 
L 244.122513 -46.46 
L 242.698338 -46.460987 
L 241.274164 -46.46 
L 239.849989 -46.460533 
L 238.425814 -46.46 
L 237.00164 -46.460291 
L 235.577465 -46.46 
L 234.153291 -46.461855 
L 232.729116 -46.47284 
L 231.304942 -46.494664 
L 229.880767 -46.499397 
L 228.456593 -46.52257 
L 227.032418 -46.599389 
L 225.608243 -46.651886 
L 224.184069 -46.65986 
L 222.759894 -46.60678 
L 221.33572 -46.589593 
L 219.911545 -46.557846 
L 218.487371 -46.505079 
L 217.063196 -46.50486 
L 215.639022 -46.522179 
L 214.214847 -46.489274 
L 212.790672 -46.472731 
L 211.366498 -46.5194 
L 209.942323 -46.589625 
L 208.518149 -46.601524 
L 207.093974 -46.614095 
L 205.6698 -46.529343 
L 204.245625 -46.473286 
L 202.821451 -46.494343 
L 201.397276 -46.559654 
L 199.973101 -46.623165 
L 198.548927 -46.737152 
L 197.124752 -46.856966 
L 195.700578 -46.801393 
L 194.276403 -46.732542 
L 192.852229 -46.742241 
L 191.428054 -46.788675 
L 190.00388 -46.781631 
L 188.579705 -46.777823 
L 187.15553 -46.837377 
L 185.731356 -46.778595 
L 184.307181 -46.633708 
L 182.883007 -46.597439 
L 181.458832 -46.602019 
L 180.034658 -46.578351 
L 178.610483 -46.632008 
L 177.186309 -46.670854 
L 175.762134 -46.684671 
L 174.337959 -46.842517 
L 172.913785 -47.094315 
L 171.48961 -47.175291 
L 170.065436 -47.073715 
L 168.641261 -46.963828 
L 167.217087 -46.800236 
L 165.792912 -46.922861 
L 164.368738 -47.132109 
L 162.944563 -46.975042 
L 161.520388 -46.843176 
L 160.096214 -46.99653 
L 158.672039 -47.260162 
L 157.247865 -47.191487 
L 155.82369 -47.023653 
L 154.399516 -46.877732 
L 152.975341 -46.881658 
L 151.551167 -47.033603 
L 150.126992 -47.201626 
L 148.702817 -47.399798 
L 147.278643 -47.216479 
L 145.854468 -47.027489 
L 144.430294 -47.066156 
L 143.006119 -47.161666 
L 141.581945 -47.252596 
L 140.15777 -47.199254 
L 138.733596 -47.173693 
L 137.309421 -47.273863 
L 135.885246 -47.388507 
L 134.461072 -47.817705 
L 133.036897 -48.129514 
L 131.612723 -47.924005 
L 130.188548 -47.723095 
L 128.764374 -47.703942 
L 127.340199 -47.969854 
L 125.916025 -48.038268 
L 124.49185 -48.008668 
L 123.067675 -47.991552 
L 121.643501 -48.275844 
L 120.219326 -48.605026 
L 118.795152 -48.643866 
L 117.370977 -48.595348 
L 115.946803 -48.633198 
L 114.522628 -48.710758 
L 113.098454 -48.637954 
L 111.674279 -48.712475 
L 110.250104 -48.847097 
L 108.82593 -48.888976 
L 107.401755 -49.208992 
L 105.977581 -49.933565 
L 104.553406 -50.123185 
L 103.129232 -49.737182 
L 101.705057 -49.87973 
L 100.280883 -50.585759 
L 98.856708 -51.360908 
L 97.432533 -52.582496 
L 96.008359 -53.562757 
L 94.584184 -54.71489 
L 93.16001 -55.913172 
L 91.735835 -57.052776 
L 90.311661 -58.243426 
L 88.887486 -59.768884 
L 87.463312 -61.358365 
L 86.039137 -65.058089 
L 84.614962 -72.595948 
L 83.190788 -83.914728 
L 81.766613 -103.472401 
L 80.342439 -131.812381 
L 78.918264 -130.968238 
L 77.49409 -81.193655 
L 76.069915 -51.565798 
L 74.645741 -46.854353 
z
" id="mf0d94520d0" style="stroke:#ffffff;stroke-opacity:0.25;"/>
    </defs>
    <g clip-path="url(#pc9f10212bb)">
     <use style="fill:#4c72b0;fill-opacity:0.25;stroke:#ffffff;stroke-opacity:0.25;" x="0" xlink:href="#mf0d94520d0" y="180"/>
    </g>
   </g>
   <g id="PolyCollection_2">
    <defs>
     <path d="M 61.534091 -46.499778 
L 61.534091 -46.46 
L 63.001306 -46.46 
L 64.468521 -46.46 
L 65.935737 -46.46 
L 67.402952 -46.46 
L 68.870167 -46.46 
L 70.337382 -46.46 
L 71.804597 -46.46 
L 73.271813 -46.46 
L 74.739028 -46.46 
L 76.206243 -46.46 
L 77.673458 -46.46 
L 79.140673 -46.46 
L 80.607889 -46.46 
L 82.075104 -46.46 
L 83.542319 -46.46 
L 85.009534 -46.46 
L 86.47675 -46.46 
L 87.943965 -46.46 
L 89.41118 -46.46 
L 90.878395 -46.46 
L 92.34561 -46.46 
L 93.812826 -46.46 
L 95.280041 -46.46 
L 96.747256 -46.46 
L 98.214471 -46.46 
L 99.681686 -46.46 
L 101.148902 -46.46 
L 102.616117 -46.46 
L 104.083332 -46.46 
L 105.550547 -46.46 
L 107.017762 -46.46 
L 108.484978 -46.46 
L 109.952193 -46.46 
L 111.419408 -46.46 
L 112.886623 -46.46 
L 114.353839 -46.46 
L 115.821054 -46.46 
L 117.288269 -46.46 
L 118.755484 -46.46 
L 120.222699 -46.46 
L 121.689915 -46.46 
L 123.15713 -46.46 
L 124.624345 -46.46 
L 126.09156 -46.46 
L 127.558775 -46.46 
L 129.025991 -46.46 
L 130.493206 -46.46 
L 131.960421 -46.46 
L 133.427636 -46.46 
L 134.894851 -46.46 
L 136.362067 -46.46 
L 137.829282 -46.46 
L 139.296497 -46.46 
L 140.763712 -46.46 
L 142.230928 -46.46 
L 143.698143 -46.46 
L 145.165358 -46.46 
L 146.632573 -46.46 
L 148.099788 -46.46 
L 149.567004 -46.46 
L 151.034219 -46.46 
L 152.501434 -46.46 
L 153.968649 -46.46 
L 155.435864 -46.46 
L 156.90308 -46.46 
L 158.370295 -46.46 
L 159.83751 -46.46 
L 161.304725 -46.46 
L 162.771941 -46.46 
L 164.239156 -46.46 
L 165.706371 -46.46 
L 167.173586 -46.46 
L 168.640801 -46.46 
L 170.108017 -46.46 
L 171.575232 -46.46 
L 173.042447 -46.46 
L 174.509662 -46.46 
L 175.976877 -46.46 
L 177.444093 -46.46 
L 178.911308 -46.46 
L 180.378523 -46.46 
L 181.845738 -46.46 
L 183.312953 -46.46 
L 184.780169 -46.46 
L 186.247384 -46.46 
L 187.714599 -46.46 
L 189.181814 -46.46 
L 190.64903 -46.46 
L 192.116245 -46.46 
L 193.58346 -46.46 
L 195.050675 -46.46 
L 196.51789 -46.46 
L 197.985106 -46.46 
L 199.452321 -46.46 
L 200.919536 -46.46 
L 202.386751 -46.46 
L 203.853966 -46.46 
L 205.321182 -46.46 
L 206.788397 -46.46 
L 208.255612 -46.46 
L 209.722827 -46.46 
L 211.190043 -46.46 
L 212.657258 -46.46 
L 214.124473 -46.46 
L 215.591688 -46.46 
L 217.058903 -46.46 
L 218.526119 -46.46 
L 219.993334 -46.46 
L 221.460549 -46.46 
L 222.927764 -46.46 
L 224.394979 -46.46 
L 225.862195 -46.46 
L 227.32941 -46.46 
L 228.796625 -46.46 
L 230.26384 -46.46 
L 231.731055 -46.46 
L 233.198271 -46.46 
L 234.665486 -46.46 
L 236.132701 -46.46 
L 237.599916 -46.46 
L 239.067132 -46.46 
L 240.534347 -46.46 
L 242.001562 -46.46 
L 243.468777 -46.46 
L 244.935992 -46.46 
L 246.403208 -46.46 
L 247.870423 -46.46 
L 247.870423 -46.478257 
L 247.870423 -46.478257 
L 246.403208 -46.470111 
L 244.935992 -46.469224 
L 243.468777 -46.473083 
L 242.001562 -46.481076 
L 240.534347 -46.493399 
L 239.067132 -46.510335 
L 237.599916 -46.531812 
L 236.132701 -46.557247 
L 234.665486 -46.585723 
L 233.198271 -46.61647 
L 231.731055 -46.64945 
L 230.26384 -46.685694 
L 228.796625 -46.727059 
L 227.32941 -46.775248 
L 225.862195 -46.830392 
L 224.394979 -46.889784 
L 222.927764 -46.947518 
L 221.460549 -46.995451 
L 219.993334 -47.025327 
L 218.526119 -47.031342 
L 217.058903 -47.012124 
L 215.591688 -46.971361 
L 214.124473 -46.916846 
L 212.657258 -46.858411 
L 211.190043 -46.805531 
L 209.722827 -46.76542 
L 208.255612 -46.742044 
L 206.788397 -46.736109 
L 205.321182 -46.74575 
L 203.853966 -46.767564 
L 202.386751 -46.797655 
L 200.919536 -46.832468 
L 199.452321 -46.869244 
L 197.985106 -46.906028 
L 196.51789 -46.94132 
L 195.050675 -46.973559 
L 193.58346 -47.000735 
L 192.116245 -47.020393 
L 190.64903 -47.030125 
L 189.181814 -47.028455 
L 187.714599 -47.01582 
L 186.247384 -46.995285 
L 184.780169 -46.972661 
L 183.312953 -46.955818 
L 181.845738 -46.95323 
L 180.378523 -46.972009 
L 178.911308 -47.015896 
L 177.444093 -47.083836 
L 175.976877 -47.169671 
L 174.509662 -47.263292 
L 173.042447 -47.353076 
L 171.575232 -47.428933 
L 170.108017 -47.484927 
L 168.640801 -47.520508 
L 167.173586 -47.539951 
L 165.706371 -47.550335 
L 164.239156 -47.559064 
L 162.771941 -47.571968 
L 161.304725 -47.59264 
L 159.83751 -47.622932 
L 158.370295 -47.664018 
L 156.90308 -47.717307 
L 155.435864 -47.784741 
L 153.968649 -47.868455 
L 152.501434 -47.970033 
L 151.034219 -48.089687 
L 149.567004 -48.225608 
L 148.099788 -48.373669 
L 146.632573 -48.527671 
L 145.165358 -48.680327 
L 143.698143 -48.82497 
L 142.230928 -48.957626 
L 140.763712 -49.078631 
L 139.296497 -49.192923 
L 137.829282 -49.308572 
L 136.362067 -49.433951 
L 134.894851 -49.574726 
L 133.427636 -49.731998 
L 131.960421 -49.90233 
L 130.493206 -50.079412 
L 129.025991 -50.256302 
L 127.558775 -50.427087 
L 126.09156 -50.58739 
L 124.624345 -50.734031 
L 123.15713 -50.864769 
L 121.689915 -50.978956 
L 120.222699 -51.079196 
L 118.755484 -51.173176 
L 117.288269 -51.274349 
L 115.821054 -51.400501 
L 114.353839 -51.570334 
L 112.886623 -51.799498 
L 111.419408 -52.098065 
L 109.952193 -52.470967 
L 108.484978 -52.921459 
L 107.017762 -53.456002 
L 105.550547 -54.088031 
L 104.083332 -54.838393 
L 102.616117 -55.731634 
L 101.148902 -56.789088 
L 99.681686 -58.020899 
L 98.214471 -59.419264 
L 96.747256 -60.954354 
L 95.280041 -62.573163 
L 93.812826 -64.200674 
L 92.34561 -65.7426 
L 90.878395 -67.089514 
L 89.41118 -68.123071 
L 87.943965 -68.725515 
L 86.47675 -68.793392 
L 85.009534 -68.254895 
L 83.542319 -67.087983 
L 82.075104 -65.334246 
L 80.607889 -63.102737 
L 79.140673 -60.559756 
L 77.673458 -57.904744 
L 76.206243 -55.337468 
L 74.739028 -53.02532 
L 73.271813 -51.079733 
L 71.804597 -49.547403 
L 70.337382 -48.416631 
L 68.870167 -47.634302 
L 67.402952 -47.126668 
L 65.935737 -46.817682 
L 64.468521 -46.641276 
L 63.001306 -46.546895 
L 61.534091 -46.499778 
z
" id="mc459255074" style="stroke:#ffffff;stroke-opacity:0.25;"/>
    </defs>
    <g clip-path="url(#pc9f10212bb)">
     <use style="fill:#dd8452;fill-opacity:0.25;stroke:#ffffff;stroke-opacity:0.25;" x="0" xlink:href="#mc459255074" y="180"/>
    </g>
   </g>
   <g id="line2d_9">
    <path clip-path="url(#pc9f10212bb)" d="M 74.645741 133.145647 
L 76.069915 128.434202 
L 77.49409 98.806345 
L 78.918264 49.031762 
L 80.342439 48.187619 
L 81.766613 76.527599 
L 83.190788 96.085272 
L 84.614962 107.404052 
L 86.039137 114.941911 
L 87.463312 118.641635 
L 90.311661 121.756574 
L 96.008359 126.437243 
L 97.432533 127.417504 
L 98.856708 128.639092 
L 101.705057 130.12027 
L 103.129232 130.262818 
L 104.553406 129.876815 
L 105.977581 130.066435 
L 107.401755 130.791008 
L 108.82593 131.111024 
L 111.674279 131.287525 
L 113.098454 131.362046 
L 114.522628 131.289242 
L 117.370977 131.404652 
L 120.219326 131.394974 
L 123.067675 132.008448 
L 127.340199 132.030146 
L 128.764374 132.296058 
L 130.188548 132.276905 
L 133.036897 131.870486 
L 134.461072 132.182295 
L 135.885246 132.611493 
L 138.733596 132.826307 
L 143.006119 132.838334 
L 145.854468 132.972511 
L 148.702817 132.600202 
L 152.975341 133.118342 
L 154.399516 133.122268 
L 158.672039 132.739838 
L 161.520388 133.156824 
L 164.368738 132.867891 
L 167.217087 133.199764 
L 170.065436 132.926285 
L 171.48961 132.824709 
L 172.913785 132.905685 
L 175.762134 133.315329 
L 184.307181 133.366292 
L 187.15553 133.162623 
L 190.00388 133.218369 
L 198.548927 133.262848 
L 202.821451 133.505657 
L 205.6698 133.470657 
L 208.518149 133.398476 
L 221.33572 133.410407 
L 227.032418 133.400611 
L 229.880767 133.500603 
L 249.819211 133.488585 
L 251.243385 133.406814 
L 255.515909 133.54 
L 255.515909 133.54 
" style="fill:none;stroke:#4c72b0;stroke-linecap:round;stroke-width:1.5;"/>
   </g>
   <g id="line2d_10">
    <path clip-path="url(#pc9f10212bb)" d="M 61.534091 133.500222 
L 64.468521 133.358724 
L 65.935737 133.182318 
L 67.402952 132.873332 
L 68.870167 132.365698 
L 70.337382 131.583369 
L 71.804597 130.452597 
L 73.271813 128.920267 
L 74.739028 126.97468 
L 76.206243 124.662532 
L 80.607889 116.897263 
L 82.075104 114.665754 
L 83.542319 112.912017 
L 85.009534 111.745105 
L 86.47675 111.206608 
L 87.943965 111.274485 
L 89.41118 111.876929 
L 90.878395 112.910486 
L 92.34561 114.2574 
L 95.280041 117.426837 
L 98.214471 120.580736 
L 99.681686 121.979101 
L 101.148902 123.210912 
L 102.616117 124.268366 
L 104.083332 125.161607 
L 107.017762 126.543998 
L 109.952193 127.529033 
L 112.886623 128.200502 
L 115.821054 128.599499 
L 131.960421 130.09767 
L 137.829282 130.691428 
L 146.632573 131.472329 
L 153.968649 132.131545 
L 159.83751 132.377068 
L 174.509662 132.736708 
L 180.378523 133.027991 
L 186.247384 133.004715 
L 193.58346 132.999265 
L 209.722827 133.23458 
L 221.460549 133.004549 
L 239.067132 133.489665 
L 247.870423 133.521743 
L 247.870423 133.521743 
" style="fill:none;stroke:#dd8452;stroke-linecap:round;stroke-width:1.5;"/>
   </g>
  </g>
  <g id="text_12">
   <!-- Listeners for BNM Albums -->
   <g style="fill:#262626;" transform="translate(55.861125 13.90725)scale(0.144 -0.144)">
    <defs>
     <path d="M 7.328125 0 
L 7.328125 71.578125 
L 16.796875 71.578125 
L 16.796875 8.453125 
L 52.046875 8.453125 
L 52.046875 0 
z
" id="ArialMT-76"/>
     <path id="ArialMT-32"/>
     <path d="M 3.328125 25.921875 
Q 3.328125 40.328125 11.328125 47.265625 
Q 18.015625 53.03125 27.640625 53.03125 
Q 38.328125 53.03125 45.109375 46.015625 
Q 51.90625 39.015625 51.90625 26.65625 
Q 51.90625 16.65625 48.90625 10.90625 
Q 45.90625 5.171875 40.15625 2 
Q 34.421875 -1.171875 27.640625 -1.171875 
Q 16.75 -1.171875 10.03125 5.8125 
Q 3.328125 12.796875 3.328125 25.921875 
z
M 12.359375 25.921875 
Q 12.359375 15.96875 16.703125 11.015625 
Q 21.046875 6.0625 27.640625 6.0625 
Q 34.1875 6.0625 38.53125 11.03125 
Q 42.875 16.015625 42.875 26.21875 
Q 42.875 35.84375 38.5 40.796875 
Q 34.125 45.75 27.640625 45.75 
Q 21.046875 45.75 16.703125 40.8125 
Q 12.359375 35.890625 12.359375 25.921875 
z
" id="ArialMT-111"/>
     <path d="M 7.328125 0 
L 7.328125 71.578125 
L 34.1875 71.578125 
Q 42.390625 71.578125 47.34375 69.40625 
Q 52.296875 67.234375 55.09375 62.71875 
Q 57.90625 58.203125 57.90625 53.265625 
Q 57.90625 48.6875 55.421875 44.625 
Q 52.9375 40.578125 47.90625 38.09375 
Q 54.390625 36.1875 57.875 31.59375 
Q 61.375 27 61.375 20.75 
Q 61.375 15.71875 59.25 11.390625 
Q 57.125 7.078125 54 4.734375 
Q 50.875 2.390625 46.15625 1.1875 
Q 41.453125 0 34.625 0 
z
M 16.796875 41.5 
L 32.28125 41.5 
Q 38.578125 41.5 41.3125 42.328125 
Q 44.921875 43.40625 46.75 45.890625 
Q 48.578125 48.390625 48.578125 52.15625 
Q 48.578125 55.71875 46.875 58.421875 
Q 45.171875 61.140625 41.984375 62.140625 
Q 38.8125 63.140625 31.109375 63.140625 
L 16.796875 63.140625 
z
M 16.796875 8.453125 
L 34.625 8.453125 
Q 39.203125 8.453125 41.0625 8.796875 
Q 44.34375 9.375 46.53125 10.734375 
Q 48.734375 12.109375 50.140625 14.71875 
Q 51.5625 17.328125 51.5625 20.75 
Q 51.5625 24.75 49.515625 27.703125 
Q 47.46875 30.671875 43.828125 31.859375 
Q 40.1875 33.0625 33.34375 33.0625 
L 16.796875 33.0625 
z
" id="ArialMT-66"/>
     <path d="M 7.625 0 
L 7.625 71.578125 
L 17.328125 71.578125 
L 54.9375 15.375 
L 54.9375 71.578125 
L 64.015625 71.578125 
L 64.015625 0 
L 54.296875 0 
L 16.703125 56.25 
L 16.703125 0 
z
" id="ArialMT-78"/>
     <path d="M 7.421875 0 
L 7.421875 71.578125 
L 21.6875 71.578125 
L 38.625 20.90625 
Q 40.96875 13.8125 42.046875 10.296875 
Q 43.265625 14.203125 45.84375 21.78125 
L 62.984375 71.578125 
L 75.734375 71.578125 
L 75.734375 0 
L 66.609375 0 
L 66.609375 59.90625 
L 45.796875 0 
L 37.25 0 
L 16.546875 60.9375 
L 16.546875 0 
z
" id="ArialMT-77"/>
     <path d="M -0.140625 0 
L 27.34375 71.578125 
L 37.546875 71.578125 
L 66.84375 0 
L 56.0625 0 
L 47.703125 21.6875 
L 17.78125 21.6875 
L 9.90625 0 
z
M 20.515625 29.390625 
L 44.78125 29.390625 
L 37.3125 49.21875 
Q 33.890625 58.25 32.234375 64.0625 
Q 30.859375 57.171875 28.375 50.390625 
z
" id="ArialMT-65"/>
     <path d="M 14.703125 0 
L 6.546875 0 
L 6.546875 71.578125 
L 15.328125 71.578125 
L 15.328125 46.046875 
Q 20.90625 53.03125 29.546875 53.03125 
Q 34.328125 53.03125 38.59375 51.09375 
Q 42.875 49.171875 45.625 45.671875 
Q 48.390625 42.1875 49.953125 37.25 
Q 51.515625 32.328125 51.515625 26.703125 
Q 51.515625 13.375 44.921875 6.09375 
Q 38.328125 -1.171875 29.109375 -1.171875 
Q 19.921875 -1.171875 14.703125 6.5 
z
M 14.59375 26.3125 
Q 14.59375 17 17.140625 12.84375 
Q 21.296875 6.0625 28.375 6.0625 
Q 34.125 6.0625 38.328125 11.0625 
Q 42.53125 16.0625 42.53125 25.984375 
Q 42.53125 36.140625 38.5 40.96875 
Q 34.46875 45.796875 28.765625 45.796875 
Q 23 45.796875 18.796875 40.796875 
Q 14.59375 35.796875 14.59375 26.3125 
z
" id="ArialMT-98"/>
     <path d="M 40.578125 0 
L 40.578125 7.625 
Q 34.515625 -1.171875 24.125 -1.171875 
Q 19.53125 -1.171875 15.546875 0.578125 
Q 11.578125 2.34375 9.640625 5 
Q 7.71875 7.671875 6.9375 11.53125 
Q 6.390625 14.109375 6.390625 19.734375 
L 6.390625 51.859375 
L 15.1875 51.859375 
L 15.1875 23.09375 
Q 15.1875 16.21875 15.71875 13.8125 
Q 16.546875 10.359375 19.234375 8.375 
Q 21.921875 6.390625 25.875 6.390625 
Q 29.828125 6.390625 33.296875 8.421875 
Q 36.765625 10.453125 38.203125 13.9375 
Q 39.65625 17.4375 39.65625 24.078125 
L 39.65625 51.859375 
L 48.4375 51.859375 
L 48.4375 0 
z
" id="ArialMT-117"/>
    </defs>
    <use xlink:href="#ArialMT-76"/>
    <use x="55.615234" xlink:href="#ArialMT-105"/>
    <use x="77.832031" xlink:href="#ArialMT-115"/>
    <use x="127.832031" xlink:href="#ArialMT-116"/>
    <use x="155.615234" xlink:href="#ArialMT-101"/>
    <use x="211.230469" xlink:href="#ArialMT-110"/>
    <use x="266.845703" xlink:href="#ArialMT-101"/>
    <use x="322.460938" xlink:href="#ArialMT-114"/>
    <use x="355.761719" xlink:href="#ArialMT-115"/>
    <use x="405.761719" xlink:href="#ArialMT-32"/>
    <use x="433.544922" xlink:href="#ArialMT-102"/>
    <use x="461.328125" xlink:href="#ArialMT-111"/>
    <use x="516.943359" xlink:href="#ArialMT-114"/>
    <use x="550.244141" xlink:href="#ArialMT-32"/>
    <use x="578.027344" xlink:href="#ArialMT-66"/>
    <use x="644.726562" xlink:href="#ArialMT-78"/>
    <use x="716.943359" xlink:href="#ArialMT-77"/>
    <use x="800.244141" xlink:href="#ArialMT-32"/>
    <use x="822.527344" xlink:href="#ArialMT-65"/>
    <use x="889.226562" xlink:href="#ArialMT-108"/>
    <use x="911.443359" xlink:href="#ArialMT-98"/>
    <use x="967.058594" xlink:href="#ArialMT-117"/>
    <use x="1022.673828" xlink:href="#ArialMT-109"/>
    <use x="1105.974609" xlink:href="#ArialMT-115"/>
   </g>
  </g>
  <g id="legend_1">
   <g id="text_13">
    <!-- best_new_music -->
    <g style="fill:#262626;" transform="translate(178.90125 77.542344)scale(0.12 -0.12)">
     <defs>
      <path d="M 16.15625 0 
L 0.296875 51.859375 
L 9.375 51.859375 
L 17.625 21.921875 
L 20.703125 10.796875 
Q 20.90625 11.625 23.390625 21.484375 
L 31.640625 51.859375 
L 40.671875 51.859375 
L 48.4375 21.78125 
L 51.03125 11.859375 
L 54 21.875 
L 62.890625 51.859375 
L 71.4375 51.859375 
L 55.21875 0 
L 46.09375 0 
L 37.84375 31.0625 
L 35.84375 39.890625 
L 25.34375 0 
z
" id="ArialMT-119"/>
      <path d="M 40.4375 19 
L 49.078125 17.875 
Q 47.65625 8.9375 41.8125 3.875 
Q 35.984375 -1.171875 27.484375 -1.171875 
Q 16.84375 -1.171875 10.375 5.78125 
Q 3.90625 12.75 3.90625 25.734375 
Q 3.90625 34.125 6.6875 40.421875 
Q 9.46875 46.734375 15.15625 49.875 
Q 20.84375 53.03125 27.546875 53.03125 
Q 35.984375 53.03125 41.359375 48.75 
Q 46.734375 44.484375 48.25 36.625 
L 39.703125 35.296875 
Q 38.484375 40.53125 35.375 43.15625 
Q 32.28125 45.796875 27.875 45.796875 
Q 21.234375 45.796875 17.078125 41.03125 
Q 12.9375 36.28125 12.9375 25.984375 
Q 12.9375 15.53125 16.9375 10.796875 
Q 20.953125 6.0625 27.390625 6.0625 
Q 32.5625 6.0625 36.03125 9.234375 
Q 39.5 12.40625 40.4375 19 
z
" id="ArialMT-99"/>
     </defs>
     <use xlink:href="#ArialMT-98"/>
     <use x="55.615234" xlink:href="#ArialMT-101"/>
     <use x="111.230469" xlink:href="#ArialMT-115"/>
     <use x="161.230469" xlink:href="#ArialMT-116"/>
     <use x="189.013672" xlink:href="#ArialMT-95"/>
     <use x="244.628906" xlink:href="#ArialMT-110"/>
     <use x="300.244141" xlink:href="#ArialMT-101"/>
     <use x="355.859375" xlink:href="#ArialMT-119"/>
     <use x="428.076172" xlink:href="#ArialMT-95"/>
     <use x="483.691406" xlink:href="#ArialMT-109"/>
     <use x="566.992188" xlink:href="#ArialMT-117"/>
     <use x="622.607422" xlink:href="#ArialMT-115"/>
     <use x="672.607422" xlink:href="#ArialMT-105"/>
     <use x="694.824219" xlink:href="#ArialMT-99"/>
    </g>
   </g>
   <g id="patch_5">
    <path d="M 205.129609 93.300938 
L 227.129609 93.300938 
L 227.129609 85.600938 
L 205.129609 85.600938 
z
" style="fill:none;opacity:0;"/>
   </g>
   <g id="text_14">
    <!-- 0 -->
    <g style="fill:#262626;" transform="translate(235.929609 93.300938)scale(0.11 -0.11)">
     <use xlink:href="#ArialMT-48"/>
    </g>
   </g>
   <g id="patch_6">
    <path d="M 205.129609 108.860781 
L 227.129609 108.860781 
L 227.129609 101.160781 
L 205.129609 101.160781 
z
" style="fill:none;opacity:0;"/>
   </g>
   <g id="text_15">
    <!-- 1 -->
    <g style="fill:#262626;" transform="translate(235.929609 108.860781)scale(0.11 -0.11)">
     <use xlink:href="#ArialMT-49"/>
    </g>
   </g>
  </g>
 </g>
 <defs>
  <clipPath id="pc9f10212bb">
   <rect height="89.62" width="213.38" x="51.835" y="43.92"/>
  </clipPath>
 </defs>
</svg>
