<?xml version="1.0" encoding="utf-8" standalone="no"?>
<!DOCTYPE svg PUBLIC "-//W3C//DTD SVG 1.1//EN"
  "http://www.w3.org/Graphics/SVG/1.1/DTD/svg11.dtd">
<!-- Created with matplotlib (https://matplotlib.org/) -->
<svg height="180pt" version="1.1" viewBox="0 0 278.175 180" width="278.175pt" xmlns="http://www.w3.org/2000/svg" xmlns:xlink="http://www.w3.org/1999/xlink">
 <metadata>
  <rdf:RDF xmlns:cc="http://creativecommons.org/ns#" xmlns:dc="http://purl.org/dc/elements/1.1/" xmlns:rdf="http://www.w3.org/1999/02/22-rdf-syntax-ns#">
   <cc:Work>
    <dc:type rdf:resource="http://purl.org/dc/dcmitype/StillImage"/>
    <dc:date>2020-08-18T13:52:26.757709</dc:date>
    <dc:format>image/svg+xml</dc:format>
    <dc:creator>
     <cc:Agent>
      <dc:title>Matplotlib v3.3.0, https://matplotlib.org/</dc:title>
     </cc:Agent>
    </dc:creator>
   </cc:Work>
  </rdf:RDF>
 </metadata>
 <defs>
  <style type="text/css">*{stroke-linecap:butt;stroke-linejoin:round;}</style>
 </defs>
 <g id="figure_1">
  <g id="patch_1">
   <path d="M 0 180 
L 278.175 180 
L 278.175 0 
L 0 0 
z
" style="fill:#ffffff;"/>
  </g>
  <g id="axes_1">
   <g id="patch_2">
    <path d="M 51.835 133.54 
L 265.215 133.54 
L 265.215 43.92 
L 51.835 43.92 
z
" style="fill:#eaeaf2;"/>
   </g>
   <g id="matplotlib.axis_1">
    <g id="xtick_1">
     <g id="line2d_1">
      <path clip-path="url(#p97c128cc47)" d="M 69.57548 133.54 
L 69.57548 43.92 
" style="fill:none;stroke:#ffffff;stroke-linecap:round;"/>
     </g>
     <g id="text_1">
      <!-- 0 -->
      <g style="fill:#262626;" transform="translate(66.516964 150.913594)scale(0.11 -0.11)">
       <defs>
        <path d="M 4.15625 35.296875 
Q 4.15625 48 6.765625 55.734375 
Q 9.375 63.484375 14.515625 67.671875 
Q 19.671875 71.875 27.484375 71.875 
Q 33.25 71.875 37.59375 69.546875 
Q 41.9375 67.234375 44.765625 62.859375 
Q 47.609375 58.5 49.21875 52.21875 
Q 50.828125 45.953125 50.828125 35.296875 
Q 50.828125 22.703125 48.234375 14.96875 
Q 45.65625 7.234375 40.5 3 
Q 35.359375 -1.21875 27.484375 -1.21875 
Q 17.140625 -1.21875 11.234375 6.203125 
Q 4.15625 15.140625 4.15625 35.296875 
z
M 13.1875 35.296875 
Q 13.1875 17.671875 17.3125 11.828125 
Q 21.4375 6 27.484375 6 
Q 33.546875 6 37.671875 11.859375 
Q 41.796875 17.71875 41.796875 35.296875 
Q 41.796875 52.984375 37.671875 58.78125 
Q 33.546875 64.59375 27.390625 64.59375 
Q 21.34375 64.59375 17.71875 59.46875 
Q 13.1875 52.9375 13.1875 35.296875 
z
" id="ArialMT-48"/>
       </defs>
       <use xlink:href="#ArialMT-48"/>
      </g>
     </g>
    </g>
    <g id="xtick_2">
     <g id="line2d_2">
      <path clip-path="url(#p97c128cc47)" d="M 105.186807 133.54 
L 105.186807 43.92 
" style="fill:none;stroke:#ffffff;stroke-linecap:round;"/>
     </g>
     <g id="text_2">
      <!-- 1 -->
      <g style="fill:#262626;" transform="translate(102.128291 150.913594)scale(0.11 -0.11)">
       <defs>
        <path d="M 37.25 0 
L 28.46875 0 
L 28.46875 56 
Q 25.296875 52.984375 20.140625 49.953125 
Q 14.984375 46.921875 10.890625 45.40625 
L 10.890625 53.90625 
Q 18.265625 57.375 23.78125 62.296875 
Q 29.296875 67.234375 31.59375 71.875 
L 37.25 71.875 
z
" id="ArialMT-49"/>
       </defs>
       <use xlink:href="#ArialMT-49"/>
      </g>
     </g>
    </g>
    <g id="xtick_3">
     <g id="line2d_3">
      <path clip-path="url(#p97c128cc47)" d="M 140.798135 133.54 
L 140.798135 43.92 
" style="fill:none;stroke:#ffffff;stroke-linecap:round;"/>
     </g>
     <g id="text_3">
      <!-- 2 -->
      <g style="fill:#262626;" transform="translate(137.739619 150.913594)scale(0.11 -0.11)">
       <defs>
        <path d="M 50.34375 8.453125 
L 50.34375 0 
L 3.03125 0 
Q 2.9375 3.171875 4.046875 6.109375 
Q 5.859375 10.9375 9.828125 15.625 
Q 13.8125 20.3125 21.34375 26.46875 
Q 33.015625 36.03125 37.109375 41.625 
Q 41.21875 47.21875 41.21875 52.203125 
Q 41.21875 57.421875 37.46875 61 
Q 33.734375 64.59375 27.734375 64.59375 
Q 21.390625 64.59375 17.578125 60.78125 
Q 13.765625 56.984375 13.71875 50.25 
L 4.6875 51.171875 
Q 5.609375 61.28125 11.65625 66.578125 
Q 17.71875 71.875 27.9375 71.875 
Q 38.234375 71.875 44.234375 66.15625 
Q 50.25 60.453125 50.25 52 
Q 50.25 47.703125 48.484375 43.546875 
Q 46.734375 39.40625 42.65625 34.8125 
Q 38.578125 30.21875 29.109375 22.21875 
Q 21.1875 15.578125 18.9375 13.203125 
Q 16.703125 10.84375 15.234375 8.453125 
z
" id="ArialMT-50"/>
       </defs>
       <use xlink:href="#ArialMT-50"/>
      </g>
     </g>
    </g>
    <g id="xtick_4">
     <g id="line2d_4">
      <path clip-path="url(#p97c128cc47)" d="M 176.409462 133.54 
L 176.409462 43.92 
" style="fill:none;stroke:#ffffff;stroke-linecap:round;"/>
     </g>
     <g id="text_4">
      <!-- 3 -->
      <g style="fill:#262626;" transform="translate(173.350946 150.913594)scale(0.11 -0.11)">
       <defs>
        <path d="M 4.203125 18.890625 
L 12.984375 20.0625 
Q 14.5 12.59375 18.140625 9.296875 
Q 21.78125 6 27 6 
Q 33.203125 6 37.46875 10.296875 
Q 41.75 14.59375 41.75 20.953125 
Q 41.75 27 37.796875 30.921875 
Q 33.84375 34.859375 27.734375 34.859375 
Q 25.25 34.859375 21.53125 33.890625 
L 22.515625 41.609375 
Q 23.390625 41.5 23.921875 41.5 
Q 29.546875 41.5 34.03125 44.421875 
Q 38.53125 47.359375 38.53125 53.46875 
Q 38.53125 58.296875 35.25 61.46875 
Q 31.984375 64.65625 26.8125 64.65625 
Q 21.6875 64.65625 18.265625 61.421875 
Q 14.84375 58.203125 13.875 51.765625 
L 5.078125 53.328125 
Q 6.6875 62.15625 12.390625 67.015625 
Q 18.109375 71.875 26.609375 71.875 
Q 32.46875 71.875 37.390625 69.359375 
Q 42.328125 66.84375 44.9375 62.5 
Q 47.5625 58.15625 47.5625 53.265625 
Q 47.5625 48.640625 45.0625 44.828125 
Q 42.578125 41.015625 37.703125 38.765625 
Q 44.046875 37.3125 47.5625 32.6875 
Q 51.078125 28.078125 51.078125 21.140625 
Q 51.078125 11.765625 44.234375 5.25 
Q 37.40625 -1.265625 26.953125 -1.265625 
Q 17.53125 -1.265625 11.296875 4.34375 
Q 5.078125 9.96875 4.203125 18.890625 
z
" id="ArialMT-51"/>
       </defs>
       <use xlink:href="#ArialMT-51"/>
      </g>
     </g>
    </g>
    <g id="xtick_5">
     <g id="line2d_5">
      <path clip-path="url(#p97c128cc47)" d="M 212.020789 133.54 
L 212.020789 43.92 
" style="fill:none;stroke:#ffffff;stroke-linecap:round;"/>
     </g>
     <g id="text_5">
      <!-- 4 -->
      <g style="fill:#262626;" transform="translate(208.962274 150.913594)scale(0.11 -0.11)">
       <defs>
        <path d="M 32.328125 0 
L 32.328125 17.140625 
L 1.265625 17.140625 
L 1.265625 25.203125 
L 33.9375 71.578125 
L 41.109375 71.578125 
L 41.109375 25.203125 
L 50.78125 25.203125 
L 50.78125 17.140625 
L 41.109375 17.140625 
L 41.109375 0 
z
M 32.328125 25.203125 
L 32.328125 57.46875 
L 9.90625 25.203125 
z
" id="ArialMT-52"/>
       </defs>
       <use xlink:href="#ArialMT-52"/>
      </g>
     </g>
    </g>
    <g id="xtick_6">
     <g id="line2d_6">
      <path clip-path="url(#p97c128cc47)" d="M 247.632117 133.54 
L 247.632117 43.92 
" style="fill:none;stroke:#ffffff;stroke-linecap:round;"/>
     </g>
     <g id="text_6">
      <!-- 5 -->
      <g style="fill:#262626;" transform="translate(244.573601 150.913594)scale(0.11 -0.11)">
       <defs>
        <path d="M 4.15625 18.75 
L 13.375 19.53125 
Q 14.40625 12.796875 18.140625 9.390625 
Q 21.875 6 27.15625 6 
Q 33.5 6 37.890625 10.78125 
Q 42.28125 15.578125 42.28125 23.484375 
Q 42.28125 31 38.0625 35.34375 
Q 33.84375 39.703125 27 39.703125 
Q 22.75 39.703125 19.328125 37.765625 
Q 15.921875 35.84375 13.96875 32.765625 
L 5.71875 33.84375 
L 12.640625 70.609375 
L 48.25 70.609375 
L 48.25 62.203125 
L 19.671875 62.203125 
L 15.828125 42.96875 
Q 22.265625 47.46875 29.34375 47.46875 
Q 38.71875 47.46875 45.15625 40.96875 
Q 51.609375 34.46875 51.609375 24.265625 
Q 51.609375 14.546875 45.953125 7.46875 
Q 39.0625 -1.21875 27.15625 -1.21875 
Q 17.390625 -1.21875 11.203125 4.25 
Q 5.03125 9.71875 4.15625 18.75 
z
" id="ArialMT-53"/>
       </defs>
       <use xlink:href="#ArialMT-53"/>
      </g>
     </g>
    </g>
    <g id="text_7">
     <!-- scrobbles_lastfm -->
     <g style="fill:#262626;" transform="translate(113.51 165.835469)scale(0.12 -0.12)">
      <defs>
       <path d="M 3.078125 15.484375 
L 11.765625 16.84375 
Q 12.5 11.625 15.84375 8.84375 
Q 19.1875 6.0625 25.203125 6.0625 
Q 31.25 6.0625 34.171875 8.515625 
Q 37.109375 10.984375 37.109375 14.3125 
Q 37.109375 17.28125 34.515625 19 
Q 32.71875 20.171875 25.53125 21.96875 
Q 15.875 24.421875 12.140625 26.203125 
Q 8.40625 27.984375 6.46875 31.125 
Q 4.546875 34.28125 4.546875 38.09375 
Q 4.546875 41.546875 6.125 44.5 
Q 7.71875 47.46875 10.453125 49.421875 
Q 12.5 50.921875 16.03125 51.96875 
Q 19.578125 53.03125 23.640625 53.03125 
Q 29.734375 53.03125 34.34375 51.265625 
Q 38.96875 49.515625 41.15625 46.5 
Q 43.359375 43.5 44.1875 38.484375 
L 35.59375 37.3125 
Q 35.015625 41.3125 32.203125 43.546875 
Q 29.390625 45.796875 24.265625 45.796875 
Q 18.21875 45.796875 15.625 43.796875 
Q 13.03125 41.796875 13.03125 39.109375 
Q 13.03125 37.40625 14.109375 36.03125 
Q 15.1875 34.625 17.484375 33.6875 
Q 18.796875 33.203125 25.25 31.453125 
Q 34.578125 28.953125 38.25 27.359375 
Q 41.9375 25.78125 44.03125 22.75 
Q 46.140625 19.734375 46.140625 15.234375 
Q 46.140625 10.84375 43.578125 6.953125 
Q 41.015625 3.078125 36.171875 0.953125 
Q 31.34375 -1.171875 25.25 -1.171875 
Q 15.140625 -1.171875 9.84375 3.03125 
Q 4.546875 7.234375 3.078125 15.484375 
z
" id="ArialMT-115"/>
       <path d="M 40.4375 19 
L 49.078125 17.875 
Q 47.65625 8.9375 41.8125 3.875 
Q 35.984375 -1.171875 27.484375 -1.171875 
Q 16.84375 -1.171875 10.375 5.78125 
Q 3.90625 12.75 3.90625 25.734375 
Q 3.90625 34.125 6.6875 40.421875 
Q 9.46875 46.734375 15.15625 49.875 
Q 20.84375 53.03125 27.546875 53.03125 
Q 35.984375 53.03125 41.359375 48.75 
Q 46.734375 44.484375 48.25 36.625 
L 39.703125 35.296875 
Q 38.484375 40.53125 35.375 43.15625 
Q 32.28125 45.796875 27.875 45.796875 
Q 21.234375 45.796875 17.078125 41.03125 
Q 12.9375 36.28125 12.9375 25.984375 
Q 12.9375 15.53125 16.9375 10.796875 
Q 20.953125 6.0625 27.390625 6.0625 
Q 32.5625 6.0625 36.03125 9.234375 
Q 39.5 12.40625 40.4375 19 
z
" id="ArialMT-99"/>
       <path d="M 6.5 0 
L 6.5 51.859375 
L 14.40625 51.859375 
L 14.40625 44 
Q 17.4375 49.515625 20 51.265625 
Q 22.5625 53.03125 25.640625 53.03125 
Q 30.078125 53.03125 34.671875 50.203125 
L 31.640625 42.046875 
Q 28.421875 43.953125 25.203125 43.953125 
Q 22.3125 43.953125 20.015625 42.21875 
Q 17.71875 40.484375 16.75 37.40625 
Q 15.28125 32.71875 15.28125 27.15625 
L 15.28125 0 
z
" id="ArialMT-114"/>
       <path d="M 3.328125 25.921875 
Q 3.328125 40.328125 11.328125 47.265625 
Q 18.015625 53.03125 27.640625 53.03125 
Q 38.328125 53.03125 45.109375 46.015625 
Q 51.90625 39.015625 51.90625 26.65625 
Q 51.90625 16.65625 48.90625 10.90625 
Q 45.90625 5.171875 40.15625 2 
Q 34.421875 -1.171875 27.640625 -1.171875 
Q 16.75 -1.171875 10.03125 5.8125 
Q 3.328125 12.796875 3.328125 25.921875 
z
M 12.359375 25.921875 
Q 12.359375 15.96875 16.703125 11.015625 
Q 21.046875 6.0625 27.640625 6.0625 
Q 34.1875 6.0625 38.53125 11.03125 
Q 42.875 16.015625 42.875 26.21875 
Q 42.875 35.84375 38.5 40.796875 
Q 34.125 45.75 27.640625 45.75 
Q 21.046875 45.75 16.703125 40.8125 
Q 12.359375 35.890625 12.359375 25.921875 
z
" id="ArialMT-111"/>
       <path d="M 14.703125 0 
L 6.546875 0 
L 6.546875 71.578125 
L 15.328125 71.578125 
L 15.328125 46.046875 
Q 20.90625 53.03125 29.546875 53.03125 
Q 34.328125 53.03125 38.59375 51.09375 
Q 42.875 49.171875 45.625 45.671875 
Q 48.390625 42.1875 49.953125 37.25 
Q 51.515625 32.328125 51.515625 26.703125 
Q 51.515625 13.375 44.921875 6.09375 
Q 38.328125 -1.171875 29.109375 -1.171875 
Q 19.921875 -1.171875 14.703125 6.5 
z
M 14.59375 26.3125 
Q 14.59375 17 17.140625 12.84375 
Q 21.296875 6.0625 28.375 6.0625 
Q 34.125 6.0625 38.328125 11.0625 
Q 42.53125 16.0625 42.53125 25.984375 
Q 42.53125 36.140625 38.5 40.96875 
Q 34.46875 45.796875 28.765625 45.796875 
Q 23 45.796875 18.796875 40.796875 
Q 14.59375 35.796875 14.59375 26.3125 
z
" id="ArialMT-98"/>
       <path d="M 6.390625 0 
L 6.390625 71.578125 
L 15.1875 71.578125 
L 15.1875 0 
z
" id="ArialMT-108"/>
       <path d="M 42.09375 16.703125 
L 51.171875 15.578125 
Q 49.03125 7.625 43.21875 3.21875 
Q 37.40625 -1.171875 28.375 -1.171875 
Q 17 -1.171875 10.328125 5.828125 
Q 3.65625 12.84375 3.65625 25.484375 
Q 3.65625 38.578125 10.390625 45.796875 
Q 17.140625 53.03125 27.875 53.03125 
Q 38.28125 53.03125 44.875 45.953125 
Q 51.46875 38.875 51.46875 26.03125 
Q 51.46875 25.25 51.421875 23.6875 
L 12.75 23.6875 
Q 13.234375 15.140625 17.578125 10.59375 
Q 21.921875 6.0625 28.421875 6.0625 
Q 33.25 6.0625 36.671875 8.59375 
Q 40.09375 11.140625 42.09375 16.703125 
z
M 13.234375 30.90625 
L 42.1875 30.90625 
Q 41.609375 37.453125 38.875 40.71875 
Q 34.671875 45.796875 27.984375 45.796875 
Q 21.921875 45.796875 17.796875 41.75 
Q 13.671875 37.703125 13.234375 30.90625 
z
" id="ArialMT-101"/>
       <path d="M -1.515625 -19.875 
L -1.515625 -13.53125 
L 56.734375 -13.53125 
L 56.734375 -19.875 
z
" id="ArialMT-95"/>
       <path d="M 40.4375 6.390625 
Q 35.546875 2.25 31.03125 0.53125 
Q 26.515625 -1.171875 21.34375 -1.171875 
Q 12.796875 -1.171875 8.203125 3 
Q 3.609375 7.171875 3.609375 13.671875 
Q 3.609375 17.484375 5.34375 20.625 
Q 7.078125 23.78125 9.890625 25.6875 
Q 12.703125 27.59375 16.21875 28.5625 
Q 18.796875 29.25 24.03125 29.890625 
Q 34.671875 31.15625 39.703125 32.90625 
Q 39.75 34.71875 39.75 35.203125 
Q 39.75 40.578125 37.25 42.78125 
Q 33.890625 45.75 27.25 45.75 
Q 21.046875 45.75 18.09375 43.578125 
Q 15.140625 41.40625 13.71875 35.890625 
L 5.125 37.0625 
Q 6.296875 42.578125 8.984375 45.96875 
Q 11.671875 49.359375 16.75 51.1875 
Q 21.828125 53.03125 28.515625 53.03125 
Q 35.15625 53.03125 39.296875 51.46875 
Q 43.453125 49.90625 45.40625 47.53125 
Q 47.359375 45.171875 48.140625 41.546875 
Q 48.578125 39.3125 48.578125 33.453125 
L 48.578125 21.734375 
Q 48.578125 9.46875 49.140625 6.21875 
Q 49.703125 2.984375 51.375 0 
L 42.1875 0 
Q 40.828125 2.734375 40.4375 6.390625 
z
M 39.703125 26.03125 
Q 34.90625 24.078125 25.34375 22.703125 
Q 19.921875 21.921875 17.671875 20.9375 
Q 15.4375 19.96875 14.203125 18.09375 
Q 12.984375 16.21875 12.984375 13.921875 
Q 12.984375 10.40625 15.640625 8.0625 
Q 18.3125 5.71875 23.4375 5.71875 
Q 28.515625 5.71875 32.46875 7.9375 
Q 36.421875 10.15625 38.28125 14.015625 
Q 39.703125 17 39.703125 22.796875 
z
" id="ArialMT-97"/>
       <path d="M 25.78125 7.859375 
L 27.046875 0.09375 
Q 23.34375 -0.6875 20.40625 -0.6875 
Q 15.625 -0.6875 12.984375 0.828125 
Q 10.359375 2.34375 9.28125 4.8125 
Q 8.203125 7.28125 8.203125 15.1875 
L 8.203125 45.015625 
L 1.765625 45.015625 
L 1.765625 51.859375 
L 8.203125 51.859375 
L 8.203125 64.703125 
L 16.9375 69.96875 
L 16.9375 51.859375 
L 25.78125 51.859375 
L 25.78125 45.015625 
L 16.9375 45.015625 
L 16.9375 14.703125 
Q 16.9375 10.9375 17.40625 9.859375 
Q 17.875 8.796875 18.921875 8.15625 
Q 19.96875 7.515625 21.921875 7.515625 
Q 23.390625 7.515625 25.78125 7.859375 
z
" id="ArialMT-116"/>
       <path d="M 8.6875 0 
L 8.6875 45.015625 
L 0.921875 45.015625 
L 0.921875 51.859375 
L 8.6875 51.859375 
L 8.6875 57.375 
Q 8.6875 62.59375 9.625 65.140625 
Q 10.890625 68.5625 14.078125 70.671875 
Q 17.28125 72.796875 23.046875 72.796875 
Q 26.765625 72.796875 31.25 71.921875 
L 29.9375 64.265625 
Q 27.203125 64.75 24.75 64.75 
Q 20.75 64.75 19.09375 63.03125 
Q 17.4375 61.328125 17.4375 56.640625 
L 17.4375 51.859375 
L 27.546875 51.859375 
L 27.546875 45.015625 
L 17.4375 45.015625 
L 17.4375 0 
z
" id="ArialMT-102"/>
       <path d="M 6.59375 0 
L 6.59375 51.859375 
L 14.453125 51.859375 
L 14.453125 44.578125 
Q 16.890625 48.390625 20.9375 50.703125 
Q 25 53.03125 30.171875 53.03125 
Q 35.9375 53.03125 39.625 50.640625 
Q 43.3125 48.25 44.828125 43.953125 
Q 50.984375 53.03125 60.84375 53.03125 
Q 68.5625 53.03125 72.703125 48.75 
Q 76.859375 44.484375 76.859375 35.59375 
L 76.859375 0 
L 68.109375 0 
L 68.109375 32.671875 
Q 68.109375 37.9375 67.25 40.25 
Q 66.40625 42.578125 64.15625 43.984375 
Q 61.921875 45.40625 58.890625 45.40625 
Q 53.421875 45.40625 49.796875 41.765625 
Q 46.1875 38.140625 46.1875 30.125 
L 46.1875 0 
L 37.40625 0 
L 37.40625 33.6875 
Q 37.40625 39.546875 35.25 42.46875 
Q 33.109375 45.40625 28.21875 45.40625 
Q 24.515625 45.40625 21.359375 43.453125 
Q 18.21875 41.5 16.796875 37.734375 
Q 15.375 33.984375 15.375 26.90625 
L 15.375 0 
z
" id="ArialMT-109"/>
      </defs>
      <use xlink:href="#ArialMT-115"/>
      <use x="50" xlink:href="#ArialMT-99"/>
      <use x="100" xlink:href="#ArialMT-114"/>
      <use x="133.300781" xlink:href="#ArialMT-111"/>
      <use x="188.916016" xlink:href="#ArialMT-98"/>
      <use x="244.53125" xlink:href="#ArialMT-98"/>
      <use x="300.146484" xlink:href="#ArialMT-108"/>
      <use x="322.363281" xlink:href="#ArialMT-101"/>
      <use x="377.978516" xlink:href="#ArialMT-115"/>
      <use x="427.978516" xlink:href="#ArialMT-95"/>
      <use x="483.59375" xlink:href="#ArialMT-108"/>
      <use x="505.810547" xlink:href="#ArialMT-97"/>
      <use x="561.425781" xlink:href="#ArialMT-115"/>
      <use x="611.425781" xlink:href="#ArialMT-116"/>
      <use x="639.208984" xlink:href="#ArialMT-102"/>
      <use x="666.992188" xlink:href="#ArialMT-109"/>
     </g>
    </g>
    <g id="text_8">
     <!-- 1e8 -->
     <g style="fill:#262626;" transform="translate(246.863906 163.973437)scale(0.11 -0.11)">
      <defs>
       <path d="M 17.671875 38.8125 
Q 12.203125 40.828125 9.5625 44.53125 
Q 6.9375 48.25 6.9375 53.421875 
Q 6.9375 61.234375 12.546875 66.546875 
Q 18.171875 71.875 27.484375 71.875 
Q 36.859375 71.875 42.578125 66.421875 
Q 48.296875 60.984375 48.296875 53.171875 
Q 48.296875 48.1875 45.671875 44.5 
Q 43.0625 40.828125 37.75 38.8125 
Q 44.34375 36.671875 47.78125 31.875 
Q 51.21875 27.09375 51.21875 20.453125 
Q 51.21875 11.28125 44.71875 5.03125 
Q 38.234375 -1.21875 27.640625 -1.21875 
Q 17.046875 -1.21875 10.546875 5.046875 
Q 4.046875 11.328125 4.046875 20.703125 
Q 4.046875 27.6875 7.59375 32.390625 
Q 11.140625 37.109375 17.671875 38.8125 
z
M 15.921875 53.71875 
Q 15.921875 48.640625 19.1875 45.40625 
Q 22.46875 42.1875 27.6875 42.1875 
Q 32.765625 42.1875 36.015625 45.375 
Q 39.265625 48.578125 39.265625 53.21875 
Q 39.265625 58.0625 35.90625 61.359375 
Q 32.5625 64.65625 27.59375 64.65625 
Q 22.5625 64.65625 19.234375 61.421875 
Q 15.921875 58.203125 15.921875 53.71875 
z
M 13.09375 20.65625 
Q 13.09375 16.890625 14.875 13.375 
Q 16.65625 9.859375 20.171875 7.921875 
Q 23.6875 6 27.734375 6 
Q 34.03125 6 38.125 10.046875 
Q 42.234375 14.109375 42.234375 20.359375 
Q 42.234375 26.703125 38.015625 30.859375 
Q 33.796875 35.015625 27.4375 35.015625 
Q 21.234375 35.015625 17.15625 30.90625 
Q 13.09375 26.8125 13.09375 20.65625 
z
" id="ArialMT-56"/>
      </defs>
      <use xlink:href="#ArialMT-49"/>
      <use x="55.615234" xlink:href="#ArialMT-101"/>
      <use x="111.230469" xlink:href="#ArialMT-56"/>
     </g>
    </g>
   </g>
   <g id="matplotlib.axis_2">
    <g id="ytick_1">
     <g id="line2d_7">
      <path clip-path="url(#p97c128cc47)" d="M 51.835 133.54 
L 265.215 133.54 
" style="fill:none;stroke:#ffffff;stroke-linecap:round;"/>
     </g>
     <g id="text_9">
      <!-- 0.00 -->
      <g style="fill:#262626;" transform="translate(20.927969 137.476797)scale(0.11 -0.11)">
       <defs>
        <path d="M 9.078125 0 
L 9.078125 10.015625 
L 19.09375 10.015625 
L 19.09375 0 
z
" id="ArialMT-46"/>
       </defs>
       <use xlink:href="#ArialMT-48"/>
       <use x="55.615234" xlink:href="#ArialMT-46"/>
       <use x="83.398438" xlink:href="#ArialMT-48"/>
       <use x="139.013672" xlink:href="#ArialMT-48"/>
      </g>
     </g>
    </g>
    <g id="ytick_2">
     <g id="line2d_8">
      <path clip-path="url(#p97c128cc47)" d="M 51.835 111.135 
L 265.215 111.135 
" style="fill:none;stroke:#ffffff;stroke-linecap:round;"/>
     </g>
     <g id="text_10">
      <!-- 0.25 -->
      <g style="fill:#262626;" transform="translate(20.927969 115.071797)scale(0.11 -0.11)">
       <use xlink:href="#ArialMT-48"/>
       <use x="55.615234" xlink:href="#ArialMT-46"/>
       <use x="83.398438" xlink:href="#ArialMT-50"/>
       <use x="139.013672" xlink:href="#ArialMT-53"/>
      </g>
     </g>
    </g>
    <g id="ytick_3">
     <g id="line2d_9">
      <path clip-path="url(#p97c128cc47)" d="M 51.835 88.73 
L 265.215 88.73 
" style="fill:none;stroke:#ffffff;stroke-linecap:round;"/>
     </g>
     <g id="text_11">
      <!-- 0.50 -->
      <g style="fill:#262626;" transform="translate(20.927969 92.666797)scale(0.11 -0.11)">
       <use xlink:href="#ArialMT-48"/>
       <use x="55.615234" xlink:href="#ArialMT-46"/>
       <use x="83.398438" xlink:href="#ArialMT-53"/>
       <use x="139.013672" xlink:href="#ArialMT-48"/>
      </g>
     </g>
    </g>
    <g id="ytick_4">
     <g id="line2d_10">
      <path clip-path="url(#p97c128cc47)" d="M 51.835 66.325 
L 265.215 66.325 
" style="fill:none;stroke:#ffffff;stroke-linecap:round;"/>
     </g>
     <g id="text_12">
      <!-- 0.75 -->
      <g style="fill:#262626;" transform="translate(20.927969 70.261797)scale(0.11 -0.11)">
       <defs>
        <path d="M 4.734375 62.203125 
L 4.734375 70.65625 
L 51.078125 70.65625 
L 51.078125 63.8125 
Q 44.234375 56.546875 37.515625 44.484375 
Q 30.8125 32.421875 27.15625 19.671875 
Q 24.515625 10.6875 23.78125 0 
L 14.75 0 
Q 14.890625 8.453125 18.0625 20.40625 
Q 21.234375 32.375 27.171875 43.484375 
Q 33.109375 54.59375 39.796875 62.203125 
z
" id="ArialMT-55"/>
       </defs>
       <use xlink:href="#ArialMT-48"/>
       <use x="55.615234" xlink:href="#ArialMT-46"/>
       <use x="83.398438" xlink:href="#ArialMT-55"/>
       <use x="139.013672" xlink:href="#ArialMT-53"/>
      </g>
     </g>
    </g>
    <g id="ytick_5">
     <g id="line2d_11">
      <path clip-path="url(#p97c128cc47)" d="M 51.835 43.92 
L 265.215 43.92 
" style="fill:none;stroke:#ffffff;stroke-linecap:round;"/>
     </g>
     <g id="text_13">
      <!-- 1.00 -->
      <g style="fill:#262626;" transform="translate(20.927969 47.856797)scale(0.11 -0.11)">
       <use xlink:href="#ArialMT-49"/>
       <use x="55.615234" xlink:href="#ArialMT-46"/>
       <use x="83.398438" xlink:href="#ArialMT-48"/>
       <use x="139.013672" xlink:href="#ArialMT-48"/>
      </g>
     </g>
    </g>
    <g id="text_14">
     <!-- scrobbles_lastfm -->
     <g style="fill:#262626;" transform="translate(14.542969 133.745)rotate(-90)scale(0.12 -0.12)">
      <use xlink:href="#ArialMT-115"/>
      <use x="50" xlink:href="#ArialMT-99"/>
      <use x="100" xlink:href="#ArialMT-114"/>
      <use x="133.300781" xlink:href="#ArialMT-111"/>
      <use x="188.916016" xlink:href="#ArialMT-98"/>
      <use x="244.53125" xlink:href="#ArialMT-98"/>
      <use x="300.146484" xlink:href="#ArialMT-108"/>
      <use x="322.363281" xlink:href="#ArialMT-101"/>
      <use x="377.978516" xlink:href="#ArialMT-115"/>
      <use x="427.978516" xlink:href="#ArialMT-95"/>
      <use x="483.59375" xlink:href="#ArialMT-108"/>
      <use x="505.810547" xlink:href="#ArialMT-97"/>
      <use x="561.425781" xlink:href="#ArialMT-115"/>
      <use x="611.425781" xlink:href="#ArialMT-116"/>
      <use x="639.208984" xlink:href="#ArialMT-102"/>
      <use x="666.992188" xlink:href="#ArialMT-109"/>
     </g>
    </g>
   </g>
   <g id="patch_3">
    <path d="M 51.835 133.54 
L 51.835 43.92 
" style="fill:none;stroke:#ffffff;stroke-linecap:square;stroke-linejoin:miter;stroke-width:1.25;"/>
   </g>
   <g id="patch_4">
    <path d="M 51.835 133.54 
L 265.215 133.54 
" style="fill:none;stroke:#ffffff;stroke-linecap:square;stroke-linejoin:miter;stroke-width:1.25;"/>
   </g>
  </g>
  <g id="axes_2">
   <g id="PolyCollection_1">
    <defs>
     <path d="M 68.635734 -50.760918 
L 68.635734 -46.46 
L 70.100576 -46.46 
L 71.565419 -46.46 
L 73.030261 -46.46 
L 74.495104 -46.46 
L 75.959947 -46.46 
L 77.424789 -46.46 
L 78.889632 -46.46 
L 80.354475 -46.46 
L 81.819317 -46.46 
L 83.28416 -46.46 
L 84.749003 -46.46 
L 86.213845 -46.46 
L 87.678688 -46.46 
L 89.143531 -46.46 
L 90.608373 -46.46 
L 92.073216 -46.46 
L 93.538058 -46.46 
L 95.002901 -46.46 
L 96.467744 -46.46 
L 97.932586 -46.46 
L 99.397429 -46.46 
L 100.862272 -46.46 
L 102.327114 -46.46 
L 103.791957 -46.46 
L 105.2568 -46.46 
L 106.721642 -46.46 
L 108.186485 -46.46 
L 109.651328 -46.46 
L 111.11617 -46.46 
L 112.581013 -46.46 
L 114.045856 -46.46 
L 115.510698 -46.46 
L 116.975541 -46.46 
L 118.440383 -46.46 
L 119.905226 -46.46 
L 121.370069 -46.46 
L 122.834911 -46.46 
L 124.299754 -46.46 
L 125.764597 -46.46 
L 127.229439 -46.46 
L 128.694282 -46.46 
L 130.159125 -46.46 
L 131.623967 -46.46 
L 133.08881 -46.46 
L 134.553653 -46.46 
L 136.018495 -46.46 
L 137.483338 -46.46 
L 138.94818 -46.46 
L 140.413023 -46.46 
L 141.877866 -46.46 
L 143.342708 -46.46 
L 144.807551 -46.46 
L 146.272394 -46.46 
L 147.737236 -46.46 
L 149.202079 -46.46 
L 150.666922 -46.46 
L 152.131764 -46.46 
L 153.596607 -46.46 
L 155.06145 -46.46 
L 156.526292 -46.46 
L 157.991135 -46.46 
L 159.455977 -46.46 
L 160.92082 -46.46 
L 162.385663 -46.46 
L 163.850505 -46.46 
L 165.315348 -46.46 
L 166.780191 -46.46 
L 168.245033 -46.46 
L 169.709876 -46.46 
L 171.174719 -46.46 
L 172.639561 -46.46 
L 174.104404 -46.46 
L 175.569247 -46.46 
L 177.034089 -46.46 
L 178.498932 -46.46 
L 179.963775 -46.46 
L 181.428617 -46.46 
L 182.89346 -46.46 
L 184.358302 -46.46 
L 185.823145 -46.46 
L 187.287988 -46.46 
L 188.75283 -46.46 
L 190.217673 -46.46 
L 191.682516 -46.46 
L 193.147358 -46.46 
L 194.612201 -46.46 
L 196.077044 -46.46 
L 197.541886 -46.46 
L 199.006729 -46.46 
L 200.471572 -46.46 
L 201.936414 -46.46 
L 203.401257 -46.46 
L 204.866099 -46.46 
L 206.330942 -46.46 
L 207.795785 -46.46 
L 209.260627 -46.46 
L 210.72547 -46.46 
L 212.190313 -46.46 
L 213.655155 -46.46 
L 215.119998 -46.46 
L 216.584841 -46.46 
L 218.049683 -46.46 
L 219.514526 -46.46 
L 220.979369 -46.46 
L 222.444211 -46.46 
L 223.909054 -46.46 
L 225.373896 -46.46 
L 226.838739 -46.46 
L 228.303582 -46.46 
L 229.768424 -46.46 
L 231.233267 -46.46 
L 232.69811 -46.46 
L 234.162952 -46.46 
L 235.627795 -46.46 
L 237.092638 -46.46 
L 238.55748 -46.46 
L 240.022323 -46.46 
L 241.487166 -46.46 
L 242.952008 -46.46 
L 244.416851 -46.46 
L 245.881694 -46.46 
L 247.346536 -46.46 
L 248.811379 -46.46 
L 250.276221 -46.46 
L 251.741064 -46.46 
L 253.205907 -46.46 
L 254.670749 -46.46 
L 254.670749 -46.46 
L 254.670749 -46.46 
L 253.205907 -49.479735 
L 251.741064 -46.46 
L 250.276221 -47.745179 
L 248.811379 -46.46 
L 247.346536 -47.458501 
L 245.881694 -46.46 
L 244.416851 -47.057248 
L 242.952008 -46.46 
L 241.487166 -46.898875 
L 240.022323 -46.46 
L 238.55748 -46.799486 
L 237.092638 -46.46 
L 235.627795 -46.732098 
L 234.162952 -46.46 
L 232.69811 -46.684189 
L 231.233267 -46.46 
L 229.768424 -46.648946 
L 228.303582 -46.46 
L 226.838739 -46.622352 
L 225.373896 -46.46 
L 223.909054 -46.601906 
L 222.444211 -46.46 
L 220.979369 -46.586 
L 219.514526 -46.46 
L 218.049683 -46.573588 
L 216.584841 -46.46 
L 215.119998 -46.564013 
L 213.655155 -46.46 
L 212.190313 -46.556945 
L 210.72547 -46.46 
L 209.260627 -46.552418 
L 207.795785 -46.46 
L 206.330942 -46.551084 
L 204.866099 -46.46 
L 203.401257 -46.555093 
L 201.936414 -46.46 
L 200.471572 -46.570623 
L 199.006729 -46.46 
L 197.541886 -47.003343 
L 196.077044 -46.46 
L 194.612201 -46.562107 
L 193.147358 -46.536974 
L 191.682516 -46.766161 
L 190.217673 -46.46 
L 188.75283 -46.698996 
L 187.287988 -46.626142 
L 185.823145 -46.487506 
L 184.358302 -46.46 
L 182.89346 -46.502208 
L 181.428617 -46.47252 
L 179.963775 -46.5319 
L 178.498932 -46.46 
L 177.034089 -46.549258 
L 175.569247 -46.46 
L 174.104404 -46.883836 
L 172.639561 -46.46 
L 171.174719 -46.657305 
L 169.709876 -46.745139 
L 168.245033 -46.46 
L 166.780191 -46.46 
L 165.315348 -46.496242 
L 163.850505 -46.46 
L 162.385663 -46.503248 
L 160.92082 -46.46 
L 159.455977 -46.503881 
L 157.991135 -46.46 
L 156.526292 -46.497042 
L 155.06145 -46.469737 
L 153.596607 -46.529218 
L 152.131764 -46.46 
L 150.666922 -46.550667 
L 149.202079 -46.590856 
L 147.737236 -46.664205 
L 146.272394 -46.530215 
L 144.807551 -46.701818 
L 143.342708 -46.762239 
L 141.877866 -46.476987 
L 140.413023 -47.151649 
L 138.94818 -47.593354 
L 137.483338 -47.291361 
L 136.018495 -47.04175 
L 134.553653 -46.538083 
L 133.08881 -47.017388 
L 131.623967 -46.46 
L 130.159125 -47.979165 
L 128.694282 -47.131181 
L 127.229439 -46.621814 
L 125.764597 -46.856459 
L 124.299754 -47.811658 
L 122.834911 -46.46 
L 121.370069 -47.182411 
L 119.905226 -47.626573 
L 118.440383 -46.46 
L 116.975541 -46.730838 
L 115.510698 -47.319953 
L 114.045856 -47.569632 
L 112.581013 -46.681956 
L 111.11617 -47.161772 
L 109.651328 -46.786477 
L 108.186485 -47.114918 
L 106.721642 -48.195165 
L 105.2568 -47.599897 
L 103.791957 -47.816877 
L 102.327114 -47.416551 
L 100.862272 -49.072765 
L 99.397429 -46.673721 
L 97.932586 -49.784876 
L 96.467744 -46.69548 
L 95.002901 -48.951283 
L 93.538058 -49.099835 
L 92.073216 -49.437919 
L 90.608373 -48.491508 
L 89.143531 -49.762236 
L 87.678688 -50.23719 
L 86.213845 -52.484345 
L 84.749003 -48.653272 
L 83.28416 -54.345167 
L 81.819317 -51.366798 
L 80.354475 -57.091408 
L 78.889632 -55.568468 
L 77.424789 -66.73774 
L 75.959947 -59.281343 
L 74.495104 -76.775558 
L 73.030261 -83.85805 
L 71.565419 -88.951238 
L 70.100576 -46.46 
L 68.635734 -50.760918 
z
" id="me798f9f682" style="stroke:#ffffff;stroke-opacity:0.25;"/>
    </defs>
    <g clip-path="url(#p97c128cc47)">
     <use style="fill:#4c72b0;fill-opacity:0.25;stroke:#ffffff;stroke-opacity:0.25;" x="0" xlink:href="#me798f9f682" y="180"/>
    </g>
   </g>
   <g id="PolyCollection_2">
    <defs>
     <path d="M 61.534091 -46.75261 
L 61.534091 -46.46 
L 63.061507 -46.46 
L 64.588923 -46.46 
L 66.116339 -46.46 
L 67.643754 -46.46 
L 69.17117 -46.46 
L 70.698586 -46.46 
L 72.226002 -46.46 
L 73.753418 -46.46 
L 75.280834 -46.46 
L 76.80825 -46.46 
L 78.335666 -46.46 
L 79.863082 -46.46 
L 81.390497 -46.46 
L 82.917913 -46.46 
L 84.445329 -46.46 
L 85.972745 -46.46 
L 87.500161 -46.46 
L 89.027577 -46.46 
L 90.554993 -46.46 
L 92.082409 -46.46 
L 93.609825 -46.46 
L 95.137241 -46.46 
L 96.664656 -46.46 
L 98.192072 -46.46 
L 99.719488 -46.46 
L 101.246904 -46.46 
L 102.77432 -46.46 
L 104.301736 -46.46 
L 105.829152 -46.46 
L 107.356568 -46.46 
L 108.883984 -46.46 
L 110.411399 -46.46 
L 111.938815 -46.46 
L 113.466231 -46.46 
L 114.993647 -46.46 
L 116.521063 -46.46 
L 118.048479 -46.46 
L 119.575895 -46.46 
L 121.103311 -46.46 
L 122.630727 -46.46 
L 124.158142 -46.46 
L 125.685558 -46.46 
L 127.212974 -46.46 
L 128.74039 -46.46 
L 130.267806 -46.46 
L 131.795222 -46.46 
L 133.322638 -46.46 
L 134.850054 -46.46 
L 136.37747 -46.46 
L 137.904885 -46.46 
L 139.432301 -46.46 
L 140.959717 -46.46 
L 142.487133 -46.46 
L 144.014549 -46.46 
L 145.541965 -46.46 
L 147.069381 -46.46 
L 148.596797 -46.46 
L 150.124213 -46.46 
L 151.651628 -46.46 
L 153.179044 -46.46 
L 154.70646 -46.46 
L 156.233876 -46.46 
L 157.761292 -46.46 
L 159.288708 -46.46 
L 160.816124 -46.46 
L 162.34354 -46.46 
L 163.870956 -46.46 
L 165.398372 -46.46 
L 166.925787 -46.46 
L 168.453203 -46.46 
L 169.980619 -46.46 
L 171.508035 -46.46 
L 173.035451 -46.46 
L 174.562867 -46.46 
L 176.090283 -46.46 
L 177.617699 -46.46 
L 179.145115 -46.46 
L 180.67253 -46.46 
L 182.199946 -46.46 
L 183.727362 -46.46 
L 185.254778 -46.46 
L 186.782194 -46.46 
L 188.30961 -46.46 
L 189.837026 -46.46 
L 191.364442 -46.46 
L 192.891858 -46.46 
L 194.419273 -46.46 
L 195.946689 -46.46 
L 197.474105 -46.46 
L 199.001521 -46.46 
L 200.528937 -46.46 
L 202.056353 -46.46 
L 203.583769 -46.46 
L 205.111185 -46.46 
L 206.638601 -46.46 
L 208.166016 -46.46 
L 209.693432 -46.46 
L 211.220848 -46.46 
L 212.748264 -46.46 
L 214.27568 -46.46 
L 215.803096 -46.46 
L 217.330512 -46.46 
L 218.857928 -46.46 
L 220.385344 -46.46 
L 221.912759 -46.46 
L 223.440175 -46.46 
L 224.967591 -46.46 
L 226.495007 -46.46 
L 228.022423 -46.46 
L 229.549839 -46.46 
L 231.077255 -46.46 
L 232.604671 -46.46 
L 234.132087 -46.46 
L 235.659503 -46.46 
L 237.186918 -46.46 
L 238.714334 -46.46 
L 240.24175 -46.46 
L 241.769166 -46.46 
L 243.296582 -46.46 
L 244.823998 -46.46 
L 246.351414 -46.46 
L 247.87883 -46.46 
L 249.406246 -46.46 
L 250.933661 -46.46 
L 252.461077 -46.46 
L 253.988493 -46.46 
L 255.515909 -46.46 
L 255.515909 -46.507592 
L 255.515909 -46.507592 
L 253.988493 -46.4897 
L 252.461077 -46.544582 
L 250.933661 -46.663788 
L 249.406246 -46.816959 
L 247.87883 -46.913508 
L 246.351414 -46.879072 
L 244.823998 -46.742741 
L 243.296582 -46.59984 
L 241.769166 -46.510872 
L 240.24175 -46.473642 
L 238.714334 -46.462698 
L 237.186918 -46.460394 
L 235.659503 -46.460042 
L 234.132087 -46.460004 
L 232.604671 -46.46 
L 231.077255 -46.46 
L 229.549839 -46.46 
L 228.022423 -46.46 
L 226.495007 -46.46 
L 224.967591 -46.46 
L 223.440175 -46.46 
L 221.912759 -46.46 
L 220.385344 -46.46 
L 218.857928 -46.46 
L 217.330512 -46.46 
L 215.803096 -46.46 
L 214.27568 -46.46 
L 212.748264 -46.46 
L 211.220848 -46.46 
L 209.693432 -46.46 
L 208.166016 -46.46 
L 206.638601 -46.46 
L 205.111185 -46.46 
L 203.583769 -46.46 
L 202.056353 -46.46 
L 200.528937 -46.46 
L 199.001521 -46.46 
L 197.474105 -46.46 
L 195.946689 -46.46 
L 194.419273 -46.46 
L 192.891858 -46.46 
L 191.364442 -46.46 
L 189.837026 -46.46 
L 188.30961 -46.46 
L 186.782194 -46.46 
L 185.254778 -46.46 
L 183.727362 -46.46 
L 182.199946 -46.46 
L 180.67253 -46.46 
L 179.145115 -46.46 
L 177.617699 -46.46 
L 176.090283 -46.46 
L 174.562867 -46.46 
L 173.035451 -46.46 
L 171.508035 -46.46 
L 169.980619 -46.46 
L 168.453203 -46.460002 
L 166.925787 -46.460029 
L 165.398372 -46.46035 
L 163.870956 -46.46305 
L 162.34354 -46.479238 
L 160.816124 -46.547603 
L 159.288708 -46.747502 
L 157.761292 -47.139297 
L 156.233876 -47.617255 
L 154.70646 -47.895031 
L 153.179044 -47.799479 
L 151.651628 -47.496302 
L 150.124213 -47.259221 
L 148.596797 -47.162845 
L 147.069381 -47.133161 
L 145.541965 -47.111777 
L 144.014549 -47.071546 
L 142.487133 -47.029304 
L 140.959717 -47.083492 
L 139.432301 -47.324426 
L 137.904885 -47.70146 
L 136.37747 -48.019762 
L 134.850054 -48.070753 
L 133.322638 -47.813139 
L 131.795222 -47.429371 
L 130.267806 -47.160573 
L 128.74039 -47.140557 
L 127.212974 -47.38326 
L 125.685558 -47.811909 
L 124.158142 -48.306939 
L 122.630727 -48.761645 
L 121.103311 -49.050125 
L 119.575895 -49.072157 
L 118.048479 -48.958418 
L 116.521063 -48.999098 
L 114.993647 -49.231882 
L 113.466231 -49.362729 
L 111.938815 -49.193164 
L 110.411399 -48.907964 
L 108.883984 -48.855631 
L 107.356568 -49.172286 
L 105.829152 -49.712875 
L 104.301736 -50.285887 
L 102.77432 -50.839431 
L 101.246904 -51.435045 
L 99.719488 -52.140316 
L 98.192072 -52.965355 
L 96.664656 -53.856717 
L 95.137241 -54.736992 
L 93.609825 -55.587534 
L 92.082409 -56.480864 
L 90.554993 -57.49517 
L 89.027577 -58.645742 
L 87.500161 -59.849963 
L 85.972745 -60.85113 
L 84.445329 -61.394303 
L 82.917913 -61.818643 
L 81.390497 -63.411964 
L 79.863082 -67.868748 
L 78.335666 -76.37225 
L 76.80825 -89.234125 
L 75.280834 -105.61968 
L 73.753418 -122.164215 
L 72.226002 -131.812381 
L 70.698586 -127.137004 
L 69.17117 -107.832456 
L 67.643754 -82.968868 
L 66.116339 -63.128124 
L 64.588923 -52.229381 
L 63.061507 -47.961286 
L 61.534091 -46.75261 
z
" id="m90c23db6c4" style="stroke:#ffffff;stroke-opacity:0.25;"/>
    </defs>
    <g clip-path="url(#p97c128cc47)">
     <use style="fill:#dd8452;fill-opacity:0.25;stroke:#ffffff;stroke-opacity:0.25;" x="0" xlink:href="#m90c23db6c4" y="180"/>
    </g>
   </g>
   <g id="line2d_12">
    <path clip-path="url(#p97c128cc47)" d="M 68.635734 129.239082 
L 70.100576 133.54 
L 71.565419 91.048762 
L 73.030261 96.14195 
L 74.495104 103.224442 
L 75.959947 120.718657 
L 77.424789 113.26226 
L 78.889632 124.431532 
L 80.354475 122.908592 
L 81.819317 128.633202 
L 83.28416 125.654833 
L 84.749003 131.346728 
L 86.213845 127.515655 
L 87.678688 129.76281 
L 89.143531 130.237764 
L 90.608373 131.508492 
L 92.073216 130.562081 
L 93.538058 130.900165 
L 95.002901 131.048717 
L 96.467744 133.30452 
L 97.932586 130.215124 
L 99.397429 133.326279 
L 100.862272 130.927235 
L 102.327114 132.583449 
L 103.791957 132.183123 
L 105.2568 132.400103 
L 106.721642 131.804835 
L 108.186485 132.885082 
L 109.651328 133.213523 
L 111.11617 132.838228 
L 112.581013 133.318044 
L 114.045856 132.430368 
L 115.510698 132.680047 
L 116.975541 133.269162 
L 118.440383 133.54 
L 119.905226 132.373427 
L 121.370069 132.817589 
L 122.834911 133.54 
L 124.299754 132.188342 
L 125.764597 133.143541 
L 127.229439 133.378186 
L 128.694282 132.868819 
L 130.159125 132.020835 
L 131.623967 133.54 
L 133.08881 132.982612 
L 134.553653 133.461917 
L 136.018495 132.95825 
L 138.94818 132.406646 
L 140.413023 132.848351 
L 141.877866 133.523013 
L 143.342708 133.237761 
L 152.131764 133.54 
L 153.596607 133.470782 
L 157.991135 133.54 
L 162.385663 133.496752 
L 166.780191 133.54 
L 168.245033 133.54 
L 169.709876 133.254861 
L 172.639561 133.54 
L 174.104404 133.116164 
L 175.569247 133.54 
L 177.034089 133.450742 
L 178.498932 133.54 
L 179.963775 133.4681 
L 184.358302 133.54 
L 187.287988 133.373858 
L 188.75283 133.301004 
L 190.217673 133.54 
L 191.682516 133.233839 
L 193.147358 133.463026 
L 194.612201 133.437893 
L 196.077044 133.54 
L 197.541886 132.996657 
L 199.006729 133.54 
L 200.471572 133.429377 
L 201.936414 133.54 
L 203.401257 133.444907 
L 204.866099 133.54 
L 206.330942 133.448916 
L 207.795785 133.54 
L 209.260627 133.447582 
L 210.72547 133.54 
L 212.190313 133.443055 
L 213.655155 133.54 
L 215.119998 133.435987 
L 216.584841 133.54 
L 218.049683 133.426412 
L 219.514526 133.54 
L 220.979369 133.414 
L 222.444211 133.54 
L 223.909054 133.398094 
L 225.373896 133.54 
L 226.838739 133.377648 
L 228.303582 133.54 
L 229.768424 133.351054 
L 231.233267 133.54 
L 232.69811 133.315811 
L 234.162952 133.54 
L 235.627795 133.267902 
L 237.092638 133.54 
L 238.55748 133.200514 
L 240.022323 133.54 
L 241.487166 133.101125 
L 242.952008 133.54 
L 244.416851 132.942752 
L 245.881694 133.54 
L 247.346536 132.541499 
L 248.811379 133.54 
L 250.276221 132.254821 
L 251.741064 133.54 
L 253.205907 130.520265 
L 254.670749 133.54 
L 254.670749 133.54 
" style="fill:none;stroke:#4c72b0;stroke-linecap:round;stroke-width:1.5;"/>
   </g>
   <g id="line2d_13">
    <path clip-path="url(#p97c128cc47)" d="M 61.534091 133.24739 
L 63.061507 132.038714 
L 64.588923 127.770619 
L 66.116339 116.871876 
L 67.643754 97.031132 
L 69.17117 72.167544 
L 70.698586 52.862996 
L 72.226002 48.187619 
L 73.753418 57.835785 
L 76.80825 90.765875 
L 78.335666 103.62775 
L 79.863082 112.131252 
L 81.390497 116.588036 
L 82.917913 118.181357 
L 84.445329 118.605697 
L 85.972745 119.14887 
L 87.500161 120.150037 
L 90.554993 122.50483 
L 93.609825 124.412466 
L 101.246904 128.564955 
L 105.829152 130.287125 
L 107.356568 130.827714 
L 108.883984 131.144369 
L 110.411399 131.092036 
L 111.938815 130.806836 
L 113.466231 130.637271 
L 118.048479 131.041582 
L 119.575895 130.927843 
L 121.103311 130.949875 
L 122.630727 131.238355 
L 127.212974 132.61674 
L 128.74039 132.859443 
L 130.267806 132.839427 
L 131.795222 132.570629 
L 133.322638 132.186861 
L 134.850054 131.929247 
L 136.37747 131.980238 
L 140.959717 132.916508 
L 144.014549 132.928454 
L 150.124213 132.740779 
L 154.70646 132.104969 
L 156.233876 132.382745 
L 159.288708 133.252498 
L 160.816124 133.452397 
L 163.870956 133.53695 
L 228.022423 133.54 
L 241.769166 133.489128 
L 247.87883 133.086492 
L 255.515909 133.492408 
L 255.515909 133.492408 
" style="fill:none;stroke:#dd8452;stroke-linecap:round;stroke-width:1.5;"/>
   </g>
  </g>
  <g id="text_15">
   <!-- "Scrobbles" for BNM Albums -->
   <g style="fill:#262626;" transform="translate(47.94675 13.90725)scale(0.144 -0.144)">
    <defs>
     <path d="M 7.03125 46.234375 
L 4.59375 59.859375 
L 4.59375 71.578125 
L 14.59375 71.578125 
L 14.59375 59.859375 
L 12.40625 46.234375 
z
M 23.1875 46.234375 
L 20.796875 59.859375 
L 20.796875 71.578125 
L 30.8125 71.578125 
L 30.8125 59.859375 
L 28.46875 46.234375 
z
" id="ArialMT-34"/>
     <path d="M 4.5 23 
L 13.421875 23.78125 
Q 14.0625 18.40625 16.375 14.96875 
Q 18.703125 11.53125 23.578125 9.40625 
Q 28.46875 7.28125 34.578125 7.28125 
Q 39.984375 7.28125 44.140625 8.890625 
Q 48.296875 10.5 50.3125 13.296875 
Q 52.34375 16.109375 52.34375 19.4375 
Q 52.34375 22.796875 50.390625 25.3125 
Q 48.4375 27.828125 43.953125 29.546875 
Q 41.0625 30.671875 31.203125 33.03125 
Q 21.34375 35.40625 17.390625 37.5 
Q 12.25 40.1875 9.734375 44.15625 
Q 7.234375 48.140625 7.234375 53.078125 
Q 7.234375 58.5 10.296875 63.203125 
Q 13.375 67.921875 19.28125 70.359375 
Q 25.203125 72.796875 32.421875 72.796875 
Q 40.375 72.796875 46.453125 70.234375 
Q 52.546875 67.671875 55.8125 62.6875 
Q 59.078125 57.71875 59.328125 51.421875 
L 50.25 50.734375 
Q 49.515625 57.515625 45.28125 60.984375 
Q 41.0625 64.453125 32.8125 64.453125 
Q 24.21875 64.453125 20.28125 61.296875 
Q 16.359375 58.15625 16.359375 53.71875 
Q 16.359375 49.859375 19.140625 47.359375 
Q 21.875 44.875 33.421875 42.265625 
Q 44.96875 39.65625 49.265625 37.703125 
Q 55.515625 34.8125 58.484375 30.390625 
Q 61.46875 25.984375 61.46875 20.21875 
Q 61.46875 14.5 58.203125 9.4375 
Q 54.9375 4.390625 48.796875 1.578125 
Q 42.671875 -1.21875 35.015625 -1.21875 
Q 25.296875 -1.21875 18.71875 1.609375 
Q 12.15625 4.4375 8.421875 10.125 
Q 4.6875 15.828125 4.5 23 
z
" id="ArialMT-83"/>
     <path id="ArialMT-32"/>
     <path d="M 7.328125 0 
L 7.328125 71.578125 
L 34.1875 71.578125 
Q 42.390625 71.578125 47.34375 69.40625 
Q 52.296875 67.234375 55.09375 62.71875 
Q 57.90625 58.203125 57.90625 53.265625 
Q 57.90625 48.6875 55.421875 44.625 
Q 52.9375 40.578125 47.90625 38.09375 
Q 54.390625 36.1875 57.875 31.59375 
Q 61.375 27 61.375 20.75 
Q 61.375 15.71875 59.25 11.390625 
Q 57.125 7.078125 54 4.734375 
Q 50.875 2.390625 46.15625 1.1875 
Q 41.453125 0 34.625 0 
z
M 16.796875 41.5 
L 32.28125 41.5 
Q 38.578125 41.5 41.3125 42.328125 
Q 44.921875 43.40625 46.75 45.890625 
Q 48.578125 48.390625 48.578125 52.15625 
Q 48.578125 55.71875 46.875 58.421875 
Q 45.171875 61.140625 41.984375 62.140625 
Q 38.8125 63.140625 31.109375 63.140625 
L 16.796875 63.140625 
z
M 16.796875 8.453125 
L 34.625 8.453125 
Q 39.203125 8.453125 41.0625 8.796875 
Q 44.34375 9.375 46.53125 10.734375 
Q 48.734375 12.109375 50.140625 14.71875 
Q 51.5625 17.328125 51.5625 20.75 
Q 51.5625 24.75 49.515625 27.703125 
Q 47.46875 30.671875 43.828125 31.859375 
Q 40.1875 33.0625 33.34375 33.0625 
L 16.796875 33.0625 
z
" id="ArialMT-66"/>
     <path d="M 7.625 0 
L 7.625 71.578125 
L 17.328125 71.578125 
L 54.9375 15.375 
L 54.9375 71.578125 
L 64.015625 71.578125 
L 64.015625 0 
L 54.296875 0 
L 16.703125 56.25 
L 16.703125 0 
z
" id="ArialMT-78"/>
     <path d="M 7.421875 0 
L 7.421875 71.578125 
L 21.6875 71.578125 
L 38.625 20.90625 
Q 40.96875 13.8125 42.046875 10.296875 
Q 43.265625 14.203125 45.84375 21.78125 
L 62.984375 71.578125 
L 75.734375 71.578125 
L 75.734375 0 
L 66.609375 0 
L 66.609375 59.90625 
L 45.796875 0 
L 37.25 0 
L 16.546875 60.9375 
L 16.546875 0 
z
" id="ArialMT-77"/>
     <path d="M -0.140625 0 
L 27.34375 71.578125 
L 37.546875 71.578125 
L 66.84375 0 
L 56.0625 0 
L 47.703125 21.6875 
L 17.78125 21.6875 
L 9.90625 0 
z
M 20.515625 29.390625 
L 44.78125 29.390625 
L 37.3125 49.21875 
Q 33.890625 58.25 32.234375 64.0625 
Q 30.859375 57.171875 28.375 50.390625 
z
" id="ArialMT-65"/>
     <path d="M 40.578125 0 
L 40.578125 7.625 
Q 34.515625 -1.171875 24.125 -1.171875 
Q 19.53125 -1.171875 15.546875 0.578125 
Q 11.578125 2.34375 9.640625 5 
Q 7.71875 7.671875 6.9375 11.53125 
Q 6.390625 14.109375 6.390625 19.734375 
L 6.390625 51.859375 
L 15.1875 51.859375 
L 15.1875 23.09375 
Q 15.1875 16.21875 15.71875 13.8125 
Q 16.546875 10.359375 19.234375 8.375 
Q 21.921875 6.390625 25.875 6.390625 
Q 29.828125 6.390625 33.296875 8.421875 
Q 36.765625 10.453125 38.203125 13.9375 
Q 39.65625 17.4375 39.65625 24.078125 
L 39.65625 51.859375 
L 48.4375 51.859375 
L 48.4375 0 
z
" id="ArialMT-117"/>
    </defs>
    <use xlink:href="#ArialMT-34"/>
    <use x="35.498047" xlink:href="#ArialMT-83"/>
    <use x="102.197266" xlink:href="#ArialMT-99"/>
    <use x="152.197266" xlink:href="#ArialMT-114"/>
    <use x="185.498047" xlink:href="#ArialMT-111"/>
    <use x="241.113281" xlink:href="#ArialMT-98"/>
    <use x="296.728516" xlink:href="#ArialMT-98"/>
    <use x="352.34375" xlink:href="#ArialMT-108"/>
    <use x="374.560547" xlink:href="#ArialMT-101"/>
    <use x="430.175781" xlink:href="#ArialMT-115"/>
    <use x="480.175781" xlink:href="#ArialMT-34"/>
    <use x="515.673828" xlink:href="#ArialMT-32"/>
    <use x="543.457031" xlink:href="#ArialMT-102"/>
    <use x="571.240234" xlink:href="#ArialMT-111"/>
    <use x="626.855469" xlink:href="#ArialMT-114"/>
    <use x="660.15625" xlink:href="#ArialMT-32"/>
    <use x="687.939453" xlink:href="#ArialMT-66"/>
    <use x="754.638672" xlink:href="#ArialMT-78"/>
    <use x="826.855469" xlink:href="#ArialMT-77"/>
    <use x="910.15625" xlink:href="#ArialMT-32"/>
    <use x="932.439453" xlink:href="#ArialMT-65"/>
    <use x="999.138672" xlink:href="#ArialMT-108"/>
    <use x="1021.355469" xlink:href="#ArialMT-98"/>
    <use x="1076.970703" xlink:href="#ArialMT-117"/>
    <use x="1132.585938" xlink:href="#ArialMT-109"/>
    <use x="1215.886719" xlink:href="#ArialMT-115"/>
   </g>
  </g>
  <g id="legend_1">
   <g id="text_16">
    <!-- best_new_music -->
    <g style="fill:#262626;" transform="translate(178.90125 77.542344)scale(0.12 -0.12)">
     <defs>
      <path d="M 6.59375 0 
L 6.59375 51.859375 
L 14.5 51.859375 
L 14.5 44.484375 
Q 20.21875 53.03125 31 53.03125 
Q 35.6875 53.03125 39.625 51.34375 
Q 43.5625 49.65625 45.515625 46.921875 
Q 47.46875 44.1875 48.25 40.4375 
Q 48.734375 37.984375 48.734375 31.890625 
L 48.734375 0 
L 39.9375 0 
L 39.9375 31.546875 
Q 39.9375 36.921875 38.90625 39.578125 
Q 37.890625 42.234375 35.28125 43.8125 
Q 32.671875 45.40625 29.15625 45.40625 
Q 23.53125 45.40625 19.453125 41.84375 
Q 15.375 38.28125 15.375 28.328125 
L 15.375 0 
z
" id="ArialMT-110"/>
      <path d="M 16.15625 0 
L 0.296875 51.859375 
L 9.375 51.859375 
L 17.625 21.921875 
L 20.703125 10.796875 
Q 20.90625 11.625 23.390625 21.484375 
L 31.640625 51.859375 
L 40.671875 51.859375 
L 48.4375 21.78125 
L 51.03125 11.859375 
L 54 21.875 
L 62.890625 51.859375 
L 71.4375 51.859375 
L 55.21875 0 
L 46.09375 0 
L 37.84375 31.0625 
L 35.84375 39.890625 
L 25.34375 0 
z
" id="ArialMT-119"/>
      <path d="M 6.640625 61.46875 
L 6.640625 71.578125 
L 15.4375 71.578125 
L 15.4375 61.46875 
z
M 6.640625 0 
L 6.640625 51.859375 
L 15.4375 51.859375 
L 15.4375 0 
z
" id="ArialMT-105"/>
     </defs>
     <use xlink:href="#ArialMT-98"/>
     <use x="55.615234" xlink:href="#ArialMT-101"/>
     <use x="111.230469" xlink:href="#ArialMT-115"/>
     <use x="161.230469" xlink:href="#ArialMT-116"/>
     <use x="189.013672" xlink:href="#ArialMT-95"/>
     <use x="244.628906" xlink:href="#ArialMT-110"/>
     <use x="300.244141" xlink:href="#ArialMT-101"/>
     <use x="355.859375" xlink:href="#ArialMT-119"/>
     <use x="428.076172" xlink:href="#ArialMT-95"/>
     <use x="483.691406" xlink:href="#ArialMT-109"/>
     <use x="566.992188" xlink:href="#ArialMT-117"/>
     <use x="622.607422" xlink:href="#ArialMT-115"/>
     <use x="672.607422" xlink:href="#ArialMT-105"/>
     <use x="694.824219" xlink:href="#ArialMT-99"/>
    </g>
   </g>
   <g id="patch_5">
    <path d="M 205.129609 93.300938 
L 227.129609 93.300938 
L 227.129609 85.600938 
L 205.129609 85.600938 
z
" style="fill:none;opacity:0;"/>
   </g>
   <g id="text_17">
    <!-- 0 -->
    <g style="fill:#262626;" transform="translate(235.929609 93.300938)scale(0.11 -0.11)">
     <use xlink:href="#ArialMT-48"/>
    </g>
   </g>
   <g id="patch_6">
    <path d="M 205.129609 108.860781 
L 227.129609 108.860781 
L 227.129609 101.160781 
L 205.129609 101.160781 
z
" style="fill:none;opacity:0;"/>
   </g>
   <g id="text_18">
    <!-- 1 -->
    <g style="fill:#262626;" transform="translate(235.929609 108.860781)scale(0.11 -0.11)">
     <use xlink:href="#ArialMT-49"/>
    </g>
   </g>
  </g>
 </g>
 <defs>
  <clipPath id="p97c128cc47">
   <rect height="89.62" width="213.38" x="51.835" y="43.92"/>
  </clipPath>
 </defs>
</svg>
