<?xml version="1.0" encoding="utf-8" standalone="no"?>
<!DOCTYPE svg PUBLIC "-//W3C//DTD SVG 1.1//EN"
  "http://www.w3.org/Graphics/SVG/1.1/DTD/svg11.dtd">
<!-- Created with matplotlib (https://matplotlib.org/) -->
<svg height="180pt" version="1.1" viewBox="0 0 278.175 180" width="278.175pt" xmlns="http://www.w3.org/2000/svg" xmlns:xlink="http://www.w3.org/1999/xlink">
 <metadata>
  <rdf:RDF xmlns:cc="http://creativecommons.org/ns#" xmlns:dc="http://purl.org/dc/elements/1.1/" xmlns:rdf="http://www.w3.org/1999/02/22-rdf-syntax-ns#">
   <cc:Work>
    <dc:type rdf:resource="http://purl.org/dc/dcmitype/StillImage"/>
    <dc:date>2020-08-04T20:29:44.836105</dc:date>
    <dc:format>image/svg+xml</dc:format>
    <dc:creator>
     <cc:Agent>
      <dc:title>Matplotlib v3.3.0, https://matplotlib.org/</dc:title>
     </cc:Agent>
    </dc:creator>
   </cc:Work>
  </rdf:RDF>
 </metadata>
 <defs>
  <style type="text/css">*{stroke-linecap:butt;stroke-linejoin:round;}</style>
 </defs>
 <g id="figure_1">
  <g id="patch_1">
   <path d="M 0 180 
L 278.175 180 
L 278.175 0 
L 0 0 
z
" style="fill:#ffffff;"/>
  </g>
  <g id="axes_1">
   <g id="patch_2">
    <path d="M 51.881875 133.493125 
L 260.403862 133.493125 
L 260.403862 43.92 
L 51.881875 43.92 
z
" style="fill:#eaeaf2;"/>
   </g>
   <g id="matplotlib.axis_1">
    <g id="xtick_1">
     <g id="line2d_1">
      <path clip-path="url(#paadcf56b16)" d="M 88.195714 133.493125 
L 88.195714 43.92 
" style="fill:none;stroke:#ffffff;stroke-linecap:round;"/>
     </g>
     <g id="text_1">
      <!-- 0 -->
      <g style="fill:#262626;" transform="translate(85.137199 150.866719)scale(0.11 -0.11)">
       <defs>
        <path d="M 4.15625 35.296875 
Q 4.15625 48 6.765625 55.734375 
Q 9.375 63.484375 14.515625 67.671875 
Q 19.671875 71.875 27.484375 71.875 
Q 33.25 71.875 37.59375 69.546875 
Q 41.9375 67.234375 44.765625 62.859375 
Q 47.609375 58.5 49.21875 52.21875 
Q 50.828125 45.953125 50.828125 35.296875 
Q 50.828125 22.703125 48.234375 14.96875 
Q 45.65625 7.234375 40.5 3 
Q 35.359375 -1.21875 27.484375 -1.21875 
Q 17.140625 -1.21875 11.234375 6.203125 
Q 4.15625 15.140625 4.15625 35.296875 
z
M 13.1875 35.296875 
Q 13.1875 17.671875 17.3125 11.828125 
Q 21.4375 6 27.484375 6 
Q 33.546875 6 37.671875 11.859375 
Q 41.796875 17.71875 41.796875 35.296875 
Q 41.796875 52.984375 37.671875 58.78125 
Q 33.546875 64.59375 27.390625 64.59375 
Q 21.34375 64.59375 17.71875 59.46875 
Q 13.1875 52.9375 13.1875 35.296875 
z
" id="ArialMT-48"/>
       </defs>
       <use xlink:href="#ArialMT-48"/>
      </g>
     </g>
    </g>
    <g id="xtick_2">
     <g id="line2d_2">
      <path clip-path="url(#paadcf56b16)" d="M 130.662686 133.493125 
L 130.662686 43.92 
" style="fill:none;stroke:#ffffff;stroke-linecap:round;"/>
     </g>
     <g id="text_2">
      <!-- 10 -->
      <g style="fill:#262626;" transform="translate(124.545655 150.866719)scale(0.11 -0.11)">
       <defs>
        <path d="M 37.25 0 
L 28.46875 0 
L 28.46875 56 
Q 25.296875 52.984375 20.140625 49.953125 
Q 14.984375 46.921875 10.890625 45.40625 
L 10.890625 53.90625 
Q 18.265625 57.375 23.78125 62.296875 
Q 29.296875 67.234375 31.59375 71.875 
L 37.25 71.875 
z
" id="ArialMT-49"/>
       </defs>
       <use xlink:href="#ArialMT-49"/>
       <use x="55.615234" xlink:href="#ArialMT-48"/>
      </g>
     </g>
    </g>
    <g id="xtick_3">
     <g id="line2d_3">
      <path clip-path="url(#paadcf56b16)" d="M 173.129657 133.493125 
L 173.129657 43.92 
" style="fill:none;stroke:#ffffff;stroke-linecap:round;"/>
     </g>
     <g id="text_3">
      <!-- 20 -->
      <g style="fill:#262626;" transform="translate(167.012626 150.866719)scale(0.11 -0.11)">
       <defs>
        <path d="M 50.34375 8.453125 
L 50.34375 0 
L 3.03125 0 
Q 2.9375 3.171875 4.046875 6.109375 
Q 5.859375 10.9375 9.828125 15.625 
Q 13.8125 20.3125 21.34375 26.46875 
Q 33.015625 36.03125 37.109375 41.625 
Q 41.21875 47.21875 41.21875 52.203125 
Q 41.21875 57.421875 37.46875 61 
Q 33.734375 64.59375 27.734375 64.59375 
Q 21.390625 64.59375 17.578125 60.78125 
Q 13.765625 56.984375 13.71875 50.25 
L 4.6875 51.171875 
Q 5.609375 61.28125 11.65625 66.578125 
Q 17.71875 71.875 27.9375 71.875 
Q 38.234375 71.875 44.234375 66.15625 
Q 50.25 60.453125 50.25 52 
Q 50.25 47.703125 48.484375 43.546875 
Q 46.734375 39.40625 42.65625 34.8125 
Q 38.578125 30.21875 29.109375 22.21875 
Q 21.1875 15.578125 18.9375 13.203125 
Q 16.703125 10.84375 15.234375 8.453125 
z
" id="ArialMT-50"/>
       </defs>
       <use xlink:href="#ArialMT-50"/>
       <use x="55.615234" xlink:href="#ArialMT-48"/>
      </g>
     </g>
    </g>
    <g id="xtick_4">
     <g id="line2d_4">
      <path clip-path="url(#paadcf56b16)" d="M 215.596629 133.493125 
L 215.596629 43.92 
" style="fill:none;stroke:#ffffff;stroke-linecap:round;"/>
     </g>
     <g id="text_4">
      <!-- 30 -->
      <g style="fill:#262626;" transform="translate(209.479598 150.866719)scale(0.11 -0.11)">
       <defs>
        <path d="M 4.203125 18.890625 
L 12.984375 20.0625 
Q 14.5 12.59375 18.140625 9.296875 
Q 21.78125 6 27 6 
Q 33.203125 6 37.46875 10.296875 
Q 41.75 14.59375 41.75 20.953125 
Q 41.75 27 37.796875 30.921875 
Q 33.84375 34.859375 27.734375 34.859375 
Q 25.25 34.859375 21.53125 33.890625 
L 22.515625 41.609375 
Q 23.390625 41.5 23.921875 41.5 
Q 29.546875 41.5 34.03125 44.421875 
Q 38.53125 47.359375 38.53125 53.46875 
Q 38.53125 58.296875 35.25 61.46875 
Q 31.984375 64.65625 26.8125 64.65625 
Q 21.6875 64.65625 18.265625 61.421875 
Q 14.84375 58.203125 13.875 51.765625 
L 5.078125 53.328125 
Q 6.6875 62.15625 12.390625 67.015625 
Q 18.109375 71.875 26.609375 71.875 
Q 32.46875 71.875 37.390625 69.359375 
Q 42.328125 66.84375 44.9375 62.5 
Q 47.5625 58.15625 47.5625 53.265625 
Q 47.5625 48.640625 45.0625 44.828125 
Q 42.578125 41.015625 37.703125 38.765625 
Q 44.046875 37.3125 47.5625 32.6875 
Q 51.078125 28.078125 51.078125 21.140625 
Q 51.078125 11.765625 44.234375 5.25 
Q 37.40625 -1.265625 26.953125 -1.265625 
Q 17.53125 -1.265625 11.296875 4.34375 
Q 5.078125 9.96875 4.203125 18.890625 
z
" id="ArialMT-51"/>
       </defs>
       <use xlink:href="#ArialMT-51"/>
       <use x="55.615234" xlink:href="#ArialMT-48"/>
      </g>
     </g>
    </g>
    <g id="xtick_5">
     <g id="line2d_5">
      <path clip-path="url(#paadcf56b16)" d="M 258.0636 133.493125 
L 258.0636 43.92 
" style="fill:none;stroke:#ffffff;stroke-linecap:round;"/>
     </g>
     <g id="text_5">
      <!-- 40 -->
      <g style="fill:#262626;" transform="translate(251.946569 150.866719)scale(0.11 -0.11)">
       <defs>
        <path d="M 32.328125 0 
L 32.328125 17.140625 
L 1.265625 17.140625 
L 1.265625 25.203125 
L 33.9375 71.578125 
L 41.109375 71.578125 
L 41.109375 25.203125 
L 50.78125 25.203125 
L 50.78125 17.140625 
L 41.109375 17.140625 
L 41.109375 0 
z
M 32.328125 25.203125 
L 32.328125 57.46875 
L 9.90625 25.203125 
z
" id="ArialMT-52"/>
       </defs>
       <use xlink:href="#ArialMT-52"/>
       <use x="55.615234" xlink:href="#ArialMT-48"/>
      </g>
     </g>
    </g>
    <g id="text_6">
     <!-- label_strength -->
     <g style="fill:#262626;" transform="translate(118.452556 165.642344)scale(0.12 -0.12)">
      <defs>
       <path d="M 6.390625 0 
L 6.390625 71.578125 
L 15.1875 71.578125 
L 15.1875 0 
z
" id="ArialMT-108"/>
       <path d="M 40.4375 6.390625 
Q 35.546875 2.25 31.03125 0.53125 
Q 26.515625 -1.171875 21.34375 -1.171875 
Q 12.796875 -1.171875 8.203125 3 
Q 3.609375 7.171875 3.609375 13.671875 
Q 3.609375 17.484375 5.34375 20.625 
Q 7.078125 23.78125 9.890625 25.6875 
Q 12.703125 27.59375 16.21875 28.5625 
Q 18.796875 29.25 24.03125 29.890625 
Q 34.671875 31.15625 39.703125 32.90625 
Q 39.75 34.71875 39.75 35.203125 
Q 39.75 40.578125 37.25 42.78125 
Q 33.890625 45.75 27.25 45.75 
Q 21.046875 45.75 18.09375 43.578125 
Q 15.140625 41.40625 13.71875 35.890625 
L 5.125 37.0625 
Q 6.296875 42.578125 8.984375 45.96875 
Q 11.671875 49.359375 16.75 51.1875 
Q 21.828125 53.03125 28.515625 53.03125 
Q 35.15625 53.03125 39.296875 51.46875 
Q 43.453125 49.90625 45.40625 47.53125 
Q 47.359375 45.171875 48.140625 41.546875 
Q 48.578125 39.3125 48.578125 33.453125 
L 48.578125 21.734375 
Q 48.578125 9.46875 49.140625 6.21875 
Q 49.703125 2.984375 51.375 0 
L 42.1875 0 
Q 40.828125 2.734375 40.4375 6.390625 
z
M 39.703125 26.03125 
Q 34.90625 24.078125 25.34375 22.703125 
Q 19.921875 21.921875 17.671875 20.9375 
Q 15.4375 19.96875 14.203125 18.09375 
Q 12.984375 16.21875 12.984375 13.921875 
Q 12.984375 10.40625 15.640625 8.0625 
Q 18.3125 5.71875 23.4375 5.71875 
Q 28.515625 5.71875 32.46875 7.9375 
Q 36.421875 10.15625 38.28125 14.015625 
Q 39.703125 17 39.703125 22.796875 
z
" id="ArialMT-97"/>
       <path d="M 14.703125 0 
L 6.546875 0 
L 6.546875 71.578125 
L 15.328125 71.578125 
L 15.328125 46.046875 
Q 20.90625 53.03125 29.546875 53.03125 
Q 34.328125 53.03125 38.59375 51.09375 
Q 42.875 49.171875 45.625 45.671875 
Q 48.390625 42.1875 49.953125 37.25 
Q 51.515625 32.328125 51.515625 26.703125 
Q 51.515625 13.375 44.921875 6.09375 
Q 38.328125 -1.171875 29.109375 -1.171875 
Q 19.921875 -1.171875 14.703125 6.5 
z
M 14.59375 26.3125 
Q 14.59375 17 17.140625 12.84375 
Q 21.296875 6.0625 28.375 6.0625 
Q 34.125 6.0625 38.328125 11.0625 
Q 42.53125 16.0625 42.53125 25.984375 
Q 42.53125 36.140625 38.5 40.96875 
Q 34.46875 45.796875 28.765625 45.796875 
Q 23 45.796875 18.796875 40.796875 
Q 14.59375 35.796875 14.59375 26.3125 
z
" id="ArialMT-98"/>
       <path d="M 42.09375 16.703125 
L 51.171875 15.578125 
Q 49.03125 7.625 43.21875 3.21875 
Q 37.40625 -1.171875 28.375 -1.171875 
Q 17 -1.171875 10.328125 5.828125 
Q 3.65625 12.84375 3.65625 25.484375 
Q 3.65625 38.578125 10.390625 45.796875 
Q 17.140625 53.03125 27.875 53.03125 
Q 38.28125 53.03125 44.875 45.953125 
Q 51.46875 38.875 51.46875 26.03125 
Q 51.46875 25.25 51.421875 23.6875 
L 12.75 23.6875 
Q 13.234375 15.140625 17.578125 10.59375 
Q 21.921875 6.0625 28.421875 6.0625 
Q 33.25 6.0625 36.671875 8.59375 
Q 40.09375 11.140625 42.09375 16.703125 
z
M 13.234375 30.90625 
L 42.1875 30.90625 
Q 41.609375 37.453125 38.875 40.71875 
Q 34.671875 45.796875 27.984375 45.796875 
Q 21.921875 45.796875 17.796875 41.75 
Q 13.671875 37.703125 13.234375 30.90625 
z
" id="ArialMT-101"/>
       <path d="M -1.515625 -19.875 
L -1.515625 -13.53125 
L 56.734375 -13.53125 
L 56.734375 -19.875 
z
" id="ArialMT-95"/>
       <path d="M 3.078125 15.484375 
L 11.765625 16.84375 
Q 12.5 11.625 15.84375 8.84375 
Q 19.1875 6.0625 25.203125 6.0625 
Q 31.25 6.0625 34.171875 8.515625 
Q 37.109375 10.984375 37.109375 14.3125 
Q 37.109375 17.28125 34.515625 19 
Q 32.71875 20.171875 25.53125 21.96875 
Q 15.875 24.421875 12.140625 26.203125 
Q 8.40625 27.984375 6.46875 31.125 
Q 4.546875 34.28125 4.546875 38.09375 
Q 4.546875 41.546875 6.125 44.5 
Q 7.71875 47.46875 10.453125 49.421875 
Q 12.5 50.921875 16.03125 51.96875 
Q 19.578125 53.03125 23.640625 53.03125 
Q 29.734375 53.03125 34.34375 51.265625 
Q 38.96875 49.515625 41.15625 46.5 
Q 43.359375 43.5 44.1875 38.484375 
L 35.59375 37.3125 
Q 35.015625 41.3125 32.203125 43.546875 
Q 29.390625 45.796875 24.265625 45.796875 
Q 18.21875 45.796875 15.625 43.796875 
Q 13.03125 41.796875 13.03125 39.109375 
Q 13.03125 37.40625 14.109375 36.03125 
Q 15.1875 34.625 17.484375 33.6875 
Q 18.796875 33.203125 25.25 31.453125 
Q 34.578125 28.953125 38.25 27.359375 
Q 41.9375 25.78125 44.03125 22.75 
Q 46.140625 19.734375 46.140625 15.234375 
Q 46.140625 10.84375 43.578125 6.953125 
Q 41.015625 3.078125 36.171875 0.953125 
Q 31.34375 -1.171875 25.25 -1.171875 
Q 15.140625 -1.171875 9.84375 3.03125 
Q 4.546875 7.234375 3.078125 15.484375 
z
" id="ArialMT-115"/>
       <path d="M 25.78125 7.859375 
L 27.046875 0.09375 
Q 23.34375 -0.6875 20.40625 -0.6875 
Q 15.625 -0.6875 12.984375 0.828125 
Q 10.359375 2.34375 9.28125 4.8125 
Q 8.203125 7.28125 8.203125 15.1875 
L 8.203125 45.015625 
L 1.765625 45.015625 
L 1.765625 51.859375 
L 8.203125 51.859375 
L 8.203125 64.703125 
L 16.9375 69.96875 
L 16.9375 51.859375 
L 25.78125 51.859375 
L 25.78125 45.015625 
L 16.9375 45.015625 
L 16.9375 14.703125 
Q 16.9375 10.9375 17.40625 9.859375 
Q 17.875 8.796875 18.921875 8.15625 
Q 19.96875 7.515625 21.921875 7.515625 
Q 23.390625 7.515625 25.78125 7.859375 
z
" id="ArialMT-116"/>
       <path d="M 6.5 0 
L 6.5 51.859375 
L 14.40625 51.859375 
L 14.40625 44 
Q 17.4375 49.515625 20 51.265625 
Q 22.5625 53.03125 25.640625 53.03125 
Q 30.078125 53.03125 34.671875 50.203125 
L 31.640625 42.046875 
Q 28.421875 43.953125 25.203125 43.953125 
Q 22.3125 43.953125 20.015625 42.21875 
Q 17.71875 40.484375 16.75 37.40625 
Q 15.28125 32.71875 15.28125 27.15625 
L 15.28125 0 
z
" id="ArialMT-114"/>
       <path d="M 6.59375 0 
L 6.59375 51.859375 
L 14.5 51.859375 
L 14.5 44.484375 
Q 20.21875 53.03125 31 53.03125 
Q 35.6875 53.03125 39.625 51.34375 
Q 43.5625 49.65625 45.515625 46.921875 
Q 47.46875 44.1875 48.25 40.4375 
Q 48.734375 37.984375 48.734375 31.890625 
L 48.734375 0 
L 39.9375 0 
L 39.9375 31.546875 
Q 39.9375 36.921875 38.90625 39.578125 
Q 37.890625 42.234375 35.28125 43.8125 
Q 32.671875 45.40625 29.15625 45.40625 
Q 23.53125 45.40625 19.453125 41.84375 
Q 15.375 38.28125 15.375 28.328125 
L 15.375 0 
z
" id="ArialMT-110"/>
       <path d="M 4.984375 -4.296875 
L 13.53125 -5.5625 
Q 14.0625 -9.515625 16.5 -11.328125 
Q 19.78125 -13.765625 25.4375 -13.765625 
Q 31.546875 -13.765625 34.859375 -11.328125 
Q 38.1875 -8.890625 39.359375 -4.5 
Q 40.046875 -1.8125 39.984375 6.78125 
Q 34.234375 0 25.640625 0 
Q 14.9375 0 9.078125 7.71875 
Q 3.21875 15.4375 3.21875 26.21875 
Q 3.21875 33.640625 5.90625 39.90625 
Q 8.59375 46.1875 13.6875 49.609375 
Q 18.796875 53.03125 25.6875 53.03125 
Q 34.859375 53.03125 40.828125 45.609375 
L 40.828125 51.859375 
L 48.921875 51.859375 
L 48.921875 7.03125 
Q 48.921875 -5.078125 46.453125 -10.125 
Q 44 -15.1875 38.640625 -18.109375 
Q 33.296875 -21.046875 25.484375 -21.046875 
Q 16.21875 -21.046875 10.5 -16.875 
Q 4.78125 -12.703125 4.984375 -4.296875 
z
M 12.25 26.859375 
Q 12.25 16.65625 16.296875 11.96875 
Q 20.359375 7.28125 26.46875 7.28125 
Q 32.515625 7.28125 36.609375 11.9375 
Q 40.71875 16.609375 40.71875 26.5625 
Q 40.71875 36.078125 36.5 40.90625 
Q 32.28125 45.75 26.3125 45.75 
Q 20.453125 45.75 16.34375 40.984375 
Q 12.25 36.234375 12.25 26.859375 
z
" id="ArialMT-103"/>
       <path d="M 6.59375 0 
L 6.59375 71.578125 
L 15.375 71.578125 
L 15.375 45.90625 
Q 21.53125 53.03125 30.90625 53.03125 
Q 36.671875 53.03125 40.921875 50.75 
Q 45.171875 48.484375 47 44.484375 
Q 48.828125 40.484375 48.828125 32.859375 
L 48.828125 0 
L 40.046875 0 
L 40.046875 32.859375 
Q 40.046875 39.453125 37.1875 42.453125 
Q 34.328125 45.453125 29.109375 45.453125 
Q 25.203125 45.453125 21.75 43.421875 
Q 18.3125 41.40625 16.84375 37.9375 
Q 15.375 34.46875 15.375 28.375 
L 15.375 0 
z
" id="ArialMT-104"/>
      </defs>
      <use xlink:href="#ArialMT-108"/>
      <use x="22.216797" xlink:href="#ArialMT-97"/>
      <use x="77.832031" xlink:href="#ArialMT-98"/>
      <use x="133.447266" xlink:href="#ArialMT-101"/>
      <use x="189.0625" xlink:href="#ArialMT-108"/>
      <use x="211.279297" xlink:href="#ArialMT-95"/>
      <use x="266.894531" xlink:href="#ArialMT-115"/>
      <use x="316.894531" xlink:href="#ArialMT-116"/>
      <use x="344.677734" xlink:href="#ArialMT-114"/>
      <use x="377.978516" xlink:href="#ArialMT-101"/>
      <use x="433.59375" xlink:href="#ArialMT-110"/>
      <use x="489.208984" xlink:href="#ArialMT-103"/>
      <use x="544.824219" xlink:href="#ArialMT-116"/>
      <use x="572.607422" xlink:href="#ArialMT-104"/>
     </g>
    </g>
   </g>
   <g id="matplotlib.axis_2">
    <g id="ytick_1">
     <g id="line2d_6">
      <path clip-path="url(#paadcf56b16)" d="M 51.881875 133.493125 
L 260.403862 133.493125 
" style="fill:none;stroke:#ffffff;stroke-linecap:round;"/>
     </g>
     <g id="text_7">
      <!-- 0.00 -->
      <g style="fill:#262626;" transform="translate(20.974844 137.429922)scale(0.11 -0.11)">
       <defs>
        <path d="M 9.078125 0 
L 9.078125 10.015625 
L 19.09375 10.015625 
L 19.09375 0 
z
" id="ArialMT-46"/>
       </defs>
       <use xlink:href="#ArialMT-48"/>
       <use x="55.615234" xlink:href="#ArialMT-46"/>
       <use x="83.398438" xlink:href="#ArialMT-48"/>
       <use x="139.013672" xlink:href="#ArialMT-48"/>
      </g>
     </g>
    </g>
    <g id="ytick_2">
     <g id="line2d_7">
      <path clip-path="url(#paadcf56b16)" d="M 51.881875 111.099844 
L 260.403862 111.099844 
" style="fill:none;stroke:#ffffff;stroke-linecap:round;"/>
     </g>
     <g id="text_8">
      <!-- 0.25 -->
      <g style="fill:#262626;" transform="translate(20.974844 115.036641)scale(0.11 -0.11)">
       <defs>
        <path d="M 4.15625 18.75 
L 13.375 19.53125 
Q 14.40625 12.796875 18.140625 9.390625 
Q 21.875 6 27.15625 6 
Q 33.5 6 37.890625 10.78125 
Q 42.28125 15.578125 42.28125 23.484375 
Q 42.28125 31 38.0625 35.34375 
Q 33.84375 39.703125 27 39.703125 
Q 22.75 39.703125 19.328125 37.765625 
Q 15.921875 35.84375 13.96875 32.765625 
L 5.71875 33.84375 
L 12.640625 70.609375 
L 48.25 70.609375 
L 48.25 62.203125 
L 19.671875 62.203125 
L 15.828125 42.96875 
Q 22.265625 47.46875 29.34375 47.46875 
Q 38.71875 47.46875 45.15625 40.96875 
Q 51.609375 34.46875 51.609375 24.265625 
Q 51.609375 14.546875 45.953125 7.46875 
Q 39.0625 -1.21875 27.15625 -1.21875 
Q 17.390625 -1.21875 11.203125 4.25 
Q 5.03125 9.71875 4.15625 18.75 
z
" id="ArialMT-53"/>
       </defs>
       <use xlink:href="#ArialMT-48"/>
       <use x="55.615234" xlink:href="#ArialMT-46"/>
       <use x="83.398438" xlink:href="#ArialMT-50"/>
       <use x="139.013672" xlink:href="#ArialMT-53"/>
      </g>
     </g>
    </g>
    <g id="ytick_3">
     <g id="line2d_8">
      <path clip-path="url(#paadcf56b16)" d="M 51.881875 88.706563 
L 260.403862 88.706563 
" style="fill:none;stroke:#ffffff;stroke-linecap:round;"/>
     </g>
     <g id="text_9">
      <!-- 0.50 -->
      <g style="fill:#262626;" transform="translate(20.974844 92.643359)scale(0.11 -0.11)">
       <use xlink:href="#ArialMT-48"/>
       <use x="55.615234" xlink:href="#ArialMT-46"/>
       <use x="83.398438" xlink:href="#ArialMT-53"/>
       <use x="139.013672" xlink:href="#ArialMT-48"/>
      </g>
     </g>
    </g>
    <g id="ytick_4">
     <g id="line2d_9">
      <path clip-path="url(#paadcf56b16)" d="M 51.881875 66.313281 
L 260.403862 66.313281 
" style="fill:none;stroke:#ffffff;stroke-linecap:round;"/>
     </g>
     <g id="text_10">
      <!-- 0.75 -->
      <g style="fill:#262626;" transform="translate(20.974844 70.250078)scale(0.11 -0.11)">
       <defs>
        <path d="M 4.734375 62.203125 
L 4.734375 70.65625 
L 51.078125 70.65625 
L 51.078125 63.8125 
Q 44.234375 56.546875 37.515625 44.484375 
Q 30.8125 32.421875 27.15625 19.671875 
Q 24.515625 10.6875 23.78125 0 
L 14.75 0 
Q 14.890625 8.453125 18.0625 20.40625 
Q 21.234375 32.375 27.171875 43.484375 
Q 33.109375 54.59375 39.796875 62.203125 
z
" id="ArialMT-55"/>
       </defs>
       <use xlink:href="#ArialMT-48"/>
       <use x="55.615234" xlink:href="#ArialMT-46"/>
       <use x="83.398438" xlink:href="#ArialMT-55"/>
       <use x="139.013672" xlink:href="#ArialMT-53"/>
      </g>
     </g>
    </g>
    <g id="ytick_5">
     <g id="line2d_10">
      <path clip-path="url(#paadcf56b16)" d="M 51.881875 43.92 
L 260.403862 43.92 
" style="fill:none;stroke:#ffffff;stroke-linecap:round;"/>
     </g>
     <g id="text_11">
      <!-- 1.00 -->
      <g style="fill:#262626;" transform="translate(20.974844 47.856797)scale(0.11 -0.11)">
       <use xlink:href="#ArialMT-49"/>
       <use x="55.615234" xlink:href="#ArialMT-46"/>
       <use x="83.398438" xlink:href="#ArialMT-48"/>
       <use x="139.013672" xlink:href="#ArialMT-48"/>
      </g>
     </g>
    </g>
    <g id="text_12">
     <!-- label_strength -->
     <g style="fill:#262626;" transform="translate(14.449219 126.396875)rotate(-90)scale(0.12 -0.12)">
      <use xlink:href="#ArialMT-108"/>
      <use x="22.216797" xlink:href="#ArialMT-97"/>
      <use x="77.832031" xlink:href="#ArialMT-98"/>
      <use x="133.447266" xlink:href="#ArialMT-101"/>
      <use x="189.0625" xlink:href="#ArialMT-108"/>
      <use x="211.279297" xlink:href="#ArialMT-95"/>
      <use x="266.894531" xlink:href="#ArialMT-115"/>
      <use x="316.894531" xlink:href="#ArialMT-116"/>
      <use x="344.677734" xlink:href="#ArialMT-114"/>
      <use x="377.978516" xlink:href="#ArialMT-101"/>
      <use x="433.59375" xlink:href="#ArialMT-110"/>
      <use x="489.208984" xlink:href="#ArialMT-103"/>
      <use x="544.824219" xlink:href="#ArialMT-116"/>
      <use x="572.607422" xlink:href="#ArialMT-104"/>
     </g>
    </g>
   </g>
   <g id="patch_3">
    <path d="M 51.881875 133.493125 
L 51.881875 43.92 
" style="fill:none;stroke:#ffffff;stroke-linecap:square;stroke-linejoin:miter;stroke-width:1.25;"/>
   </g>
   <g id="patch_4">
    <path d="M 51.881875 133.493125 
L 260.403862 133.493125 
" style="fill:none;stroke:#ffffff;stroke-linecap:square;stroke-linejoin:miter;stroke-width:1.25;"/>
   </g>
  </g>
  <g id="axes_2">
   <g id="PolyCollection_1">
    <defs>
     <path d="M 81.952855 -47.568279 
L 81.952855 -46.506875 
L 83.121202 -46.506875 
L 84.289548 -46.506875 
L 85.457895 -46.506875 
L 86.626242 -46.506875 
L 87.794588 -46.506875 
L 88.962935 -46.506875 
L 90.131282 -46.506875 
L 91.299628 -46.506875 
L 92.467975 -46.506875 
L 93.636322 -46.506875 
L 94.804668 -46.506875 
L 95.973015 -46.506875 
L 97.141362 -46.506875 
L 98.309708 -46.506875 
L 99.478055 -46.506875 
L 100.646402 -46.506875 
L 101.814748 -46.506875 
L 102.983095 -46.506875 
L 104.151442 -46.506875 
L 105.319788 -46.506875 
L 106.488135 -46.506875 
L 107.656482 -46.506875 
L 108.824828 -46.506875 
L 109.993175 -46.506875 
L 111.161522 -46.506875 
L 112.329868 -46.506875 
L 113.498215 -46.506875 
L 114.666562 -46.506875 
L 115.834908 -46.506875 
L 117.003255 -46.506875 
L 118.171602 -46.506875 
L 119.339948 -46.506875 
L 120.508295 -46.506875 
L 121.676642 -46.506875 
L 122.844988 -46.506875 
L 124.013335 -46.506875 
L 125.181682 -46.506875 
L 126.350028 -46.506875 
L 127.518375 -46.506875 
L 128.686722 -46.506875 
L 129.855068 -46.506875 
L 131.023415 -46.506875 
L 132.191762 -46.506875 
L 133.360109 -46.506875 
L 134.528455 -46.506875 
L 135.696802 -46.506875 
L 136.865149 -46.506875 
L 138.033495 -46.506875 
L 139.201842 -46.506875 
L 140.370189 -46.506875 
L 141.538535 -46.506875 
L 142.706882 -46.506875 
L 143.875229 -46.506875 
L 145.043575 -46.506875 
L 146.211922 -46.506875 
L 147.380269 -46.506875 
L 148.548615 -46.506875 
L 149.716962 -46.506875 
L 150.885309 -46.506875 
L 152.053655 -46.506875 
L 153.222002 -46.506875 
L 154.390349 -46.506875 
L 155.558695 -46.506875 
L 156.727042 -46.506875 
L 157.895389 -46.506875 
L 159.063735 -46.506875 
L 160.232082 -46.506875 
L 161.400429 -46.506875 
L 162.568775 -46.506875 
L 163.737122 -46.506875 
L 164.905469 -46.506875 
L 166.073815 -46.506875 
L 167.242162 -46.506875 
L 168.410509 -46.506875 
L 169.578855 -46.506875 
L 170.747202 -46.506875 
L 171.915549 -46.506875 
L 173.083895 -46.506875 
L 174.252242 -46.506875 
L 175.420589 -46.506875 
L 176.588935 -46.506875 
L 177.757282 -46.506875 
L 178.925629 -46.506875 
L 180.093975 -46.506875 
L 181.262322 -46.506875 
L 182.430669 -46.506875 
L 183.599015 -46.506875 
L 184.767362 -46.506875 
L 185.935709 -46.506875 
L 187.104056 -46.506875 
L 188.272402 -46.506875 
L 189.440749 -46.506875 
L 190.609096 -46.506875 
L 191.777442 -46.506875 
L 192.945789 -46.506875 
L 194.114136 -46.506875 
L 195.282482 -46.506875 
L 196.450829 -46.506875 
L 197.619176 -46.506875 
L 198.787522 -46.506875 
L 199.955869 -46.506875 
L 201.124216 -46.506875 
L 202.292562 -46.506875 
L 203.460909 -46.506875 
L 204.629256 -46.506875 
L 205.797602 -46.506875 
L 206.965949 -46.506875 
L 208.134296 -46.506875 
L 209.302642 -46.506875 
L 210.470989 -46.506875 
L 211.639336 -46.506875 
L 212.807682 -46.506875 
L 213.976029 -46.506875 
L 215.144376 -46.506875 
L 216.312722 -46.506875 
L 217.481069 -46.506875 
L 218.649416 -46.506875 
L 219.817762 -46.506875 
L 220.986109 -46.506875 
L 222.154456 -46.506875 
L 223.322802 -46.506875 
L 224.491149 -46.506875 
L 225.659496 -46.506875 
L 226.827842 -46.506875 
L 227.996189 -46.506875 
L 229.164536 -46.506875 
L 230.332882 -46.506875 
L 230.332882 -46.708729 
L 230.332882 -46.708729 
L 229.164536 -46.652925 
L 227.996189 -46.917098 
L 226.827842 -47.483977 
L 225.659496 -48.221444 
L 224.491149 -48.717964 
L 223.322802 -48.60714 
L 222.154456 -47.980246 
L 220.986109 -47.272012 
L 219.817762 -46.801485 
L 218.649416 -46.591034 
L 217.481069 -46.524709 
L 216.312722 -46.509675 
L 215.144376 -46.507201 
L 213.976029 -46.506902 
L 212.807682 -46.506877 
L 211.639336 -46.506875 
L 210.470989 -46.506876 
L 209.302642 -46.506875 
L 208.134296 -46.506876 
L 206.965949 -46.506875 
L 205.797602 -46.506876 
L 204.629256 -46.506884 
L 203.460909 -46.50699 
L 202.292562 -46.507897 
L 201.124216 -46.513663 
L 199.955869 -46.540449 
L 198.787522 -46.630544 
L 197.619176 -46.845432 
L 196.450829 -47.193449 
L 195.282482 -47.533984 
L 194.114136 -47.635443 
L 192.945789 -47.41427 
L 191.777442 -47.03941 
L 190.609096 -46.735077 
L 189.440749 -46.58122 
L 188.272402 -46.544172 
L 187.104056 -46.610321 
L 185.935709 -46.864044 
L 184.767362 -47.445346 
L 183.599015 -48.33724 
L 182.430669 -49.14856 
L 181.262322 -49.319706 
L 180.093975 -48.709734 
L 178.925629 -47.772504 
L 177.757282 -47.039729 
L 176.588935 -46.673561 
L 175.420589 -46.560804 
L 174.252242 -46.591889 
L 173.083895 -46.779298 
L 171.915549 -47.20147 
L 170.747202 -47.833671 
L 169.578855 -48.43456 
L 168.410509 -48.738669 
L 167.242162 -48.772287 
L 166.073815 -48.740938 
L 164.905469 -48.628599 
L 163.737122 -48.250424 
L 162.568775 -47.659192 
L 161.400429 -47.182089 
L 160.232082 -47.12445 
L 159.063735 -47.591558 
L 157.895389 -48.401916 
L 156.727042 -49.056327 
L 155.558695 -49.055807 
L 154.390349 -48.398063 
L 153.222002 -47.57259 
L 152.053655 -47.054845 
L 150.885309 -46.990584 
L 149.716962 -47.258744 
L 148.548615 -47.58828 
L 147.380269 -47.684398 
L 146.211922 -47.451313 
L 145.043575 -47.073662 
L 143.875229 -46.812358 
L 142.706882 -46.805725 
L 141.538535 -47.0613 
L 140.370189 -47.507596 
L 139.201842 -48.09376 
L 138.033495 -48.927687 
L 136.865149 -50.085494 
L 135.696802 -51.123207 
L 134.528455 -51.223812 
L 133.360109 -50.159616 
L 132.191762 -48.693795 
L 131.023415 -47.84921 
L 129.855068 -48.198594 
L 128.686722 -49.699471 
L 127.518375 -51.548722 
L 126.350028 -52.443759 
L 125.181682 -51.769017 
L 124.013335 -50.265135 
L 122.844988 -49.029622 
L 121.676642 -48.447968 
L 120.508295 -48.384573 
L 119.339948 -48.679936 
L 118.171602 -49.252723 
L 117.003255 -50.221141 
L 115.834908 -51.806661 
L 114.666562 -53.665748 
L 113.498215 -54.859373 
L 112.329868 -55.084906 
L 111.161522 -55.053662 
L 109.993175 -55.12759 
L 108.824828 -54.879048 
L 107.656482 -54.310916 
L 106.488135 -54.054769 
L 105.319788 -54.390629 
L 104.151442 -55.38404 
L 102.983095 -57.338567 
L 101.814748 -59.841214 
L 100.646402 -61.605591 
L 99.478055 -62.392631 
L 98.309708 -63.33509 
L 97.141362 -64.865087 
L 95.973015 -66.879437 
L 94.804668 -70.601108 
L 93.636322 -77.144486 
L 92.467975 -86.074238 
L 91.299628 -98.514502 
L 90.131282 -116.0507 
L 88.962935 -131.814613 
L 87.794588 -131.753446 
L 86.626242 -111.51745 
L 85.457895 -83.360305 
L 84.289548 -61.887302 
L 83.121202 -51.216748 
L 81.952855 -47.568279 
z
" id="m28bbb82d04" style="stroke:#ffffff;stroke-opacity:0.25;"/>
    </defs>
    <g clip-path="url(#paadcf56b16)">
     <use style="fill:#4c72b0;fill-opacity:0.25;stroke:#ffffff;stroke-opacity:0.25;" x="0" xlink:href="#m28bbb82d04" y="180"/>
    </g>
   </g>
   <g id="PolyCollection_2">
    <defs>
     <path d="M 61.360147 -46.553962 
L 61.360147 -46.506875 
L 62.852788 -46.506875 
L 64.34543 -46.506875 
L 65.838071 -46.506875 
L 67.330712 -46.506875 
L 68.823354 -46.506875 
L 70.315995 -46.506875 
L 71.808636 -46.506875 
L 73.301277 -46.506875 
L 74.793919 -46.506875 
L 76.28656 -46.506875 
L 77.779201 -46.506875 
L 79.271843 -46.506875 
L 80.764484 -46.506875 
L 82.257125 -46.506875 
L 83.749766 -46.506875 
L 85.242408 -46.506875 
L 86.735049 -46.506875 
L 88.22769 -46.506875 
L 89.720332 -46.506875 
L 91.212973 -46.506875 
L 92.705614 -46.506875 
L 94.198255 -46.506875 
L 95.690897 -46.506875 
L 97.183538 -46.506875 
L 98.676179 -46.506875 
L 100.168821 -46.506875 
L 101.661462 -46.506875 
L 103.154103 -46.506875 
L 104.646744 -46.506875 
L 106.139386 -46.506875 
L 107.632027 -46.506875 
L 109.124668 -46.506875 
L 110.61731 -46.506875 
L 112.109951 -46.506875 
L 113.602592 -46.506875 
L 115.095233 -46.506875 
L 116.587875 -46.506875 
L 118.080516 -46.506875 
L 119.573157 -46.506875 
L 121.065798 -46.506875 
L 122.55844 -46.506875 
L 124.051081 -46.506875 
L 125.543722 -46.506875 
L 127.036364 -46.506875 
L 128.529005 -46.506875 
L 130.021646 -46.506875 
L 131.514287 -46.506875 
L 133.006929 -46.506875 
L 134.49957 -46.506875 
L 135.992211 -46.506875 
L 137.484853 -46.506875 
L 138.977494 -46.506875 
L 140.470135 -46.506875 
L 141.962776 -46.506875 
L 143.455418 -46.506875 
L 144.948059 -46.506875 
L 146.4407 -46.506875 
L 147.933342 -46.506875 
L 149.425983 -46.506875 
L 150.918624 -46.506875 
L 152.411265 -46.506875 
L 153.903907 -46.506875 
L 155.396548 -46.506875 
L 156.889189 -46.506875 
L 158.381831 -46.506875 
L 159.874472 -46.506875 
L 161.367113 -46.506875 
L 162.859754 -46.506875 
L 164.352396 -46.506875 
L 165.845037 -46.506875 
L 167.337678 -46.506875 
L 168.83032 -46.506875 
L 170.322961 -46.506875 
L 171.815602 -46.506875 
L 173.308243 -46.506875 
L 174.800885 -46.506875 
L 176.293526 -46.506875 
L 177.786167 -46.506875 
L 179.278809 -46.506875 
L 180.77145 -46.506875 
L 182.264091 -46.506875 
L 183.756732 -46.506875 
L 185.249374 -46.506875 
L 186.742015 -46.506875 
L 188.234656 -46.506875 
L 189.727298 -46.506875 
L 191.219939 -46.506875 
L 192.71258 -46.506875 
L 194.205221 -46.506875 
L 195.697863 -46.506875 
L 197.190504 -46.506875 
L 198.683145 -46.506875 
L 200.175787 -46.506875 
L 201.668428 -46.506875 
L 203.161069 -46.506875 
L 204.65371 -46.506875 
L 206.146352 -46.506875 
L 207.638993 -46.506875 
L 209.131634 -46.506875 
L 210.624276 -46.506875 
L 212.116917 -46.506875 
L 213.609558 -46.506875 
L 215.102199 -46.506875 
L 216.594841 -46.506875 
L 218.087482 -46.506875 
L 219.580123 -46.506875 
L 221.072764 -46.506875 
L 222.565406 -46.506875 
L 224.058047 -46.506875 
L 225.550688 -46.506875 
L 227.04333 -46.506875 
L 228.535971 -46.506875 
L 230.028612 -46.506875 
L 231.521253 -46.506875 
L 233.013895 -46.506875 
L 234.506536 -46.506875 
L 235.999177 -46.506875 
L 237.491819 -46.506875 
L 238.98446 -46.506875 
L 240.477101 -46.506875 
L 241.969742 -46.506875 
L 243.462384 -46.506875 
L 244.955025 -46.506875 
L 246.447666 -46.506875 
L 247.940308 -46.506875 
L 249.432949 -46.506875 
L 250.92559 -46.506875 
L 250.92559 -46.548123 
L 250.92559 -46.548123 
L 249.432949 -46.553517 
L 247.940308 -46.569672 
L 246.447666 -46.597563 
L 244.955025 -46.639219 
L 243.462384 -46.697313 
L 241.969742 -46.774706 
L 240.477101 -46.873902 
L 238.98446 -46.996447 
L 237.491819 -47.142302 
L 235.999177 -47.309281 
L 234.506536 -47.492672 
L 233.013895 -47.68514 
L 231.521253 -47.877017 
L 230.028612 -48.057 
L 228.535971 -48.213223 
L 227.04333 -48.334574 
L 225.550688 -48.412081 
L 224.058047 -48.440132 
L 222.565406 -48.417337 
L 221.072764 -48.346863 
L 219.580123 -48.236208 
L 218.087482 -48.096428 
L 216.594841 -47.940967 
L 215.102199 -47.784269 
L 213.609558 -47.640368 
L 212.116917 -47.52164 
L 210.624276 -47.437825 
L 209.131634 -47.395388 
L 207.638993 -47.397224 
L 206.146352 -47.442684 
L 204.65371 -47.527879 
L 203.161069 -47.646213 
L 201.668428 -47.789118 
L 200.175787 -47.946905 
L 198.683145 -48.109704 
L 197.190504 -48.268362 
L 195.697863 -48.415241 
L 194.205221 -48.544786 
L 192.71258 -48.653838 
L 191.219939 -48.741631 
L 189.727298 -48.809543 
L 188.234656 -48.860648 
L 186.742015 -48.899175 
L 185.249374 -48.929959 
L 183.756732 -48.957935 
L 182.264091 -48.98771 
L 180.77145 -49.023186 
L 179.278809 -49.067231 
L 177.786167 -49.121377 
L 176.293526 -49.18559 
L 174.800885 -49.258146 
L 173.308243 -49.335683 
L 171.815602 -49.413489 
L 170.322961 -49.486012 
L 168.83032 -49.547572 
L 167.337678 -49.593141 
L 165.845037 -49.619099 
L 164.352396 -49.623805 
L 162.859754 -49.607906 
L 161.367113 -49.574351 
L 159.874472 -49.528123 
L 158.381831 -49.475767 
L 156.889189 -49.424803 
L 155.396548 -49.383125 
L 153.903907 -49.358431 
L 152.411265 -49.357737 
L 150.918624 -49.386969 
L 149.425983 -49.45063 
L 147.933342 -49.551538 
L 146.4407 -49.690652 
L 144.948059 -49.867011 
L 143.455418 -50.077831 
L 141.962776 -50.318779 
L 140.470135 -50.584437 
L 138.977494 -50.868925 
L 137.484853 -51.166607 
L 135.992211 -51.472793 
L 134.49957 -51.784331 
L 133.006929 -52.100005 
L 131.514287 -52.420685 
L 130.021646 -52.749226 
L 128.529005 -53.090146 
L 127.036364 -53.449166 
L 125.543722 -53.832698 
L 124.051081 -54.247374 
L 122.55844 -54.699714 
L 121.065798 -55.195944 
L 119.573157 -55.741994 
L 118.080516 -56.34357 
L 116.587875 -57.006204 
L 115.095233 -57.735077 
L 113.602592 -58.534455 
L 112.109951 -59.406588 
L 110.61731 -60.350029 
L 109.124668 -61.357497 
L 107.632027 -62.413556 
L 106.139386 -63.492588 
L 104.646744 -64.557595 
L 103.154103 -65.560395 
L 101.661462 -66.443609 
L 100.168821 -67.144599 
L 98.676179 -67.601111 
L 97.183538 -67.758036 
L 95.690897 -67.574332 
L 94.198255 -67.029029 
L 92.705614 -66.12524 
L 91.212973 -64.891385 
L 89.720332 -63.379292 
L 88.22769 -61.659366 
L 86.735049 -59.813534 
L 85.242408 -57.927064 
L 83.749766 -56.080481 
L 82.257125 -54.342736 
L 80.764484 -52.766454 
L 79.271843 -51.385665 
L 77.779201 -50.215981 
L 76.28656 -49.256764 
L 74.793919 -48.494639 
L 73.301277 -47.907595 
L 71.808636 -47.469005 
L 70.315995 -47.151087 
L 68.823354 -46.927511 
L 67.330712 -46.775084 
L 65.838071 -46.674602 
L 64.34543 -46.611054 
L 62.852788 -46.573373 
L 61.360147 -46.553962 
z
" id="m597628d445" style="stroke:#ffffff;stroke-opacity:0.25;"/>
    </defs>
    <g clip-path="url(#paadcf56b16)">
     <use style="fill:#dd8452;fill-opacity:0.25;stroke:#ffffff;stroke-opacity:0.25;" x="0" xlink:href="#m597628d445" y="180"/>
    </g>
   </g>
   <g id="line2d_11">
    <path clip-path="url(#paadcf56b16)" d="M 81.952855 132.431721 
L 83.121202 128.783252 
L 84.289548 118.112698 
L 85.457895 96.639695 
L 86.626242 68.48255 
L 87.794588 48.246554 
L 88.962935 48.185387 
L 90.131282 63.9493 
L 91.299628 81.485498 
L 92.467975 93.925762 
L 93.636322 102.855514 
L 94.804668 109.398892 
L 95.973015 113.120563 
L 97.141362 115.134913 
L 98.309708 116.66491 
L 99.478055 117.607369 
L 100.646402 118.394409 
L 101.814748 120.158786 
L 102.983095 122.661433 
L 104.151442 124.61596 
L 105.319788 125.609371 
L 106.488135 125.945231 
L 107.656482 125.689084 
L 108.824828 125.120952 
L 109.993175 124.87241 
L 113.498215 125.140627 
L 114.666562 126.334252 
L 115.834908 128.193339 
L 117.003255 129.778859 
L 118.171602 130.747277 
L 119.339948 131.320064 
L 120.508295 131.615427 
L 121.676642 131.552032 
L 122.844988 130.970378 
L 124.013335 129.734865 
L 125.181682 128.230983 
L 126.350028 127.556241 
L 127.518375 128.451278 
L 128.686722 130.300529 
L 129.855068 131.801406 
L 131.023415 132.15079 
L 132.191762 131.306205 
L 133.360109 129.840384 
L 134.528455 128.776188 
L 135.696802 128.876793 
L 139.201842 131.90624 
L 140.370189 132.492404 
L 141.538535 132.9387 
L 142.706882 133.194275 
L 143.875229 133.187642 
L 145.043575 132.926338 
L 146.211922 132.548687 
L 147.380269 132.315602 
L 148.548615 132.41172 
L 150.885309 133.009416 
L 152.053655 132.945155 
L 153.222002 132.42741 
L 154.390349 131.601937 
L 155.558695 130.944193 
L 156.727042 130.943673 
L 157.895389 131.598084 
L 159.063735 132.408442 
L 160.232082 132.87555 
L 161.400429 132.817911 
L 164.905469 131.371401 
L 167.242162 131.227713 
L 168.410509 131.261331 
L 169.578855 131.56544 
L 171.915549 132.79853 
L 173.083895 133.220702 
L 174.252242 133.408111 
L 175.420589 133.439196 
L 176.588935 133.326439 
L 177.757282 132.960271 
L 178.925629 132.227496 
L 180.093975 131.290266 
L 181.262322 130.680294 
L 182.430669 130.85144 
L 184.767362 132.554654 
L 185.935709 133.135956 
L 187.104056 133.389679 
L 189.440749 133.41878 
L 190.609096 133.264923 
L 194.114136 132.364557 
L 195.282482 132.466016 
L 197.619176 133.154568 
L 198.787522 133.369456 
L 201.124216 133.486337 
L 217.481069 133.475291 
L 218.649416 133.408966 
L 219.817762 133.198515 
L 220.986109 132.727988 
L 223.322802 131.39286 
L 224.491149 131.282036 
L 225.659496 131.778556 
L 226.827842 132.516023 
L 227.996189 133.082902 
L 229.164536 133.347075 
L 230.332882 133.291271 
L 230.332882 133.291271 
" style="fill:none;stroke:#4c72b0;stroke-linecap:round;stroke-width:1.5;"/>
   </g>
   <g id="line2d_12">
    <path clip-path="url(#paadcf56b16)" d="M 61.360147 133.446038 
L 65.838071 133.325398 
L 68.823354 133.072489 
L 71.808636 132.530995 
L 73.301277 132.092405 
L 74.793919 131.505361 
L 76.28656 130.743236 
L 77.779201 129.784019 
L 79.271843 128.614335 
L 80.764484 127.233546 
L 83.749766 123.919519 
L 89.720332 116.620708 
L 91.212973 115.108615 
L 92.705614 113.87476 
L 94.198255 112.970971 
L 95.690897 112.425668 
L 97.183538 112.241964 
L 98.676179 112.398889 
L 100.168821 112.855401 
L 101.661462 113.556391 
L 104.646744 115.442405 
L 110.61731 119.649971 
L 113.602592 121.465545 
L 116.587875 122.993796 
L 119.573157 124.258006 
L 122.55844 125.300286 
L 127.036364 126.550834 
L 133.006929 127.899995 
L 141.962776 129.681221 
L 146.4407 130.309348 
L 149.425983 130.54937 
L 153.903907 130.641569 
L 168.83032 130.452428 
L 186.742015 131.100825 
L 192.71258 131.346162 
L 198.683145 131.890296 
L 204.65371 132.472121 
L 207.638993 132.602776 
L 210.624276 132.562175 
L 215.102199 132.215731 
L 221.072764 131.653137 
L 224.058047 131.559868 
L 227.04333 131.665426 
L 231.521253 132.122983 
L 238.98446 133.003553 
L 243.462384 133.302687 
L 249.432949 133.446483 
L 250.92559 133.451877 
L 250.92559 133.451877 
" style="fill:none;stroke:#dd8452;stroke-linecap:round;stroke-width:1.5;"/>
   </g>
  </g>
  <g id="text_13">
   <!-- Label Strength of BMN Albums -->
   <g style="fill:#262626;" transform="translate(40.639875 14.08275)scale(0.144 -0.144)">
    <defs>
     <path d="M 7.328125 0 
L 7.328125 71.578125 
L 16.796875 71.578125 
L 16.796875 8.453125 
L 52.046875 8.453125 
L 52.046875 0 
z
" id="ArialMT-76"/>
     <path id="ArialMT-32"/>
     <path d="M 4.5 23 
L 13.421875 23.78125 
Q 14.0625 18.40625 16.375 14.96875 
Q 18.703125 11.53125 23.578125 9.40625 
Q 28.46875 7.28125 34.578125 7.28125 
Q 39.984375 7.28125 44.140625 8.890625 
Q 48.296875 10.5 50.3125 13.296875 
Q 52.34375 16.109375 52.34375 19.4375 
Q 52.34375 22.796875 50.390625 25.3125 
Q 48.4375 27.828125 43.953125 29.546875 
Q 41.0625 30.671875 31.203125 33.03125 
Q 21.34375 35.40625 17.390625 37.5 
Q 12.25 40.1875 9.734375 44.15625 
Q 7.234375 48.140625 7.234375 53.078125 
Q 7.234375 58.5 10.296875 63.203125 
Q 13.375 67.921875 19.28125 70.359375 
Q 25.203125 72.796875 32.421875 72.796875 
Q 40.375 72.796875 46.453125 70.234375 
Q 52.546875 67.671875 55.8125 62.6875 
Q 59.078125 57.71875 59.328125 51.421875 
L 50.25 50.734375 
Q 49.515625 57.515625 45.28125 60.984375 
Q 41.0625 64.453125 32.8125 64.453125 
Q 24.21875 64.453125 20.28125 61.296875 
Q 16.359375 58.15625 16.359375 53.71875 
Q 16.359375 49.859375 19.140625 47.359375 
Q 21.875 44.875 33.421875 42.265625 
Q 44.96875 39.65625 49.265625 37.703125 
Q 55.515625 34.8125 58.484375 30.390625 
Q 61.46875 25.984375 61.46875 20.21875 
Q 61.46875 14.5 58.203125 9.4375 
Q 54.9375 4.390625 48.796875 1.578125 
Q 42.671875 -1.21875 35.015625 -1.21875 
Q 25.296875 -1.21875 18.71875 1.609375 
Q 12.15625 4.4375 8.421875 10.125 
Q 4.6875 15.828125 4.5 23 
z
" id="ArialMT-83"/>
     <path d="M 3.328125 25.921875 
Q 3.328125 40.328125 11.328125 47.265625 
Q 18.015625 53.03125 27.640625 53.03125 
Q 38.328125 53.03125 45.109375 46.015625 
Q 51.90625 39.015625 51.90625 26.65625 
Q 51.90625 16.65625 48.90625 10.90625 
Q 45.90625 5.171875 40.15625 2 
Q 34.421875 -1.171875 27.640625 -1.171875 
Q 16.75 -1.171875 10.03125 5.8125 
Q 3.328125 12.796875 3.328125 25.921875 
z
M 12.359375 25.921875 
Q 12.359375 15.96875 16.703125 11.015625 
Q 21.046875 6.0625 27.640625 6.0625 
Q 34.1875 6.0625 38.53125 11.03125 
Q 42.875 16.015625 42.875 26.21875 
Q 42.875 35.84375 38.5 40.796875 
Q 34.125 45.75 27.640625 45.75 
Q 21.046875 45.75 16.703125 40.8125 
Q 12.359375 35.890625 12.359375 25.921875 
z
" id="ArialMT-111"/>
     <path d="M 8.6875 0 
L 8.6875 45.015625 
L 0.921875 45.015625 
L 0.921875 51.859375 
L 8.6875 51.859375 
L 8.6875 57.375 
Q 8.6875 62.59375 9.625 65.140625 
Q 10.890625 68.5625 14.078125 70.671875 
Q 17.28125 72.796875 23.046875 72.796875 
Q 26.765625 72.796875 31.25 71.921875 
L 29.9375 64.265625 
Q 27.203125 64.75 24.75 64.75 
Q 20.75 64.75 19.09375 63.03125 
Q 17.4375 61.328125 17.4375 56.640625 
L 17.4375 51.859375 
L 27.546875 51.859375 
L 27.546875 45.015625 
L 17.4375 45.015625 
L 17.4375 0 
z
" id="ArialMT-102"/>
     <path d="M 7.328125 0 
L 7.328125 71.578125 
L 34.1875 71.578125 
Q 42.390625 71.578125 47.34375 69.40625 
Q 52.296875 67.234375 55.09375 62.71875 
Q 57.90625 58.203125 57.90625 53.265625 
Q 57.90625 48.6875 55.421875 44.625 
Q 52.9375 40.578125 47.90625 38.09375 
Q 54.390625 36.1875 57.875 31.59375 
Q 61.375 27 61.375 20.75 
Q 61.375 15.71875 59.25 11.390625 
Q 57.125 7.078125 54 4.734375 
Q 50.875 2.390625 46.15625 1.1875 
Q 41.453125 0 34.625 0 
z
M 16.796875 41.5 
L 32.28125 41.5 
Q 38.578125 41.5 41.3125 42.328125 
Q 44.921875 43.40625 46.75 45.890625 
Q 48.578125 48.390625 48.578125 52.15625 
Q 48.578125 55.71875 46.875 58.421875 
Q 45.171875 61.140625 41.984375 62.140625 
Q 38.8125 63.140625 31.109375 63.140625 
L 16.796875 63.140625 
z
M 16.796875 8.453125 
L 34.625 8.453125 
Q 39.203125 8.453125 41.0625 8.796875 
Q 44.34375 9.375 46.53125 10.734375 
Q 48.734375 12.109375 50.140625 14.71875 
Q 51.5625 17.328125 51.5625 20.75 
Q 51.5625 24.75 49.515625 27.703125 
Q 47.46875 30.671875 43.828125 31.859375 
Q 40.1875 33.0625 33.34375 33.0625 
L 16.796875 33.0625 
z
" id="ArialMT-66"/>
     <path d="M 7.421875 0 
L 7.421875 71.578125 
L 21.6875 71.578125 
L 38.625 20.90625 
Q 40.96875 13.8125 42.046875 10.296875 
Q 43.265625 14.203125 45.84375 21.78125 
L 62.984375 71.578125 
L 75.734375 71.578125 
L 75.734375 0 
L 66.609375 0 
L 66.609375 59.90625 
L 45.796875 0 
L 37.25 0 
L 16.546875 60.9375 
L 16.546875 0 
z
" id="ArialMT-77"/>
     <path d="M 7.625 0 
L 7.625 71.578125 
L 17.328125 71.578125 
L 54.9375 15.375 
L 54.9375 71.578125 
L 64.015625 71.578125 
L 64.015625 0 
L 54.296875 0 
L 16.703125 56.25 
L 16.703125 0 
z
" id="ArialMT-78"/>
     <path d="M -0.140625 0 
L 27.34375 71.578125 
L 37.546875 71.578125 
L 66.84375 0 
L 56.0625 0 
L 47.703125 21.6875 
L 17.78125 21.6875 
L 9.90625 0 
z
M 20.515625 29.390625 
L 44.78125 29.390625 
L 37.3125 49.21875 
Q 33.890625 58.25 32.234375 64.0625 
Q 30.859375 57.171875 28.375 50.390625 
z
" id="ArialMT-65"/>
     <path d="M 40.578125 0 
L 40.578125 7.625 
Q 34.515625 -1.171875 24.125 -1.171875 
Q 19.53125 -1.171875 15.546875 0.578125 
Q 11.578125 2.34375 9.640625 5 
Q 7.71875 7.671875 6.9375 11.53125 
Q 6.390625 14.109375 6.390625 19.734375 
L 6.390625 51.859375 
L 15.1875 51.859375 
L 15.1875 23.09375 
Q 15.1875 16.21875 15.71875 13.8125 
Q 16.546875 10.359375 19.234375 8.375 
Q 21.921875 6.390625 25.875 6.390625 
Q 29.828125 6.390625 33.296875 8.421875 
Q 36.765625 10.453125 38.203125 13.9375 
Q 39.65625 17.4375 39.65625 24.078125 
L 39.65625 51.859375 
L 48.4375 51.859375 
L 48.4375 0 
z
" id="ArialMT-117"/>
     <path d="M 6.59375 0 
L 6.59375 51.859375 
L 14.453125 51.859375 
L 14.453125 44.578125 
Q 16.890625 48.390625 20.9375 50.703125 
Q 25 53.03125 30.171875 53.03125 
Q 35.9375 53.03125 39.625 50.640625 
Q 43.3125 48.25 44.828125 43.953125 
Q 50.984375 53.03125 60.84375 53.03125 
Q 68.5625 53.03125 72.703125 48.75 
Q 76.859375 44.484375 76.859375 35.59375 
L 76.859375 0 
L 68.109375 0 
L 68.109375 32.671875 
Q 68.109375 37.9375 67.25 40.25 
Q 66.40625 42.578125 64.15625 43.984375 
Q 61.921875 45.40625 58.890625 45.40625 
Q 53.421875 45.40625 49.796875 41.765625 
Q 46.1875 38.140625 46.1875 30.125 
L 46.1875 0 
L 37.40625 0 
L 37.40625 33.6875 
Q 37.40625 39.546875 35.25 42.46875 
Q 33.109375 45.40625 28.21875 45.40625 
Q 24.515625 45.40625 21.359375 43.453125 
Q 18.21875 41.5 16.796875 37.734375 
Q 15.375 33.984375 15.375 26.90625 
L 15.375 0 
z
" id="ArialMT-109"/>
    </defs>
    <use xlink:href="#ArialMT-76"/>
    <use x="55.615234" xlink:href="#ArialMT-97"/>
    <use x="111.230469" xlink:href="#ArialMT-98"/>
    <use x="166.845703" xlink:href="#ArialMT-101"/>
    <use x="222.460938" xlink:href="#ArialMT-108"/>
    <use x="244.677734" xlink:href="#ArialMT-32"/>
    <use x="272.460938" xlink:href="#ArialMT-83"/>
    <use x="339.160156" xlink:href="#ArialMT-116"/>
    <use x="366.943359" xlink:href="#ArialMT-114"/>
    <use x="400.244141" xlink:href="#ArialMT-101"/>
    <use x="455.859375" xlink:href="#ArialMT-110"/>
    <use x="511.474609" xlink:href="#ArialMT-103"/>
    <use x="567.089844" xlink:href="#ArialMT-116"/>
    <use x="594.873047" xlink:href="#ArialMT-104"/>
    <use x="650.488281" xlink:href="#ArialMT-32"/>
    <use x="678.271484" xlink:href="#ArialMT-111"/>
    <use x="733.886719" xlink:href="#ArialMT-102"/>
    <use x="761.669922" xlink:href="#ArialMT-32"/>
    <use x="789.453125" xlink:href="#ArialMT-66"/>
    <use x="856.152344" xlink:href="#ArialMT-77"/>
    <use x="939.453125" xlink:href="#ArialMT-78"/>
    <use x="1011.669922" xlink:href="#ArialMT-32"/>
    <use x="1033.953125" xlink:href="#ArialMT-65"/>
    <use x="1100.652344" xlink:href="#ArialMT-108"/>
    <use x="1122.869141" xlink:href="#ArialMT-98"/>
    <use x="1178.484375" xlink:href="#ArialMT-117"/>
    <use x="1234.099609" xlink:href="#ArialMT-109"/>
    <use x="1317.400391" xlink:href="#ArialMT-115"/>
   </g>
  </g>
  <g id="legend_1">
   <g id="text_14">
    <!-- best_new_music -->
    <g style="fill:#262626;" transform="translate(178.90125 77.542344)scale(0.12 -0.12)">
     <defs>
      <path d="M 16.15625 0 
L 0.296875 51.859375 
L 9.375 51.859375 
L 17.625 21.921875 
L 20.703125 10.796875 
Q 20.90625 11.625 23.390625 21.484375 
L 31.640625 51.859375 
L 40.671875 51.859375 
L 48.4375 21.78125 
L 51.03125 11.859375 
L 54 21.875 
L 62.890625 51.859375 
L 71.4375 51.859375 
L 55.21875 0 
L 46.09375 0 
L 37.84375 31.0625 
L 35.84375 39.890625 
L 25.34375 0 
z
" id="ArialMT-119"/>
      <path d="M 6.640625 61.46875 
L 6.640625 71.578125 
L 15.4375 71.578125 
L 15.4375 61.46875 
z
M 6.640625 0 
L 6.640625 51.859375 
L 15.4375 51.859375 
L 15.4375 0 
z
" id="ArialMT-105"/>
      <path d="M 40.4375 19 
L 49.078125 17.875 
Q 47.65625 8.9375 41.8125 3.875 
Q 35.984375 -1.171875 27.484375 -1.171875 
Q 16.84375 -1.171875 10.375 5.78125 
Q 3.90625 12.75 3.90625 25.734375 
Q 3.90625 34.125 6.6875 40.421875 
Q 9.46875 46.734375 15.15625 49.875 
Q 20.84375 53.03125 27.546875 53.03125 
Q 35.984375 53.03125 41.359375 48.75 
Q 46.734375 44.484375 48.25 36.625 
L 39.703125 35.296875 
Q 38.484375 40.53125 35.375 43.15625 
Q 32.28125 45.796875 27.875 45.796875 
Q 21.234375 45.796875 17.078125 41.03125 
Q 12.9375 36.28125 12.9375 25.984375 
Q 12.9375 15.53125 16.9375 10.796875 
Q 20.953125 6.0625 27.390625 6.0625 
Q 32.5625 6.0625 36.03125 9.234375 
Q 39.5 12.40625 40.4375 19 
z
" id="ArialMT-99"/>
     </defs>
     <use xlink:href="#ArialMT-98"/>
     <use x="55.615234" xlink:href="#ArialMT-101"/>
     <use x="111.230469" xlink:href="#ArialMT-115"/>
     <use x="161.230469" xlink:href="#ArialMT-116"/>
     <use x="189.013672" xlink:href="#ArialMT-95"/>
     <use x="244.628906" xlink:href="#ArialMT-110"/>
     <use x="300.244141" xlink:href="#ArialMT-101"/>
     <use x="355.859375" xlink:href="#ArialMT-119"/>
     <use x="428.076172" xlink:href="#ArialMT-95"/>
     <use x="483.691406" xlink:href="#ArialMT-109"/>
     <use x="566.992188" xlink:href="#ArialMT-117"/>
     <use x="622.607422" xlink:href="#ArialMT-115"/>
     <use x="672.607422" xlink:href="#ArialMT-105"/>
     <use x="694.824219" xlink:href="#ArialMT-99"/>
    </g>
   </g>
   <g id="patch_5">
    <path d="M 205.129609 93.300938 
L 227.129609 93.300938 
L 227.129609 85.600938 
L 205.129609 85.600938 
z
" style="fill:none;opacity:0;"/>
   </g>
   <g id="text_15">
    <!-- 0 -->
    <g style="fill:#262626;" transform="translate(235.929609 93.300938)scale(0.11 -0.11)">
     <use xlink:href="#ArialMT-48"/>
    </g>
   </g>
   <g id="patch_6">
    <path d="M 205.129609 108.860781 
L 227.129609 108.860781 
L 227.129609 101.160781 
L 205.129609 101.160781 
z
" style="fill:none;opacity:0;"/>
   </g>
   <g id="text_16">
    <!-- 1 -->
    <g style="fill:#262626;" transform="translate(235.929609 108.860781)scale(0.11 -0.11)">
     <use xlink:href="#ArialMT-49"/>
    </g>
   </g>
  </g>
 </g>
 <defs>
  <clipPath id="paadcf56b16">
   <rect height="89.573125" width="208.521987" x="51.881875" y="43.92"/>
  </clipPath>
 </defs>
</svg>
