<?xml version="1.0" encoding="utf-8" standalone="no"?>
<!DOCTYPE svg PUBLIC "-//W3C//DTD SVG 1.1//EN"
  "http://www.w3.org/Graphics/SVG/1.1/DTD/svg11.dtd">
<!-- Created with matplotlib (https://matplotlib.org/) -->
<svg height="288pt" version="1.1" viewBox="0 0 432 288" width="432pt" xmlns="http://www.w3.org/2000/svg" xmlns:xlink="http://www.w3.org/1999/xlink">
 <metadata>
  <rdf:RDF xmlns:cc="http://creativecommons.org/ns#" xmlns:dc="http://purl.org/dc/elements/1.1/" xmlns:rdf="http://www.w3.org/1999/02/22-rdf-syntax-ns#">
   <cc:Work>
    <dc:type rdf:resource="http://purl.org/dc/dcmitype/StillImage"/>
    <dc:date>2020-08-18T13:53:11.148288</dc:date>
    <dc:format>image/svg+xml</dc:format>
    <dc:creator>
     <cc:Agent>
      <dc:title>Matplotlib v3.3.0, https://matplotlib.org/</dc:title>
     </cc:Agent>
    </dc:creator>
   </cc:Work>
  </rdf:RDF>
 </metadata>
 <defs>
  <style type="text/css">*{stroke-linecap:butt;stroke-linejoin:round;}</style>
 </defs>
 <g id="figure_1">
  <g id="patch_1">
   <path d="M 0 288 
L 432 288 
L 432 0 
L 0 0 
z
" style="fill:#ffffff;"/>
  </g>
  <g id="axes_1">
   <g id="patch_2">
    <path d="M 54 252 
L 388.8 252 
L 388.8 34.56 
L 54 34.56 
z
" style="fill:#eaeaf2;"/>
   </g>
   <g id="matplotlib.axis_1">
    <g id="xtick_1">
     <g id="line2d_1">
      <path clip-path="url(#p1f4c3d417c)" d="M 118.221743 252 
L 118.221743 34.56 
" style="fill:none;stroke:#ffffff;stroke-linecap:round;"/>
     </g>
     <g id="text_1">
      <!-- 0.2 -->
      <g style="fill:#262626;" transform="translate(110.576743 269.373594)scale(0.11 -0.11)">
       <defs>
        <path d="M 4.15625 35.296875 
Q 4.15625 48 6.765625 55.734375 
Q 9.375 63.484375 14.515625 67.671875 
Q 19.671875 71.875 27.484375 71.875 
Q 33.25 71.875 37.59375 69.546875 
Q 41.9375 67.234375 44.765625 62.859375 
Q 47.609375 58.5 49.21875 52.21875 
Q 50.828125 45.953125 50.828125 35.296875 
Q 50.828125 22.703125 48.234375 14.96875 
Q 45.65625 7.234375 40.5 3 
Q 35.359375 -1.21875 27.484375 -1.21875 
Q 17.140625 -1.21875 11.234375 6.203125 
Q 4.15625 15.140625 4.15625 35.296875 
z
M 13.1875 35.296875 
Q 13.1875 17.671875 17.3125 11.828125 
Q 21.4375 6 27.484375 6 
Q 33.546875 6 37.671875 11.859375 
Q 41.796875 17.71875 41.796875 35.296875 
Q 41.796875 52.984375 37.671875 58.78125 
Q 33.546875 64.59375 27.390625 64.59375 
Q 21.34375 64.59375 17.71875 59.46875 
Q 13.1875 52.9375 13.1875 35.296875 
z
" id="ArialMT-48"/>
        <path d="M 9.078125 0 
L 9.078125 10.015625 
L 19.09375 10.015625 
L 19.09375 0 
z
" id="ArialMT-46"/>
        <path d="M 50.34375 8.453125 
L 50.34375 0 
L 3.03125 0 
Q 2.9375 3.171875 4.046875 6.109375 
Q 5.859375 10.9375 9.828125 15.625 
Q 13.8125 20.3125 21.34375 26.46875 
Q 33.015625 36.03125 37.109375 41.625 
Q 41.21875 47.21875 41.21875 52.203125 
Q 41.21875 57.421875 37.46875 61 
Q 33.734375 64.59375 27.734375 64.59375 
Q 21.390625 64.59375 17.578125 60.78125 
Q 13.765625 56.984375 13.71875 50.25 
L 4.6875 51.171875 
Q 5.609375 61.28125 11.65625 66.578125 
Q 17.71875 71.875 27.9375 71.875 
Q 38.234375 71.875 44.234375 66.15625 
Q 50.25 60.453125 50.25 52 
Q 50.25 47.703125 48.484375 43.546875 
Q 46.734375 39.40625 42.65625 34.8125 
Q 38.578125 30.21875 29.109375 22.21875 
Q 21.1875 15.578125 18.9375 13.203125 
Q 16.703125 10.84375 15.234375 8.453125 
z
" id="ArialMT-50"/>
       </defs>
       <use xlink:href="#ArialMT-48"/>
       <use x="55.615234" xlink:href="#ArialMT-46"/>
       <use x="83.398438" xlink:href="#ArialMT-50"/>
      </g>
     </g>
    </g>
    <g id="xtick_2">
     <g id="line2d_2">
      <path clip-path="url(#p1f4c3d417c)" d="M 189.899537 252 
L 189.899537 34.56 
" style="fill:none;stroke:#ffffff;stroke-linecap:round;"/>
     </g>
     <g id="text_2">
      <!-- 0.4 -->
      <g style="fill:#262626;" transform="translate(182.254537 269.373594)scale(0.11 -0.11)">
       <defs>
        <path d="M 32.328125 0 
L 32.328125 17.140625 
L 1.265625 17.140625 
L 1.265625 25.203125 
L 33.9375 71.578125 
L 41.109375 71.578125 
L 41.109375 25.203125 
L 50.78125 25.203125 
L 50.78125 17.140625 
L 41.109375 17.140625 
L 41.109375 0 
z
M 32.328125 25.203125 
L 32.328125 57.46875 
L 9.90625 25.203125 
z
" id="ArialMT-52"/>
       </defs>
       <use xlink:href="#ArialMT-48"/>
       <use x="55.615234" xlink:href="#ArialMT-46"/>
       <use x="83.398438" xlink:href="#ArialMT-52"/>
      </g>
     </g>
    </g>
    <g id="xtick_3">
     <g id="line2d_3">
      <path clip-path="url(#p1f4c3d417c)" d="M 261.577331 252 
L 261.577331 34.56 
" style="fill:none;stroke:#ffffff;stroke-linecap:round;"/>
     </g>
     <g id="text_3">
      <!-- 0.6 -->
      <g style="fill:#262626;" transform="translate(253.932331 269.373594)scale(0.11 -0.11)">
       <defs>
        <path d="M 49.75 54.046875 
L 41.015625 53.375 
Q 39.84375 58.546875 37.703125 60.890625 
Q 34.125 64.65625 28.90625 64.65625 
Q 24.703125 64.65625 21.53125 62.3125 
Q 17.390625 59.28125 14.984375 53.46875 
Q 12.59375 47.65625 12.5 36.921875 
Q 15.671875 41.75 20.265625 44.09375 
Q 24.859375 46.4375 29.890625 46.4375 
Q 38.671875 46.4375 44.84375 39.96875 
Q 51.03125 33.5 51.03125 23.25 
Q 51.03125 16.5 48.125 10.71875 
Q 45.21875 4.9375 40.140625 1.859375 
Q 35.0625 -1.21875 28.609375 -1.21875 
Q 17.625 -1.21875 10.6875 6.859375 
Q 3.765625 14.9375 3.765625 33.5 
Q 3.765625 54.25 11.421875 63.671875 
Q 18.109375 71.875 29.4375 71.875 
Q 37.890625 71.875 43.28125 67.140625 
Q 48.6875 62.40625 49.75 54.046875 
z
M 13.875 23.1875 
Q 13.875 18.65625 15.796875 14.5 
Q 17.71875 10.359375 21.1875 8.171875 
Q 24.65625 6 28.46875 6 
Q 34.03125 6 38.03125 10.484375 
Q 42.046875 14.984375 42.046875 22.703125 
Q 42.046875 30.125 38.078125 34.390625 
Q 34.125 38.671875 28.125 38.671875 
Q 22.171875 38.671875 18.015625 34.390625 
Q 13.875 30.125 13.875 23.1875 
z
" id="ArialMT-54"/>
       </defs>
       <use xlink:href="#ArialMT-48"/>
       <use x="55.615234" xlink:href="#ArialMT-46"/>
       <use x="83.398438" xlink:href="#ArialMT-54"/>
      </g>
     </g>
    </g>
    <g id="xtick_4">
     <g id="line2d_4">
      <path clip-path="url(#p1f4c3d417c)" d="M 333.255125 252 
L 333.255125 34.56 
" style="fill:none;stroke:#ffffff;stroke-linecap:round;"/>
     </g>
     <g id="text_4">
      <!-- 0.8 -->
      <g style="fill:#262626;" transform="translate(325.610125 269.373594)scale(0.11 -0.11)">
       <defs>
        <path d="M 17.671875 38.8125 
Q 12.203125 40.828125 9.5625 44.53125 
Q 6.9375 48.25 6.9375 53.421875 
Q 6.9375 61.234375 12.546875 66.546875 
Q 18.171875 71.875 27.484375 71.875 
Q 36.859375 71.875 42.578125 66.421875 
Q 48.296875 60.984375 48.296875 53.171875 
Q 48.296875 48.1875 45.671875 44.5 
Q 43.0625 40.828125 37.75 38.8125 
Q 44.34375 36.671875 47.78125 31.875 
Q 51.21875 27.09375 51.21875 20.453125 
Q 51.21875 11.28125 44.71875 5.03125 
Q 38.234375 -1.21875 27.640625 -1.21875 
Q 17.046875 -1.21875 10.546875 5.046875 
Q 4.046875 11.328125 4.046875 20.703125 
Q 4.046875 27.6875 7.59375 32.390625 
Q 11.140625 37.109375 17.671875 38.8125 
z
M 15.921875 53.71875 
Q 15.921875 48.640625 19.1875 45.40625 
Q 22.46875 42.1875 27.6875 42.1875 
Q 32.765625 42.1875 36.015625 45.375 
Q 39.265625 48.578125 39.265625 53.21875 
Q 39.265625 58.0625 35.90625 61.359375 
Q 32.5625 64.65625 27.59375 64.65625 
Q 22.5625 64.65625 19.234375 61.421875 
Q 15.921875 58.203125 15.921875 53.71875 
z
M 13.09375 20.65625 
Q 13.09375 16.890625 14.875 13.375 
Q 16.65625 9.859375 20.171875 7.921875 
Q 23.6875 6 27.734375 6 
Q 34.03125 6 38.125 10.046875 
Q 42.234375 14.109375 42.234375 20.359375 
Q 42.234375 26.703125 38.015625 30.859375 
Q 33.796875 35.015625 27.4375 35.015625 
Q 21.234375 35.015625 17.15625 30.90625 
Q 13.09375 26.8125 13.09375 20.65625 
z
" id="ArialMT-56"/>
       </defs>
       <use xlink:href="#ArialMT-48"/>
       <use x="55.615234" xlink:href="#ArialMT-46"/>
       <use x="83.398438" xlink:href="#ArialMT-56"/>
      </g>
     </g>
    </g>
    <g id="text_5">
     <!-- Threshold -->
     <g style="fill:#262626;" transform="translate(194.721563 284.149219)scale(0.12 -0.12)">
      <defs>
       <path d="M 25.921875 0 
L 25.921875 63.140625 
L 2.34375 63.140625 
L 2.34375 71.578125 
L 59.078125 71.578125 
L 59.078125 63.140625 
L 35.40625 63.140625 
L 35.40625 0 
z
" id="ArialMT-84"/>
       <path d="M 6.59375 0 
L 6.59375 71.578125 
L 15.375 71.578125 
L 15.375 45.90625 
Q 21.53125 53.03125 30.90625 53.03125 
Q 36.671875 53.03125 40.921875 50.75 
Q 45.171875 48.484375 47 44.484375 
Q 48.828125 40.484375 48.828125 32.859375 
L 48.828125 0 
L 40.046875 0 
L 40.046875 32.859375 
Q 40.046875 39.453125 37.1875 42.453125 
Q 34.328125 45.453125 29.109375 45.453125 
Q 25.203125 45.453125 21.75 43.421875 
Q 18.3125 41.40625 16.84375 37.9375 
Q 15.375 34.46875 15.375 28.375 
L 15.375 0 
z
" id="ArialMT-104"/>
       <path d="M 6.5 0 
L 6.5 51.859375 
L 14.40625 51.859375 
L 14.40625 44 
Q 17.4375 49.515625 20 51.265625 
Q 22.5625 53.03125 25.640625 53.03125 
Q 30.078125 53.03125 34.671875 50.203125 
L 31.640625 42.046875 
Q 28.421875 43.953125 25.203125 43.953125 
Q 22.3125 43.953125 20.015625 42.21875 
Q 17.71875 40.484375 16.75 37.40625 
Q 15.28125 32.71875 15.28125 27.15625 
L 15.28125 0 
z
" id="ArialMT-114"/>
       <path d="M 42.09375 16.703125 
L 51.171875 15.578125 
Q 49.03125 7.625 43.21875 3.21875 
Q 37.40625 -1.171875 28.375 -1.171875 
Q 17 -1.171875 10.328125 5.828125 
Q 3.65625 12.84375 3.65625 25.484375 
Q 3.65625 38.578125 10.390625 45.796875 
Q 17.140625 53.03125 27.875 53.03125 
Q 38.28125 53.03125 44.875 45.953125 
Q 51.46875 38.875 51.46875 26.03125 
Q 51.46875 25.25 51.421875 23.6875 
L 12.75 23.6875 
Q 13.234375 15.140625 17.578125 10.59375 
Q 21.921875 6.0625 28.421875 6.0625 
Q 33.25 6.0625 36.671875 8.59375 
Q 40.09375 11.140625 42.09375 16.703125 
z
M 13.234375 30.90625 
L 42.1875 30.90625 
Q 41.609375 37.453125 38.875 40.71875 
Q 34.671875 45.796875 27.984375 45.796875 
Q 21.921875 45.796875 17.796875 41.75 
Q 13.671875 37.703125 13.234375 30.90625 
z
" id="ArialMT-101"/>
       <path d="M 3.078125 15.484375 
L 11.765625 16.84375 
Q 12.5 11.625 15.84375 8.84375 
Q 19.1875 6.0625 25.203125 6.0625 
Q 31.25 6.0625 34.171875 8.515625 
Q 37.109375 10.984375 37.109375 14.3125 
Q 37.109375 17.28125 34.515625 19 
Q 32.71875 20.171875 25.53125 21.96875 
Q 15.875 24.421875 12.140625 26.203125 
Q 8.40625 27.984375 6.46875 31.125 
Q 4.546875 34.28125 4.546875 38.09375 
Q 4.546875 41.546875 6.125 44.5 
Q 7.71875 47.46875 10.453125 49.421875 
Q 12.5 50.921875 16.03125 51.96875 
Q 19.578125 53.03125 23.640625 53.03125 
Q 29.734375 53.03125 34.34375 51.265625 
Q 38.96875 49.515625 41.15625 46.5 
Q 43.359375 43.5 44.1875 38.484375 
L 35.59375 37.3125 
Q 35.015625 41.3125 32.203125 43.546875 
Q 29.390625 45.796875 24.265625 45.796875 
Q 18.21875 45.796875 15.625 43.796875 
Q 13.03125 41.796875 13.03125 39.109375 
Q 13.03125 37.40625 14.109375 36.03125 
Q 15.1875 34.625 17.484375 33.6875 
Q 18.796875 33.203125 25.25 31.453125 
Q 34.578125 28.953125 38.25 27.359375 
Q 41.9375 25.78125 44.03125 22.75 
Q 46.140625 19.734375 46.140625 15.234375 
Q 46.140625 10.84375 43.578125 6.953125 
Q 41.015625 3.078125 36.171875 0.953125 
Q 31.34375 -1.171875 25.25 -1.171875 
Q 15.140625 -1.171875 9.84375 3.03125 
Q 4.546875 7.234375 3.078125 15.484375 
z
" id="ArialMT-115"/>
       <path d="M 3.328125 25.921875 
Q 3.328125 40.328125 11.328125 47.265625 
Q 18.015625 53.03125 27.640625 53.03125 
Q 38.328125 53.03125 45.109375 46.015625 
Q 51.90625 39.015625 51.90625 26.65625 
Q 51.90625 16.65625 48.90625 10.90625 
Q 45.90625 5.171875 40.15625 2 
Q 34.421875 -1.171875 27.640625 -1.171875 
Q 16.75 -1.171875 10.03125 5.8125 
Q 3.328125 12.796875 3.328125 25.921875 
z
M 12.359375 25.921875 
Q 12.359375 15.96875 16.703125 11.015625 
Q 21.046875 6.0625 27.640625 6.0625 
Q 34.1875 6.0625 38.53125 11.03125 
Q 42.875 16.015625 42.875 26.21875 
Q 42.875 35.84375 38.5 40.796875 
Q 34.125 45.75 27.640625 45.75 
Q 21.046875 45.75 16.703125 40.8125 
Q 12.359375 35.890625 12.359375 25.921875 
z
" id="ArialMT-111"/>
       <path d="M 6.390625 0 
L 6.390625 71.578125 
L 15.1875 71.578125 
L 15.1875 0 
z
" id="ArialMT-108"/>
       <path d="M 40.234375 0 
L 40.234375 6.546875 
Q 35.296875 -1.171875 25.734375 -1.171875 
Q 19.53125 -1.171875 14.328125 2.25 
Q 9.125 5.671875 6.265625 11.796875 
Q 3.421875 17.921875 3.421875 25.875 
Q 3.421875 33.640625 6 39.96875 
Q 8.59375 46.296875 13.765625 49.65625 
Q 18.953125 53.03125 25.34375 53.03125 
Q 30.03125 53.03125 33.6875 51.046875 
Q 37.359375 49.078125 39.65625 45.90625 
L 39.65625 71.578125 
L 48.390625 71.578125 
L 48.390625 0 
z
M 12.453125 25.875 
Q 12.453125 15.921875 16.640625 10.984375 
Q 20.84375 6.0625 26.5625 6.0625 
Q 32.328125 6.0625 36.34375 10.765625 
Q 40.375 15.484375 40.375 25.140625 
Q 40.375 35.796875 36.265625 40.765625 
Q 32.171875 45.75 26.171875 45.75 
Q 20.3125 45.75 16.375 40.96875 
Q 12.453125 36.1875 12.453125 25.875 
z
" id="ArialMT-100"/>
      </defs>
      <use xlink:href="#ArialMT-84"/>
      <use x="61.083984" xlink:href="#ArialMT-104"/>
      <use x="116.699219" xlink:href="#ArialMT-114"/>
      <use x="150" xlink:href="#ArialMT-101"/>
      <use x="205.615234" xlink:href="#ArialMT-115"/>
      <use x="255.615234" xlink:href="#ArialMT-104"/>
      <use x="311.230469" xlink:href="#ArialMT-111"/>
      <use x="366.845703" xlink:href="#ArialMT-108"/>
      <use x="389.0625" xlink:href="#ArialMT-100"/>
     </g>
    </g>
   </g>
   <g id="matplotlib.axis_2">
    <g id="ytick_1">
     <g id="line2d_5">
      <path clip-path="url(#p1f4c3d417c)" d="M 54 242.116364 
L 388.8 242.116364 
" style="fill:none;stroke:#ffffff;stroke-linecap:round;"/>
     </g>
     <g id="text_6">
      <!-- 0.0 -->
      <g style="fill:#262626;" transform="translate(29.21 246.053161)scale(0.11 -0.11)">
       <use xlink:href="#ArialMT-48"/>
       <use x="55.615234" xlink:href="#ArialMT-46"/>
       <use x="83.398438" xlink:href="#ArialMT-48"/>
      </g>
     </g>
    </g>
    <g id="ytick_2">
     <g id="line2d_6">
      <path clip-path="url(#p1f4c3d417c)" d="M 54 202.581818 
L 388.8 202.581818 
" style="fill:none;stroke:#ffffff;stroke-linecap:round;"/>
     </g>
     <g id="text_7">
      <!-- 0.2 -->
      <g style="fill:#262626;" transform="translate(29.21 206.518615)scale(0.11 -0.11)">
       <use xlink:href="#ArialMT-48"/>
       <use x="55.615234" xlink:href="#ArialMT-46"/>
       <use x="83.398438" xlink:href="#ArialMT-50"/>
      </g>
     </g>
    </g>
    <g id="ytick_3">
     <g id="line2d_7">
      <path clip-path="url(#p1f4c3d417c)" d="M 54 163.047273 
L 388.8 163.047273 
" style="fill:none;stroke:#ffffff;stroke-linecap:round;"/>
     </g>
     <g id="text_8">
      <!-- 0.4 -->
      <g style="fill:#262626;" transform="translate(29.21 166.98407)scale(0.11 -0.11)">
       <use xlink:href="#ArialMT-48"/>
       <use x="55.615234" xlink:href="#ArialMT-46"/>
       <use x="83.398438" xlink:href="#ArialMT-52"/>
      </g>
     </g>
    </g>
    <g id="ytick_4">
     <g id="line2d_8">
      <path clip-path="url(#p1f4c3d417c)" d="M 54 123.512727 
L 388.8 123.512727 
" style="fill:none;stroke:#ffffff;stroke-linecap:round;"/>
     </g>
     <g id="text_9">
      <!-- 0.6 -->
      <g style="fill:#262626;" transform="translate(29.21 127.449524)scale(0.11 -0.11)">
       <use xlink:href="#ArialMT-48"/>
       <use x="55.615234" xlink:href="#ArialMT-46"/>
       <use x="83.398438" xlink:href="#ArialMT-54"/>
      </g>
     </g>
    </g>
    <g id="ytick_5">
     <g id="line2d_9">
      <path clip-path="url(#p1f4c3d417c)" d="M 54 83.978182 
L 388.8 83.978182 
" style="fill:none;stroke:#ffffff;stroke-linecap:round;"/>
     </g>
     <g id="text_10">
      <!-- 0.8 -->
      <g style="fill:#262626;" transform="translate(29.21 87.914979)scale(0.11 -0.11)">
       <use xlink:href="#ArialMT-48"/>
       <use x="55.615234" xlink:href="#ArialMT-46"/>
       <use x="83.398438" xlink:href="#ArialMT-56"/>
      </g>
     </g>
    </g>
    <g id="ytick_6">
     <g id="line2d_10">
      <path clip-path="url(#p1f4c3d417c)" d="M 54 44.443636 
L 388.8 44.443636 
" style="fill:none;stroke:#ffffff;stroke-linecap:round;"/>
     </g>
     <g id="text_11">
      <!-- 1.0 -->
      <g style="fill:#262626;" transform="translate(29.21 48.380433)scale(0.11 -0.11)">
       <defs>
        <path d="M 37.25 0 
L 28.46875 0 
L 28.46875 56 
Q 25.296875 52.984375 20.140625 49.953125 
Q 14.984375 46.921875 10.890625 45.40625 
L 10.890625 53.90625 
Q 18.265625 57.375 23.78125 62.296875 
Q 29.296875 67.234375 31.59375 71.875 
L 37.25 71.875 
z
" id="ArialMT-49"/>
       </defs>
       <use xlink:href="#ArialMT-49"/>
       <use x="55.615234" xlink:href="#ArialMT-46"/>
       <use x="83.398438" xlink:href="#ArialMT-48"/>
      </g>
     </g>
    </g>
   </g>
   <g id="line2d_11">
    <path clip-path="url(#p1f4c3d417c)" d="M 69.218182 219.664259 
L 71.089831 219.338604 
L 71.120546 219.320235 
L 72.046816 219.190816 
L 72.351166 219.097471 
L 73.437759 218.832014 
L 73.650868 218.774332 
L 74.231758 218.619107 
L 74.892439 218.481581 
L 78.209801 218.104792 
L 78.863721 218.001649 
L 79.369752 217.834766 
L 79.633819 217.750455 
L 80.649397 217.493971 
L 81.262124 217.407273 
L 81.30583 217.559664 
L 81.308463 217.538009 
L 81.801938 217.385348 
L 82.149236 217.252979 
L 83.073632 217.141584 
L 83.183033 217.29647 
L 84.633529 217.026444 
L 85.610167 216.750477 
L 87.296896 216.348969 
L 87.749494 216.276791 
L 87.975308 216.413362 
L 92.896075 215.797868 
L 93.196366 215.696643 
L 93.536893 215.671215 
L 93.553651 215.836174 
L 93.561181 215.810832 
L 96.185619 215.267115 
L 98.4819 215.107615 
L 101.688406 214.727974 
L 103.461589 214.589788 
L 104.317849 214.450201 
L 106.752649 214.223893 
L 106.770251 214.195344 
L 108.400652 214.022814 
L 116.258679 213.371541 
L 116.414453 213.549735 
L 119.131019 213.245187 
L 119.521222 213.214375 
L 119.679933 213.394685 
L 119.944994 213.363967 
L 121.516725 213.514201 
L 127.399183 213.11004 
L 129.397998 212.887647 
L 130.263241 212.823479 
L 130.488719 212.97649 
L 130.730783 212.88 
L 130.79866 212.847695 
L 132.391224 212.652353 
L 133.203875 212.487566 
L 140.12044 212.084453 
L 142.803815 211.844197 
L 145.644209 211.670219 
L 145.663499 211.635184 
L 146.73706 211.49423 
L 147.110344 211.652316 
L 147.154413 211.616975 
L 149.458705 211.474787 
L 154.719534 211.003378 
L 155.036092 211.362056 
L 162.29384 210.917415 
L 162.303303 210.879781 
L 162.99714 210.766331 
L 163.285619 210.967934 
L 165.429442 210.778004 
L 166.042617 210.981099 
L 169.906586 210.557228 
L 170.790019 210.478917 
L 171.320172 210.646079 
L 172.771931 210.488727 
L 173.233802 210.696543 
L 174.670896 210.498686 
L 174.827883 210.708087 
L 175.121509 210.66843 
L 176.455747 210.628673 
L 176.459549 210.839033 
L 181.278203 210.233666 
L 183.837798 209.984906 
L 184.54488 209.859065 
L 188.348919 209.647125 
L 192.760003 209.302166 
L 193.889564 209.126923 
L 194.479925 209.30322 
L 194.544843 209.259235 
L 195.091744 209.480464 
L 197.670544 209.21549 
L 197.937468 209.081383 
L 199.180449 208.900864 
L 199.207258 208.855426 
L 200.419617 208.672422 
L 200.869717 208.487393 
L 201.648915 208.347273 
L 202.692923 208.158619 
L 202.816746 208.063499 
L 202.900804 208.29298 
L 205.689759 208.054114 
L 207.608505 207.811851 
L 207.637194 208.044569 
L 207.806453 207.995964 
L 209.239638 207.849315 
L 209.446558 207.7014 
L 210.297809 207.552202 
L 210.417733 207.452016 
L 211.528325 207.198991 
L 213.072355 207.045396 
L 215.799148 206.629123 
L 215.991595 206.523506 
L 217.81415 206.310376 
L 218.256891 206.094677 
L 220.349649 205.876364 
L 221.259292 205.543887 
L 222.382819 205.318825 
L 222.515848 205.262126 
L 223.553864 205.090977 
L 223.672752 205.033573 
L 224.945212 204.860289 
L 224.982916 204.802167 
L 229.227817 204.150649 
L 229.361455 204.029739 
L 231.590052 203.287792 
L 232.029461 202.841487 
L 232.17739 203.10201 
L 232.527978 202.90855 
L 233.156565 202.843636 
L 233.172523 203.106323 
L 233.207833 203.041522 
L 234.197006 202.845822 
L 234.363029 202.648151 
L 234.38894 202.581818 
L 234.782977 202.381474 
L 235.150675 202.648713 
L 235.186435 202.581818 
L 236.56582 202.107132 
L 236.898122 201.969407 
L 237.163455 201.761032 
L 240.498072 200.978124 
L 240.530457 200.905442 
L 240.658691 201.182365 
L 240.70763 201.109787 
L 241.344763 200.963856 
L 241.41359 201.242859 
L 242.169237 201.450239 
L 243.48473 200.934545 
L 244.323153 200.709508 
L 244.942085 200.32893 
L 245.033577 200.616012 
L 245.311556 200.462591 
L 245.370429 200.385455 
L 245.674598 200.230321 
L 245.754063 200.07403 
L 245.790057 200.364928 
L 246.020742 200.656915 
L 246.082114 200.57913 
L 246.42123 200.422681 
L 246.614425 200.265049 
L 247.516484 200.10622 
L 248.64361 199.703824 
L 248.692443 199.622418 
L 249.812477 199.210655 
L 249.936759 199.127343 
L 249.984054 199.428284 
L 250.042328 199.345072 
L 250.965835 199.177669 
L 251.122117 199.008952 
L 251.457067 199.313214 
L 251.488106 199.22879 
L 252.357717 198.973506 
L 252.359875 198.887735 
L 252.436584 199.195393 
L 252.533801 199.109722 
L 253.155105 199.023709 
L 253.317859 199.559056 
L 253.361159 199.387107 
L 253.515753 199.126563 
L 254.374577 198.862822 
L 254.504328 199.179255 
L 254.640423 199.091088 
L 255.465602 198.913664 
L 255.487775 199.232817 
L 256.237142 198.785181 
L 256.992532 198.603499 
L 257.086395 198.512086 
L 258.002383 198.235526 
L 258.04109 198.142558 
L 259.40219 197.861275 
L 259.461148 197.671746 
L 259.80945 197.480587 
L 259.902843 197.384389 
L 260.405547 197.190744 
L 260.43588 197.093291 
L 261.297887 196.897112 
L 261.355542 196.699216 
L 262.100166 196.49958 
L 262.29052 196.196814 
L 262.291673 196.094997 
L 262.662811 195.890002 
L 263.04072 195.683173 
L 263.043027 195.579062 
L 263.161178 195.474484 
L 263.803971 195.263911 
L 264.360207 194.83701 
L 264.961046 194.620628 
L 265.041815 194.965071 
L 265.105921 194.856677 
L 265.29008 194.747784 
L 265.766444 194.528485 
L 266.241997 194.307146 
L 266.26981 194.195702 
L 266.416693 194.54559 
L 266.96714 194.322254 
L 267.241146 193.983288 
L 269.132036 193.055422 
L 269.794247 193.414387 
L 269.999661 193.17797 
L 270.076776 192.939246 
L 270.59439 192.698182 
L 270.626326 192.576761 
L 271.128538 192.454742 
L 271.365033 192.820202 
L 271.927784 192.32847 
L 272.278329 191.826828 
L 273.470587 191.443913 
L 273.507692 191.81796 
L 273.663589 191.560679 
L 274.117225 191.300753 
L 274.129487 191.169784 
L 274.557232 190.772798 
L 275.030329 191.153864 
L 275.143866 190.887044 
L 275.176442 191.27141 
L 275.537817 191.003099 
L 276.160039 190.731941 
L 276.408732 190.457891 
L 276.567833 190.848303 
L 276.614231 190.710855 
L 277.144234 190.153614 
L 277.760326 189.870438 
L 278.553505 189.002085 
L 279.138814 188.854545 
L 279.24825 188.556993 
L 280.053264 188.406967 
L 280.275809 188.104379 
L 280.391632 187.488858 
L 280.834096 187.332779 
L 280.937785 187.017931 
L 281.069224 186.538814 
L 281.495794 186.214747 
L 281.675318 185.886878 
L 281.931807 186.721352 
L 281.992346 186.557461 
L 282.384118 186.059919 
L 283.02202 186.910467 
L 283.366733 186.576896 
L 283.754874 186.239271 
L 284.012944 185.725064 
L 284.152286 186.159776 
L 284.442099 185.987071 
L 284.552155 185.462498 
L 284.93017 185.107301 
L 285.183199 184.747623 
L 285.345398 184.199514 
L 285.771862 183.828252 
L 285.949249 184.276434 
L 286.110465 183.902065 
L 286.214454 183.331337 
L 286.284285 183.138599 
L 287.028504 183.594833 
L 287.198136 183.401692 
L 287.233447 183.011561 
L 287.727799 182.814545 
L 287.962926 182.215537 
L 288.183806 182.680983 
L 288.185194 182.479507 
L 288.52399 182.072429 
L 288.584422 182.543761 
L 288.821002 182.132915 
L 288.842834 182.609349 
L 288.924585 182.402727 
L 289.069887 182.194666 
L 289.074693 182.676313 
L 289.264256 182.467751 
L 289.266008 182.257721 
L 289.439123 182.744696 
L 289.55204 182.534159 
L 289.59863 183.025584 
L 290.150893 182.387914 
L 290.362822 183.680265 
L 291.180183 184.19029 
L 291.379935 183.977326 
L 291.424154 184.492211 
L 291.4939 184.278788 
L 291.779377 184.063778 
L 291.907376 183.628927 
L 292.80104 183.187513 
L 292.914342 182.512755 
L 292.932735 183.041755 
L 292.999191 182.585581 
L 293.614385 180.931948 
L 293.661893 181.475726 
L 294.257007 180.74217 
L 294.410064 180.493692 
L 294.528493 181.046741 
L 294.778061 180.292795 
L 294.93682 181.420174 
L 294.957349 181.167273 
L 295.114272 181.739338 
L 295.537574 182.316211 
L 295.544089 182.06389 
L 295.568164 182.647026 
L 295.839243 182.138741 
L 296.042585 182.729707 
L 296.196688 182.215537 
L 296.316377 181.427368 
L 296.854178 180.066629 
L 298.001725 179.505093 
L 298.072561 179.220496 
L 298.547921 178.9333 
L 298.835727 179.550225 
L 299.08835 180.801212 
L 299.845043 179.937618 
L 299.964733 179.348246 
L 300.319421 179.049351 
L 300.372569 179.693397 
L 300.650826 180.343636 
L 300.719312 179.743901 
L 300.848635 180.403902 
L 301.177562 181.070374 
L 301.330703 180.465959 
L 301.34211 181.142687 
L 301.51875 180.837818 
L 301.698871 181.523216 
L 301.703272 181.21719 
L 301.779875 180.908057 
L 301.825161 181.604304 
L 302.673005 181.293986 
L 302.815188 180.663702 
L 303.15204 180.343636 
L 303.241054 180.020219 
L 303.609756 179.363117 
L 304.1771 179.029323 
L 304.340794 178.350968 
L 304.383753 179.074791 
L 304.580429 179.806482 
L 304.674527 179.121758 
L 304.713341 179.865836 
L 305.108147 179.52 
L 305.256376 179.1703 
L 305.635972 178.81667 
L 305.722444 178.459045 
L 306.072839 177.731532 
L 306.32997 178.497555 
L 306.331508 178.129816 
L 306.624354 177.757801 
L 306.64499 177.381435 
L 307.491894 176.225455 
L 307.768399 177.813187 
L 307.811229 177.423471 
L 308.028861 177.029002 
L 308.510502 176.629693 
L 309.079513 177.445657 
L 309.514158 177.043975 
L 309.541885 176.637273 
L 309.851651 177.468679 
L 309.993343 177.059517 
L 309.995564 176.645142 
L 310.518497 176.225455 
L 310.54191 175.800352 
L 311.003278 175.369728 
L 311.649639 174.933476 
L 311.847128 174.491483 
L 311.901707 174.043636 
L 312.323279 174.907636 
L 312.491865 173.53603 
L 312.658657 174.420224 
L 312.720285 173.953354 
L 312.967439 174.852727 
L 313.201627 174.382352 
L 313.711465 173.905352 
L 313.908035 172.930909 
L 314.000659 173.855278 
L 314.425286 174.793043 
L 314.719158 173.802995 
L 314.8792 173.29697 
L 315.004806 172.262092 
L 315.328371 171.732893 
L 315.350032 172.704566 
L 315.40773 172.170629 
L 315.734712 170.518368 
L 315.759449 171.518961 
L 316.363407 170.954182 
L 316.655698 173.011264 
L 316.854661 172.444829 
L 317.547419 173.50269 
L 317.706499 172.930909 
L 317.767829 174.010634 
L 318.438136 173.433467 
L 318.766977 171.641739 
L 319.132752 176.225455 
L 319.252143 175.626446 
L 319.539927 175.016447 
L 319.593566 174.395152 
L 319.894081 173.762243 
L 321.303715 174.98223 
L 321.685982 174.342857 
L 322.282292 173.691189 
L 322.305876 173.026867 
L 323.185057 172.349519 
L 323.655547 173.615914 
L 323.824432 172.930909 
L 323.870894 172.232066 
L 324.110871 171.518961 
L 324.713846 170.791153 
L 324.848723 170.048182 
L 325.710388 169.289569 
L 325.867268 167.723402 
L 325.948891 169.063399 
L 326.285273 168.260619 
L 326.483979 167.44 
L 327.268699 168.821982 
L 327.755531 167.989091 
L 327.788065 167.137053 
L 328.231191 165.372834 
L 328.525341 164.459221 
L 329.014885 163.523593 
L 329.071152 164.975787 
L 329.445814 164.023434 
L 329.705657 165.518182 
L 330.07438 163.554126 
L 330.327366 165.101015 
L 330.334074 164.087656 
L 330.37669 167.321278 
L 330.556064 169.004533 
L 331.767932 166.945045 
L 331.852951 164.766166 
L 332.047983 163.628663 
L 332.071182 162.457205 
L 332.626969 161.250248 
L 333.281725 154.621878 
L 333.637311 153.163636 
L 333.765588 151.655963 
L 334.796992 150.096301 
L 335.041284 148.481914 
L 335.714475 154.261818 
L 335.91192 152.604185 
L 335.994205 149.093904 
L 336.368761 153.365343 
L 337.306473 155.634545 
L 337.317282 158.000309 
L 337.369639 156.1717 
L 337.618225 154.261818 
L 337.655778 152.265124 
L 338.017837 154.7726 
L 339.246944 157.399481 
L 339.373127 160.154501 
L 340.244404 158.105455 
L 340.311822 161.01986 
L 340.546586 164.087656 
L 340.741233 161.978771 
L 341.877673 157.399481 
L 342.243021 154.907807 
L 342.411073 152.265124 
L 342.426048 149.457273 
L 342.530101 152.844809 
L 342.841617 149.869091 
L 342.900704 146.68815 
L 343.414644 150.33974 
L 343.854309 146.940606 
L 343.889022 150.882797 
L 344.250888 155.140364 
L 345.079229 159.752727 
L 345.255099 156.1717 
L 345.35678 161.250248 
L 346.649694 166.812468 
L 348.320431 158.885742 
L 348.824823 165.243636 
L 348.963075 160.721711 
L 348.986957 155.634545 
L 349.685419 149.869091 
L 349.902689 157.399481 
L 352.257255 150.882797 
L 353.392349 143.28 
L 353.997097 134.294876 
L 354.096963 123.512727 
L 354.987551 132.298182 
L 355.045783 143.28 
L 355.880083 157.399481 
L 358.361538 176.225455 
L 360.126181 202.581818 
L 361.228976 192.698182 
L 362.189588 242.116364 
L 366.845401 242.116364 
L 373.581818 44.443636 
L 373.581818 44.443636 
" style="fill:none;stroke:#4c72b0;stroke-linecap:round;stroke-width:1.5;"/>
   </g>
   <g id="line2d_12">
    <path clip-path="url(#p1f4c3d417c)" d="M 69.218182 45.816364 
L 76.434854 45.816364 
L 76.531032 47.189091 
L 81.262124 47.189091 
L 81.308463 48.561818 
L 83.073632 48.561818 
L 83.183033 49.934545 
L 87.749494 49.934545 
L 87.975308 51.307273 
L 93.536893 51.307273 
L 93.561181 52.68 
L 116.258679 52.68 
L 116.414453 54.052727 
L 119.521222 54.052727 
L 119.679933 55.425455 
L 119.944994 55.425455 
L 121.516725 56.798182 
L 130.263241 56.798182 
L 130.488719 58.170909 
L 146.73706 58.170909 
L 147.110344 59.543636 
L 154.719534 59.543636 
L 155.036092 62.289091 
L 162.99714 62.289091 
L 163.285619 63.661818 
L 165.429442 63.661818 
L 166.042617 65.034545 
L 170.790019 65.034545 
L 171.320172 66.407273 
L 172.771931 66.407273 
L 173.233802 67.78 
L 174.670896 67.78 
L 174.827883 69.152727 
L 176.455747 69.152727 
L 176.459549 70.525455 
L 193.889564 70.525455 
L 194.479925 71.898182 
L 194.544843 71.898182 
L 195.091744 73.270909 
L 202.816746 73.270909 
L 202.900804 74.643636 
L 207.608505 74.643636 
L 207.637194 76.016364 
L 232.029461 76.016364 
L 232.272321 77.389091 
L 233.156565 77.389091 
L 233.207833 78.761818 
L 234.782977 78.761818 
L 235.186435 80.134545 
L 240.530457 80.134545 
L 240.70763 81.507273 
L 241.344763 81.507273 
L 241.41359 82.88 
L 242.169237 84.252727 
L 244.942085 84.252727 
L 245.033577 85.625455 
L 245.754063 85.625455 
L 245.790057 86.998182 
L 246.082114 88.370909 
L 249.936759 88.370909 
L 250.042328 89.743636 
L 251.122117 89.743636 
L 251.488106 91.116364 
L 252.359875 91.116364 
L 252.533801 92.489091 
L 253.155105 92.489091 
L 253.399226 95.234545 
L 254.374577 95.234545 
L 254.504328 96.607273 
L 255.465602 96.607273 
L 255.487775 97.98 
L 264.961046 97.98 
L 265.105921 99.352727 
L 266.26981 99.352727 
L 266.416693 100.725455 
L 269.132036 100.725455 
L 269.794247 102.098182 
L 271.128538 102.098182 
L 271.365033 103.470909 
L 273.470587 103.470909 
L 273.607771 104.843636 
L 274.557232 104.843636 
L 275.143866 106.216364 
L 275.176442 107.589091 
L 276.408732 107.589091 
L 276.614231 108.961818 
L 281.675318 108.961818 
L 282.103085 111.707273 
L 282.384118 111.707273 
L 283.02202 114.452727 
L 284.012944 114.452727 
L 284.152286 115.825455 
L 285.771862 115.825455 
L 285.949249 117.198182 
L 286.284285 117.198182 
L 287.028504 118.570909 
L 287.962926 118.570909 
L 288.185194 119.943636 
L 288.52399 119.943636 
L 288.584422 121.316364 
L 288.821002 121.316364 
L 288.924585 122.689091 
L 289.069887 122.689091 
L 289.074693 124.061818 
L 289.266008 124.061818 
L 289.439123 125.434545 
L 289.55204 125.434545 
L 289.59863 126.807273 
L 290.150893 126.807273 
L 290.362822 130.925455 
L 291.180183 132.298182 
L 291.379935 132.298182 
L 291.4939 133.670909 
L 292.914342 133.670909 
L 292.999191 135.043636 
L 293.614385 135.043636 
L 293.661893 136.416364 
L 294.410064 136.416364 
L 294.628914 137.789091 
L 294.778061 137.789091 
L 294.93682 140.534545 
L 294.957349 140.534545 
L 295.114272 141.907273 
L 295.544089 143.28 
L 295.568164 144.652727 
L 295.839243 144.652727 
L 296.146296 146.025455 
L 298.547921 146.025455 
L 298.835727 147.398182 
L 299.08835 150.143636 
L 300.319421 150.143636 
L 300.372569 151.516364 
L 301.253823 155.634545 
L 301.330703 155.634545 
L 301.34211 157.007273 
L 301.51875 157.007273 
L 301.825161 159.752727 
L 304.340794 159.752727 
L 304.383753 161.125455 
L 304.713341 163.870909 
L 306.072839 163.870909 
L 306.331508 165.243636 
L 307.491894 165.243636 
L 307.811229 167.989091 
L 308.510502 167.989091 
L 309.079513 169.361818 
L 309.541885 169.361818 
L 309.851651 170.734545 
L 311.901707 170.734545 
L 312.439251 172.107273 
L 312.491865 172.107273 
L 312.720285 173.48 
L 312.967439 174.852727 
L 313.908035 174.852727 
L 314.000659 176.225455 
L 314.525729 177.598182 
L 315.328371 177.598182 
L 315.40773 178.970909 
L 315.734712 178.970909 
L 315.759449 180.343636 
L 316.363407 180.343636 
L 316.854661 183.089091 
L 317.547419 184.461818 
L 317.706499 184.461818 
L 317.767829 185.834545 
L 318.766977 185.834545 
L 319.132752 191.325455 
L 319.894081 191.325455 
L 321.303715 192.698182 
L 323.185057 192.698182 
L 323.655547 194.070909 
L 325.867268 194.070909 
L 325.948891 195.443636 
L 326.483979 195.443636 
L 327.268699 196.816364 
L 329.014885 196.816364 
L 329.071152 198.189091 
L 329.445814 198.189091 
L 329.705657 199.561818 
L 330.07438 199.561818 
L 330.334074 200.934545 
L 330.37669 203.68 
L 330.556064 205.052727 
L 335.041284 205.052727 
L 335.714475 209.170909 
L 335.994205 209.170909 
L 336.368761 211.916364 
L 337.306473 213.289091 
L 337.369639 214.661818 
L 337.655778 214.661818 
L 338.017837 216.034545 
L 339.246944 217.407273 
L 339.373127 218.78 
L 340.244404 218.78 
L 340.311822 220.152727 
L 340.546586 221.525455 
L 342.426048 221.525455 
L 342.530101 222.898182 
L 342.900704 222.898182 
L 343.414644 224.270909 
L 343.854309 224.270909 
L 343.889022 225.643636 
L 344.250888 227.016364 
L 345.079229 228.389091 
L 345.255099 228.389091 
L 345.35678 229.761818 
L 346.649694 231.134545 
L 348.320431 231.134545 
L 348.824823 232.507273 
L 349.685419 232.507273 
L 349.902689 233.88 
L 354.096963 233.88 
L 354.987551 235.252727 
L 355.045783 236.625455 
L 355.880083 237.998182 
L 358.361538 239.370909 
L 360.126181 240.743636 
L 361.228976 240.743636 
L 362.189588 242.116364 
L 373.581818 242.116364 
L 373.581818 242.116364 
" style="fill:none;stroke:#dd8452;stroke-linecap:round;stroke-width:1.5;"/>
   </g>
   <g id="patch_3">
    <path d="M 54 252 
L 54 34.56 
" style="fill:none;stroke:#ffffff;stroke-linecap:square;stroke-linejoin:miter;stroke-width:1.25;"/>
   </g>
   <g id="patch_4">
    <path d="M 388.8 252 
L 388.8 34.56 
" style="fill:none;stroke:#ffffff;stroke-linecap:square;stroke-linejoin:miter;stroke-width:1.25;"/>
   </g>
   <g id="patch_5">
    <path d="M 54 252 
L 388.8 252 
" style="fill:none;stroke:#ffffff;stroke-linecap:square;stroke-linejoin:miter;stroke-width:1.25;"/>
   </g>
   <g id="patch_6">
    <path d="M 54 34.56 
L 388.8 34.56 
" style="fill:none;stroke:#ffffff;stroke-linecap:square;stroke-linejoin:miter;stroke-width:1.25;"/>
   </g>
   <g id="text_12">
    <!-- Precision and Recall Curves -->
    <g style="fill:#262626;" transform="translate(146.037188 28.56)scale(0.12 -0.12)">
     <defs>
      <path d="M 7.71875 0 
L 7.71875 71.578125 
L 34.71875 71.578125 
Q 41.84375 71.578125 45.609375 70.90625 
Q 50.875 70.015625 54.4375 67.546875 
Q 58.015625 65.09375 60.1875 60.640625 
Q 62.359375 56.203125 62.359375 50.875 
Q 62.359375 41.75 56.546875 35.421875 
Q 50.734375 29.109375 35.546875 29.109375 
L 17.1875 29.109375 
L 17.1875 0 
z
M 17.1875 37.546875 
L 35.6875 37.546875 
Q 44.875 37.546875 48.734375 40.96875 
Q 52.59375 44.390625 52.59375 50.59375 
Q 52.59375 55.078125 50.3125 58.265625 
Q 48.046875 61.46875 44.34375 62.5 
Q 41.9375 63.140625 35.5 63.140625 
L 17.1875 63.140625 
z
" id="ArialMT-80"/>
      <path d="M 40.4375 19 
L 49.078125 17.875 
Q 47.65625 8.9375 41.8125 3.875 
Q 35.984375 -1.171875 27.484375 -1.171875 
Q 16.84375 -1.171875 10.375 5.78125 
Q 3.90625 12.75 3.90625 25.734375 
Q 3.90625 34.125 6.6875 40.421875 
Q 9.46875 46.734375 15.15625 49.875 
Q 20.84375 53.03125 27.546875 53.03125 
Q 35.984375 53.03125 41.359375 48.75 
Q 46.734375 44.484375 48.25 36.625 
L 39.703125 35.296875 
Q 38.484375 40.53125 35.375 43.15625 
Q 32.28125 45.796875 27.875 45.796875 
Q 21.234375 45.796875 17.078125 41.03125 
Q 12.9375 36.28125 12.9375 25.984375 
Q 12.9375 15.53125 16.9375 10.796875 
Q 20.953125 6.0625 27.390625 6.0625 
Q 32.5625 6.0625 36.03125 9.234375 
Q 39.5 12.40625 40.4375 19 
z
" id="ArialMT-99"/>
      <path d="M 6.640625 61.46875 
L 6.640625 71.578125 
L 15.4375 71.578125 
L 15.4375 61.46875 
z
M 6.640625 0 
L 6.640625 51.859375 
L 15.4375 51.859375 
L 15.4375 0 
z
" id="ArialMT-105"/>
      <path d="M 6.59375 0 
L 6.59375 51.859375 
L 14.5 51.859375 
L 14.5 44.484375 
Q 20.21875 53.03125 31 53.03125 
Q 35.6875 53.03125 39.625 51.34375 
Q 43.5625 49.65625 45.515625 46.921875 
Q 47.46875 44.1875 48.25 40.4375 
Q 48.734375 37.984375 48.734375 31.890625 
L 48.734375 0 
L 39.9375 0 
L 39.9375 31.546875 
Q 39.9375 36.921875 38.90625 39.578125 
Q 37.890625 42.234375 35.28125 43.8125 
Q 32.671875 45.40625 29.15625 45.40625 
Q 23.53125 45.40625 19.453125 41.84375 
Q 15.375 38.28125 15.375 28.328125 
L 15.375 0 
z
" id="ArialMT-110"/>
      <path id="ArialMT-32"/>
      <path d="M 40.4375 6.390625 
Q 35.546875 2.25 31.03125 0.53125 
Q 26.515625 -1.171875 21.34375 -1.171875 
Q 12.796875 -1.171875 8.203125 3 
Q 3.609375 7.171875 3.609375 13.671875 
Q 3.609375 17.484375 5.34375 20.625 
Q 7.078125 23.78125 9.890625 25.6875 
Q 12.703125 27.59375 16.21875 28.5625 
Q 18.796875 29.25 24.03125 29.890625 
Q 34.671875 31.15625 39.703125 32.90625 
Q 39.75 34.71875 39.75 35.203125 
Q 39.75 40.578125 37.25 42.78125 
Q 33.890625 45.75 27.25 45.75 
Q 21.046875 45.75 18.09375 43.578125 
Q 15.140625 41.40625 13.71875 35.890625 
L 5.125 37.0625 
Q 6.296875 42.578125 8.984375 45.96875 
Q 11.671875 49.359375 16.75 51.1875 
Q 21.828125 53.03125 28.515625 53.03125 
Q 35.15625 53.03125 39.296875 51.46875 
Q 43.453125 49.90625 45.40625 47.53125 
Q 47.359375 45.171875 48.140625 41.546875 
Q 48.578125 39.3125 48.578125 33.453125 
L 48.578125 21.734375 
Q 48.578125 9.46875 49.140625 6.21875 
Q 49.703125 2.984375 51.375 0 
L 42.1875 0 
Q 40.828125 2.734375 40.4375 6.390625 
z
M 39.703125 26.03125 
Q 34.90625 24.078125 25.34375 22.703125 
Q 19.921875 21.921875 17.671875 20.9375 
Q 15.4375 19.96875 14.203125 18.09375 
Q 12.984375 16.21875 12.984375 13.921875 
Q 12.984375 10.40625 15.640625 8.0625 
Q 18.3125 5.71875 23.4375 5.71875 
Q 28.515625 5.71875 32.46875 7.9375 
Q 36.421875 10.15625 38.28125 14.015625 
Q 39.703125 17 39.703125 22.796875 
z
" id="ArialMT-97"/>
      <path d="M 7.859375 0 
L 7.859375 71.578125 
L 39.59375 71.578125 
Q 49.171875 71.578125 54.140625 69.640625 
Q 59.125 67.71875 62.109375 62.828125 
Q 65.09375 57.953125 65.09375 52.046875 
Q 65.09375 44.4375 60.15625 39.203125 
Q 55.21875 33.984375 44.921875 32.5625 
Q 48.6875 30.765625 50.640625 29 
Q 54.78125 25.203125 58.5 19.484375 
L 70.953125 0 
L 59.03125 0 
L 49.5625 14.890625 
Q 45.40625 21.34375 42.71875 24.75 
Q 40.046875 28.171875 37.921875 29.53125 
Q 35.796875 30.90625 33.59375 31.453125 
Q 31.984375 31.78125 28.328125 31.78125 
L 17.328125 31.78125 
L 17.328125 0 
z
M 17.328125 39.984375 
L 37.703125 39.984375 
Q 44.1875 39.984375 47.84375 41.328125 
Q 51.515625 42.671875 53.421875 45.625 
Q 55.328125 48.578125 55.328125 52.046875 
Q 55.328125 57.125 51.640625 60.390625 
Q 47.953125 63.671875 39.984375 63.671875 
L 17.328125 63.671875 
z
" id="ArialMT-82"/>
      <path d="M 58.796875 25.09375 
L 68.265625 22.703125 
Q 65.28125 11.03125 57.546875 4.90625 
Q 49.8125 -1.21875 38.625 -1.21875 
Q 27.046875 -1.21875 19.796875 3.484375 
Q 12.546875 8.203125 8.765625 17.140625 
Q 4.984375 26.078125 4.984375 36.328125 
Q 4.984375 47.515625 9.25 55.828125 
Q 13.53125 64.15625 21.40625 68.46875 
Q 29.296875 72.796875 38.765625 72.796875 
Q 49.515625 72.796875 56.828125 67.328125 
Q 64.15625 61.859375 67.046875 51.953125 
L 57.71875 49.75 
Q 55.21875 57.5625 50.484375 61.125 
Q 45.75 64.703125 38.578125 64.703125 
Q 30.328125 64.703125 24.78125 60.734375 
Q 19.234375 56.78125 16.984375 50.109375 
Q 14.75 43.453125 14.75 36.375 
Q 14.75 27.25 17.40625 20.4375 
Q 20.0625 13.625 25.671875 10.25 
Q 31.296875 6.890625 37.84375 6.890625 
Q 45.796875 6.890625 51.3125 11.46875 
Q 56.84375 16.0625 58.796875 25.09375 
z
" id="ArialMT-67"/>
      <path d="M 40.578125 0 
L 40.578125 7.625 
Q 34.515625 -1.171875 24.125 -1.171875 
Q 19.53125 -1.171875 15.546875 0.578125 
Q 11.578125 2.34375 9.640625 5 
Q 7.71875 7.671875 6.9375 11.53125 
Q 6.390625 14.109375 6.390625 19.734375 
L 6.390625 51.859375 
L 15.1875 51.859375 
L 15.1875 23.09375 
Q 15.1875 16.21875 15.71875 13.8125 
Q 16.546875 10.359375 19.234375 8.375 
Q 21.921875 6.390625 25.875 6.390625 
Q 29.828125 6.390625 33.296875 8.421875 
Q 36.765625 10.453125 38.203125 13.9375 
Q 39.65625 17.4375 39.65625 24.078125 
L 39.65625 51.859375 
L 48.4375 51.859375 
L 48.4375 0 
z
" id="ArialMT-117"/>
      <path d="M 21 0 
L 1.265625 51.859375 
L 10.546875 51.859375 
L 21.6875 20.796875 
Q 23.484375 15.765625 25 10.359375 
Q 26.171875 14.453125 28.265625 20.21875 
L 39.796875 51.859375 
L 48.828125 51.859375 
L 29.203125 0 
z
" id="ArialMT-118"/>
     </defs>
     <use xlink:href="#ArialMT-80"/>
     <use x="66.699219" xlink:href="#ArialMT-114"/>
     <use x="100" xlink:href="#ArialMT-101"/>
     <use x="155.615234" xlink:href="#ArialMT-99"/>
     <use x="205.615234" xlink:href="#ArialMT-105"/>
     <use x="227.832031" xlink:href="#ArialMT-115"/>
     <use x="277.832031" xlink:href="#ArialMT-105"/>
     <use x="300.048828" xlink:href="#ArialMT-111"/>
     <use x="355.664062" xlink:href="#ArialMT-110"/>
     <use x="411.279297" xlink:href="#ArialMT-32"/>
     <use x="439.0625" xlink:href="#ArialMT-97"/>
     <use x="494.677734" xlink:href="#ArialMT-110"/>
     <use x="550.292969" xlink:href="#ArialMT-100"/>
     <use x="605.908203" xlink:href="#ArialMT-32"/>
     <use x="633.691406" xlink:href="#ArialMT-82"/>
     <use x="705.908203" xlink:href="#ArialMT-101"/>
     <use x="761.523438" xlink:href="#ArialMT-99"/>
     <use x="811.523438" xlink:href="#ArialMT-97"/>
     <use x="867.138672" xlink:href="#ArialMT-108"/>
     <use x="889.355469" xlink:href="#ArialMT-108"/>
     <use x="911.572266" xlink:href="#ArialMT-32"/>
     <use x="939.355469" xlink:href="#ArialMT-67"/>
     <use x="1011.572266" xlink:href="#ArialMT-117"/>
     <use x="1067.1875" xlink:href="#ArialMT-114"/>
     <use x="1100.488281" xlink:href="#ArialMT-118"/>
     <use x="1150.488281" xlink:href="#ArialMT-101"/>
     <use x="1206.103516" xlink:href="#ArialMT-115"/>
    </g>
   </g>
   <g id="legend_1">
    <g id="patch_7">
     <path d="M 61.7 246.5 
L 140.918906 246.5 
Q 143.118906 246.5 143.118906 244.3 
L 143.118906 214.280312 
Q 143.118906 212.080312 140.918906 212.080312 
L 61.7 212.080312 
Q 59.5 212.080312 59.5 214.280312 
L 59.5 244.3 
Q 59.5 246.5 61.7 246.5 
z
" style="fill:#eaeaf2;opacity:0.8;stroke:#cccccc;stroke-linejoin:miter;"/>
    </g>
    <g id="line2d_13">
     <path d="M 63.9 220.503906 
L 85.9 220.503906 
" style="fill:none;stroke:#4c72b0;stroke-linecap:round;stroke-width:1.5;"/>
    </g>
    <g id="line2d_14"/>
    <g id="text_13">
     <!-- precision -->
     <g style="fill:#262626;" transform="translate(94.7 224.353906)scale(0.11 -0.11)">
      <defs>
       <path d="M 6.59375 -19.875 
L 6.59375 51.859375 
L 14.59375 51.859375 
L 14.59375 45.125 
Q 17.4375 49.078125 21 51.046875 
Q 24.5625 53.03125 29.640625 53.03125 
Q 36.28125 53.03125 41.359375 49.609375 
Q 46.4375 46.1875 49.015625 39.953125 
Q 51.609375 33.734375 51.609375 26.3125 
Q 51.609375 18.359375 48.75 11.984375 
Q 45.90625 5.609375 40.453125 2.21875 
Q 35.015625 -1.171875 29 -1.171875 
Q 24.609375 -1.171875 21.109375 0.6875 
Q 17.625 2.546875 15.375 5.375 
L 15.375 -19.875 
z
M 14.546875 25.640625 
Q 14.546875 15.625 18.59375 10.84375 
Q 22.65625 6.0625 28.421875 6.0625 
Q 34.28125 6.0625 38.453125 11.015625 
Q 42.625 15.96875 42.625 26.375 
Q 42.625 36.28125 38.546875 41.203125 
Q 34.46875 46.140625 28.8125 46.140625 
Q 23.1875 46.140625 18.859375 40.890625 
Q 14.546875 35.640625 14.546875 25.640625 
z
" id="ArialMT-112"/>
      </defs>
      <use xlink:href="#ArialMT-112"/>
      <use x="55.615234" xlink:href="#ArialMT-114"/>
      <use x="88.916016" xlink:href="#ArialMT-101"/>
      <use x="144.53125" xlink:href="#ArialMT-99"/>
      <use x="194.53125" xlink:href="#ArialMT-105"/>
      <use x="216.748047" xlink:href="#ArialMT-115"/>
      <use x="266.748047" xlink:href="#ArialMT-105"/>
      <use x="288.964844" xlink:href="#ArialMT-111"/>
      <use x="344.580078" xlink:href="#ArialMT-110"/>
     </g>
    </g>
    <g id="line2d_15">
     <path d="M 63.9 236.06375 
L 85.9 236.06375 
" style="fill:none;stroke:#dd8452;stroke-linecap:round;stroke-width:1.5;"/>
    </g>
    <g id="line2d_16"/>
    <g id="text_14">
     <!-- recall -->
     <g style="fill:#262626;" transform="translate(94.7 239.91375)scale(0.11 -0.11)">
      <use xlink:href="#ArialMT-114"/>
      <use x="33.300781" xlink:href="#ArialMT-101"/>
      <use x="88.916016" xlink:href="#ArialMT-99"/>
      <use x="138.916016" xlink:href="#ArialMT-97"/>
      <use x="194.53125" xlink:href="#ArialMT-108"/>
      <use x="216.748047" xlink:href="#ArialMT-108"/>
     </g>
    </g>
   </g>
  </g>
 </g>
 <defs>
  <clipPath id="p1f4c3d417c">
   <rect height="217.44" width="334.8" x="54" y="34.56"/>
  </clipPath>
 </defs>
</svg>
